EncodeSansExpanded-Bold.ufo
<glyph name="exclam" format="2">
  <advance width="663.2929292929293"/>
  <unicode hex="0021"/>
  <outline>
    <contour>
      <point x="229.02020202020202" y="467.6363636363636" type="line"/>
      <point x="438.48484848484844" y="467.6363636363636" type="line"/>
      <point x="513.6666666666666" y="964.4141414141413" type="line"/>
      <point x="513.6666666666666" y="1480.0" type="line"/>
      <point x="149.62626262626264" y="1480.0" type="line"/>
      <point x="149.62626262626264" y="964.4141414141413" type="line"/>
    </contour>
    <contour>
      <point x="331.64646464646466" y="-17.02020202020202" type="curve" smooth="yes"/>
      <point x="470.1414141414141" y="-17.02020202020202"/>
      <point x="553.7070707070707" y="56.12121212121212"/>
      <point x="553.7070707070707" y="167.1313131313131" type="curve" smooth="yes"/>
      <point x="553.7070707070707" y="278.1414141414141"/>
      <point x="472.9494949494949" y="351.8787878787878"/>
      <point x="331.64646464646466" y="351.8787878787878" type="curve" smooth="yes"/>
      <point x="190.34343434343435" y="351.8787878787878"/>
      <point x="109.5858585858586" y="280.9494949494949"/>
      <point x="109.5858585858586" y="167.1313131313131" type="curve" smooth="yes"/>
      <point x="109.5858585858586" y="53.31313131313131"/>
      <point x="193.15151515151516" y="-17.02020202020202"/>
    </contour>
  </outline>
</glyph>
<glyph name="quotedbl" format="2">
  <advance width="1013.1919191919192"/>
  <unicode hex="0022"/>
  <outline>
    <contour>
      <point x="163.11111111111111" y="835.2525252525253" type="line"/>
      <point x="371.5959595959596" y="835.2525252525253" type="line"/>
      <point x="433.7171717171717" y="1616.0" type="line"/>
      <point x="100.989898989899" y="1616.0" type="line"/>
    </contour>
    <contour>
      <point x="641.5959595959596" y="835.2525252525253" type="line"/>
      <point x="850.0808080808081" y="835.2525252525253" type="line"/>
      <point x="912.2020202020201" y="1616.0" type="line"/>
      <point x="579.4747474747475" y="1616.0" type="line"/>
    </contour>
  </outline>
</glyph>
<glyph name="numbersign" format="2">
  <advance width="1368.4848484848485"/>
  <unicode hex="0023"/>
  <outline>
    <contour>
      <point x="693.060606060606" y="0.0" type="line"/>
      <point x="961.2424242424242" y="0.0" type="line"/>
      <point x="1145.2424242424242" y="1480.0" type="line"/>
      <point x="877.060606060606" y="1480.0" type="line"/>
    </contour>
    <contour>
      <point x="110.0" y="371.8484848484849" type="line"/>
      <point x="1258.4848484848485" y="371.8484848484849" type="line"/>
      <point x="1258.4848484848485" y="634.4141414141413" type="line"/>
      <point x="110.0" y="634.4141414141413" type="line"/>
    </contour>
    <contour>
      <point x="223.24242424242425" y="0.0" type="line"/>
      <point x="491.4242424242424" y="0.0" type="line"/>
      <point x="675.4242424242424" y="1480.0" type="line"/>
      <point x="407.24242424242425" y="1480.0" type="line"/>
    </contour>
    <contour>
      <point x="110.0" y="845.5858585858587" type="line"/>
      <point x="1258.4848484848485" y="845.5858585858587" type="line"/>
      <point x="1258.4848484848485" y="1108.151515151515" type="line"/>
      <point x="110.0" y="1108.151515151515" type="line"/>
    </contour>
  </outline>
</glyph>
<glyph name="percent" format="2">
  <advance width="2320.9494949494947"/>
  <unicode hex="0025"/>
  <note>
450
</note>
  <outline>
    <contour>
      <point x="649.8080808080808" y="0.0" type="line"/>
      <point x="937.2222222222222" y="0.0" type="line"/>
      <point x="1671.141414141414" y="1480.0" type="line"/>
      <point x="1383.7272727272727" y="1480.0" type="line"/>
    </contour>
    <contour>
      <point x="541.8181818181818" y="569.5757575757576" type="curve" smooth="yes"/>
      <point x="799.2121212121212" y="569.5757575757576"/>
      <point x="979.9292929292928" y="729.8686868686868"/>
      <point x="979.9292929292928" y="1033.7878787878788" type="curve" smooth="yes"/>
      <point x="979.9292929292928" y="1337.7070707070707"/>
      <point x="800.4040404040404" y="1499.4040404040404"/>
      <point x="541.8181818181818" y="1499.4040404040404" type="curve" smooth="yes"/>
      <point x="283.2323232323232" y="1499.4040404040404"/>
      <point x="103.70707070707071" y="1337.7070707070707"/>
      <point x="103.70707070707071" y="1033.7878787878788" type="curve" smooth="yes"/>
      <point x="103.70707070707071" y="729.8686868686868"/>
      <point x="284.42424242424244" y="569.5757575757576"/>
    </contour>
    <contour>
      <point x="541.8181818181818" y="779.5959595959596" type="curve" smooth="yes"/>
      <point x="441.979797979798" y="779.5959595959596"/>
      <point x="369.67676767676767" y="851.0909090909091"/>
      <point x="369.67676767676767" y="1034.3838383838383" type="curve" smooth="yes"/>
      <point x="369.67676767676767" y="1217.6767676767677"/>
      <point x="441.979797979798" y="1289.3838383838383"/>
      <point x="541.8181818181818" y="1289.3838383838383" type="curve" smooth="yes"/>
      <point x="641.060606060606" y="1289.3838383838383"/>
      <point x="713.959595959596" y="1217.6767676767677"/>
      <point x="713.959595959596" y="1033.1919191919192" type="curve" smooth="yes"/>
      <point x="713.959595959596" y="848.7070707070707"/>
      <point x="641.060606060606" y="779.5959595959596"/>
    </contour>
    <contour>
      <point x="1779.1313131313132" y="-18.0" type="curve" smooth="yes"/>
      <point x="2036.5252525252524" y="-18.0"/>
      <point x="2217.242424242424" y="142.29292929292927"/>
      <point x="2217.242424242424" y="446.2121212121212" type="curve" smooth="yes"/>
      <point x="2217.242424242424" y="750.1313131313132"/>
      <point x="2037.7171717171716" y="911.8282828282828"/>
      <point x="1779.1313131313132" y="911.8282828282828" type="curve" smooth="yes"/>
      <point x="1520.5454545454545" y="911.8282828282828"/>
      <point x="1341.0202020202019" y="750.1313131313132"/>
      <point x="1341.0202020202019" y="446.2121212121212" type="curve" smooth="yes"/>
      <point x="1341.0202020202019" y="142.29292929292927"/>
      <point x="1521.7373737373737" y="-18.0"/>
    </contour>
    <contour>
      <point x="1779.1313131313132" y="192.020202020202" type="curve" smooth="yes"/>
      <point x="1679.8888888888887" y="192.020202020202"/>
      <point x="1606.9898989898988" y="263.5151515151515"/>
      <point x="1606.9898989898988" y="446.80808080808083" type="curve" smooth="yes"/>
      <point x="1606.9898989898988" y="630.1010101010102"/>
      <point x="1679.8888888888887" y="701.8080808080808"/>
      <point x="1779.1313131313132" y="701.8080808080808" type="curve" smooth="yes"/>
      <point x="1878.3737373737372" y="701.8080808080808"/>
      <point x="1951.2727272727273" y="630.1010101010102"/>
      <point x="1951.2727272727273" y="445.6161616161616" type="curve" smooth="yes"/>
      <point x="1951.2727272727273" y="261.1313131313131"/>
      <point x="1878.3737373737372" y="192.020202020202"/>
    </contour>
  </outline>
</glyph>
<glyph name="ampersand" format="2">
  <advance width="1778.6565656565656"/>
  <unicode hex="0026"/>
  <outline>
    <contour>
      <point x="1641.5656565656566" y="-20.0" type="line"/>
      <point x="1778.6565656565656" y="227.75757575757572" type="line"/>
      <point x="815.1414141414141" y="796.4444444444443" type="line" smooth="yes"/>
      <point x="670.3131313131313" y="889.9494949494949"/>
      <point x="627.7575757575758" y="946.6363636363636"/>
      <point x="627.7575757575758" y="1028.2222222222222" type="curve" smooth="yes"/>
      <point x="627.7575757575758" y="1147.3434343434344"/>
      <point x="707.2121212121212" y="1225.6060606060607"/>
      <point x="980.4949494949494" y="1225.6060606060607" type="curve" smooth="yes"/>
      <point x="1078.4545454545455" y="1225.6060606060607"/>
      <point x="1179.4747474747473" y="1213.0101010101012"/>
      <point x="1255.2626262626263" y="1196.030303030303" type="curve"/>
      <point x="1255.2626262626263" y="1474.6363636363637" type="line"/>
      <point x="1170.030303030303" y="1489.6161616161617"/>
      <point x="1074.030303030303" y="1499.4040404040404"/>
      <point x="958.6262626262626" y="1499.4040404040404" type="curve" smooth="yes"/>
      <point x="497.1111111111111" y="1499.4040404040404"/>
      <point x="279.16161616161617" y="1326.3434343434344"/>
      <point x="279.16161616161617" y="1043.6666666666667" type="curve" smooth="yes"/>
      <point x="279.16161616161617" y="886.939393939394"/>
      <point x="353.1212121212121" y="739.6666666666666"/>
      <point x="678.0505050505051" y="548.6868686868687" type="curve" smooth="yes"/>
    </contour>
    <contour>
      <point x="781.8686868686868" y="-18.0" type="curve" smooth="yes"/>
      <point x="1248.2828282828282" y="-18.0"/>
      <point x="1515.848484848485" y="197.1010101010101"/>
      <point x="1515.848484848485" y="609.3838383838383" type="curve" smooth="yes"/>
      <point x="1515.848484848485" y="689.1313131313132"/>
      <point x="1502.6565656565656" y="779.5151515151515"/>
      <point x="1478.4848484848485" y="862.4949494949494" type="curve"/>
      <point x="1206.3030303030303" y="862.4949494949494" type="line"/>
      <point x="1230.4747474747476" y="779.5151515151515"/>
      <point x="1246.2626262626263" y="686.5353535353535"/>
      <point x="1246.2626262626263" y="607.1717171717171" type="curve" smooth="yes"/>
      <point x="1246.2626262626263" y="322.3636363636364"/>
      <point x="1074.3030303030303" y="217.88888888888886"/>
      <point x="821.7777777777778" y="217.88888888888886" type="curve" smooth="yes"/>
      <point x="587.7979797979797" y="217.88888888888886"/>
      <point x="474.8585858585858" y="304.4949494949495"/>
      <point x="474.8585858585858" y="439.6969696969697" type="curve" smooth="yes"/>
      <point x="474.8585858585858" y="543.3232323232323"/>
      <point x="527.9696969696969" y="616.989898989899"/>
      <point x="622.4949494949494" y="671.3333333333334" type="curve"/>
      <point x="440.0909090909091" y="796.7272727272727" type="line"/>
      <point x="259.74747474747477" y="739.4040404040404"/>
      <point x="126.26262626262627" y="599.020202020202"/>
      <point x="126.26262626262627" y="404.2121212121212" type="curve" smooth="yes"/>
      <point x="126.26262626262627" y="151.57575757575756"/>
      <point x="339.57575757575756" y="-18.0"/>
    </contour>
  </outline>
</glyph>
<glyph name="quotesingle" format="2">
  <advance width="534.7070707070707"/>
  <unicode hex="0027"/>
  <outline>
    <contour>
      <point x="163.11111111111111" y="835.2525252525253" type="line"/>
      <point x="371.5959595959596" y="835.2525252525253" type="line"/>
      <point x="433.7171717171717" y="1616.0" type="line"/>
      <point x="100.989898989899" y="1616.0" type="line"/>
    </contour>
  </outline>
</glyph>
<glyph name="parenleft" format="2">
  <advance width="795.8585858585859"/>
  <unicode hex="0028"/>
  <outline>
    <contour>
      <point x="527.3636363636364" y="-440.0" type="curve"/>
      <point x="903.1919191919192" y="-440.0" type="line"/>
      <point x="587.1111111111111" y="-128.8080808080808"/>
      <point x="470.09090909090907" y="185.70707070707073"/>
      <point x="470.09090909090907" y="588.0" type="curve" smooth="yes"/>
      <point x="470.09090909090907" y="990.2929292929293"/>
      <point x="587.1111111111111" y="1304.8080808080808"/>
      <point x="903.1919191919192" y="1616.0" type="curve"/>
      <point x="527.3636363636364" y="1616.0" type="line"/>
      <point x="234.6868686868687" y="1350.2929292929293"/>
      <point x="120.0909090909091" y="990.6767676767677"/>
      <point x="120.0909090909091" y="588.0" type="curve" smooth="yes"/>
      <point x="120.0909090909091" y="185.32323232323233"/>
      <point x="234.6868686868687" y="-174.29292929292927"/>
    </contour>
  </outline>
</glyph>
<glyph name="parenright" format="2">
  <advance width="795.8585858585859"/>
  <unicode hex="0029"/>
  <outline>
    <contour>
      <point x="-107.33333333333329" y="-440.0" type="curve"/>
      <point x="268.4949494949495" y="-440.0" type="line"/>
      <point x="561.1717171717171" y="-174.29292929292927"/>
      <point x="675.7676767676767" y="185.32323232323233"/>
      <point x="675.7676767676767" y="588.0" type="curve" smooth="yes"/>
      <point x="675.7676767676767" y="990.6767676767677"/>
      <point x="561.1717171717171" y="1350.2929292929293"/>
      <point x="268.4949494949495" y="1616.0" type="curve"/>
      <point x="-107.33333333333329" y="1616.0" type="line"/>
      <point x="208.74747474747477" y="1304.8080808080808"/>
      <point x="325.7676767676768" y="990.2929292929293"/>
      <point x="325.7676767676768" y="588.0" type="curve" smooth="yes"/>
      <point x="325.7676767676768" y="185.70707070707073"/>
      <point x="208.74747474747477" y="-128.8080808080808"/>
    </contour>
  </outline>
</glyph>
<glyph name="asterisk" format="2">
  <advance width="1054.020202020202"/>
  <unicode hex="002A"/>
  <outline>
    <contour>
      <point x="658.3131313131313" y="1134.6060606060605" type="line"/>
      <point x="833.8484848484848" y="1158.7373737373737" type="line"/>
      <point x="1024.020202020202" y="1219.9292929292928" type="line"/>
      <point x="956.2828282828282" y="1427.3535353535353" type="line"/>
      <point x="766.7070707070707" y="1366.1616161616162" type="line"/>
      <point x="601.9797979797979" y="1275.5252525252524" type="line"/>
      <point x="636.2323232323232" y="1461.2727272727273" type="line"/>
      <point x="636.2323232323232" y="1616.0" type="line"/>
      <point x="417.7878787878788" y="1616.0" type="line"/>
      <point x="417.7878787878788" y="1461.2727272727273" type="line"/>
      <point x="452.04040404040404" y="1275.5252525252524" type="line"/>
      <point x="287.3131313131313" y="1366.1616161616162" type="line"/>
      <point x="97.73737373737373" y="1427.3535353535353" type="line"/>
      <point x="30.0" y="1219.9292929292928" type="line"/>
      <point x="220.17171717171718" y="1158.7373737373737" type="line"/>
      <point x="395.7070707070707" y="1134.6060606060605" type="line"/>
      <point x="263.7070707070707" y="1008.0909090909091" type="line"/>
      <point x="167.95959595959596" y="875.1515151515151" type="line"/>
      <point x="344.9191919191919" y="747.2929292929293" type="line"/>
      <point x="440.66666666666663" y="878.8282828282829" type="line"/>
      <point x="527.010101010101" y="1062.6565656565658" type="line"/>
      <point x="613.3535353535353" y="878.8282828282829" type="line"/>
      <point x="709.10101010101" y="747.2929292929293" type="line"/>
      <point x="886.060606060606" y="875.1515151515151" type="line"/>
      <point x="790.3131313131313" y="1008.0909090909091" type="line"/>
    </contour>
  </outline>
</glyph>
<glyph name="plus" format="2">
  <advance width="1169.7777777777778"/>
  <unicode hex="002B"/>
  <outline>
    <contour>
      <point x="449.7979797979798" y="302.1818181818182" type="line"/>
      <point x="719.9797979797979" y="302.1818181818182" type="line"/>
      <point x="719.9797979797979" y="631.1212121212121" type="line"/>
      <point x="1033.1313131313132" y="631.1212121212121" type="line"/>
      <point x="1033.1313131313132" y="888.8787878787879" type="line"/>
      <point x="719.9797979797979" y="888.8787878787879" type="line"/>
      <point x="719.9797979797979" y="1217.8181818181818" type="line"/>
      <point x="449.7979797979798" y="1217.8181818181818" type="line"/>
      <point x="449.7979797979798" y="888.8787878787879" type="line"/>
      <point x="136.64646464646466" y="888.8787878787879" type="line"/>
      <point x="136.64646464646466" y="631.1212121212121" type="line"/>
      <point x="449.7979797979798" y="631.1212121212121" type="line"/>
    </contour>
  </outline>
</glyph>
<glyph name="hyphen" format="2">
  <advance width="1081.4646464646464"/>
  <unicode hex="002D"/>
  <outline>
    <contour>
      <point x="136.64646464646466" y="426.90909090909093" type="line"/>
      <point x="944.8181818181818" y="426.90909090909093" type="line"/>
      <point x="944.8181818181818" y="707.1313131313132" type="line"/>
      <point x="136.64646464646466" y="707.1313131313132" type="line"/>
    </contour>
  </outline>
</glyph>
<glyph name="period" format="2">
  <advance width="623.2929292929293"/>
  <unicode hex="002E"/>
  <outline>
    <contour>
      <point x="311.64646464646466" y="-17.02020202020202" type="curve" smooth="yes"/>
      <point x="450.1414141414141" y="-17.02020202020202"/>
      <point x="533.7070707070707" y="61.73737373737373"/>
      <point x="533.7070707070707" y="181.17171717171715" type="curve" smooth="yes"/>
      <point x="533.7070707070707" y="300.6060606060605"/>
      <point x="452.9494949494949" y="379.9595959595959"/>
      <point x="311.64646464646466" y="379.9595959595959" type="curve" smooth="yes"/>
      <point x="170.34343434343435" y="379.9595959595959"/>
      <point x="89.5858585858586" y="303.41414141414134"/>
      <point x="89.5858585858586" y="181.17171717171715" type="curve" smooth="yes"/>
      <point x="89.5858585858586" y="58.92929292929292"/>
      <point x="173.15151515151516" y="-17.02020202020202"/>
    </contour>
  </outline>
</glyph>
<glyph name="slash" format="2">
  <advance width="926.2929292929292"/>
  <unicode hex="002F"/>
  <outline>
    <contour>
      <point x="0.0" y="-240.0" type="line"/>
      <point x="347.40404040404036" y="-240.0" type="line"/>
      <point x="926.2929292929292" y="1616.0" type="line"/>
      <point x="578.8888888888889" y="1616.0" type="line"/>
    </contour>
  </outline>
</glyph>
<glyph name="zero" format="2">
  <advance width="1510.2323232323233"/>
  <unicode hex="0030"/>
  <note>
600
</note>
  <outline>
    <contour>
      <point x="754.4141414141413" y="-19.404040404040405" type="curve" smooth="yes"/>
      <point x="1146.020202020202" y="-19.404040404040405"/>
      <point x="1400.141414141414" y="221.3131313131313"/>
      <point x="1400.141414141414" y="740.0" type="curve" smooth="yes"/>
      <point x="1400.141414141414" y="1258.6868686868686"/>
      <point x="1147.8080808080808" y="1499.4040404040404"/>
      <point x="754.4141414141413" y="1499.4040404040404" type="curve" smooth="yes"/>
      <point x="361.020202020202" y="1499.4040404040404"/>
      <point x="110.0909090909091" y="1258.6868686868686"/>
      <point x="110.0909090909091" y="740.0" type="curve" smooth="yes"/>
      <point x="110.0909090909091" y="221.3131313131313"/>
      <point x="362.80808080808083" y="-19.404040404040405"/>
    </contour>
    <contour>
      <point x="755.8181818181818" y="265.6262626262626" type="curve" smooth="yes"/>
      <point x="569.6767676767677" y="265.6262626262626"/>
      <point x="455.8787878787878" y="377.2929292929293"/>
      <point x="455.8787878787878" y="741.1919191919192" type="curve" smooth="yes"/>
      <point x="455.8787878787878" y="1102.7070707070707"/>
      <point x="572.4848484848485" y="1214.3737373737374"/>
      <point x="755.8181818181818" y="1214.3737373737374" type="curve" smooth="yes"/>
      <point x="937.7474747474747" y="1214.3737373737374"/>
      <point x="1054.3535353535353" y="1102.7070707070707"/>
      <point x="1054.3535353535353" y="738.8080808080808" type="curve" smooth="yes"/>
      <point x="1054.3535353535353" y="377.2929292929293"/>
      <point x="937.7474747474747" y="265.6262626262626"/>
    </contour>
  </outline>
</glyph>
<glyph name="one" format="2">
  <advance width="989.1616161616162"/>
  <unicode hex="0031"/>
  <outline>
    <contour>
      <point x="469.1111111111111" y="0.0" type="line"/>
      <point x="823.5353535353535" y="0.0" type="line"/>
      <point x="823.5353535353535" y="1485.4040404040404" type="line"/>
      <point x="585.1818181818181" y="1485.4040404040404" type="line"/>
      <point x="42.848484848484844" y="1096.3030303030303" type="line"/>
      <point x="42.848484848484844" y="764.979797979798" type="line"/>
      <point x="585.1818181818181" y="1152.888888888889" type="line"/>
      <point x="469.1111111111111" y="1293.4646464646464" type="line"/>
    </contour>
  </outline>
</glyph>
<glyph name="two" format="2">
  <advance width="1218.2323232323233"/>
  <unicode hex="0032"/>
  <outline>
    <contour>
      <point x="58.131313131313135" y="0.0" type="line"/>
      <point x="1156.4848484848485" y="0.0" type="line"/>
      <point x="1156.4848484848485" y="277.41414141414134" type="line"/>
      <point x="445.4444444444444" y="277.41414141414134" type="line"/>
      <point x="448.21212121212113" y="186.020202020202" type="line"/>
      <point x="830.4343434343434" y="583.2727272727273" type="line" smooth="yes"/>
      <point x="1011.1616161616162" y="771.3232323232323"/>
      <point x="1074.949494949495" y="906.7272727272727"/>
      <point x="1074.949494949495" y="1067.2828282828284" type="curve" smooth="yes"/>
      <point x="1074.949494949495" y="1358.5555555555557"/>
      <point x="880.6565656565656" y="1499.4040404040404"/>
      <point x="453.65656565656565" y="1499.4040404040404" type="curve" smooth="yes"/>
      <point x="310.4646464646464" y="1499.4040404040404"/>
      <point x="140.13131313131314" y="1471.7878787878788"/>
      <point x="40.131313131313135" y="1439.4040404040404" type="curve"/>
      <point x="40.131313131313135" y="1160.79797979798" type="line"/>
      <point x="141.4949494949495" y="1197.1818181818182"/>
      <point x="286.7676767676768" y="1225.6060606060607"/>
      <point x="428.3838383838384" y="1225.6060606060607" type="curve" smooth="yes"/>
      <point x="645.2828282828283" y="1225.6060606060607"/>
      <point x="726.9494949494949" y="1161.5151515151515"/>
      <point x="726.9494949494949" y="1028.1818181818182" type="curve" smooth="yes"/>
      <point x="726.9494949494949" y="936.939393939394"/>
      <point x="679.7979797979798" y="849.2727272727273"/>
      <point x="537.3232323232323" y="695.8585858585858" type="curve" smooth="yes"/>
      <point x="58.131313131313135" y="181.80808080808077" type="line"/>
    </contour>
  </outline>
</glyph>
<glyph name="three" format="2">
  <advance width="1227.4242424242425"/>
  <unicode hex="0033"/>
  <outline>
    <contour>
      <point x="504.96969696969694" y="-19.404040404040405" type="curve" smooth="yes"/>
      <point x="963.5959595959596" y="-19.404040404040405"/>
      <point x="1154.4444444444443" y="151.82828282828282"/>
      <point x="1154.4444444444443" y="418.04040404040404" type="curve" smooth="yes"/>
      <point x="1154.4444444444443" y="627.6161616161617"/>
      <point x="1021.0808080808081" y="742.5555555555555"/>
      <point x="805.8383838383838" y="772.7676767676768" type="curve"/>
      <point x="805.8383838383838" y="755.4040404040404" type="line"/>
      <point x="984.5252525252524" y="794.5959595959596"/>
      <point x="1101.040404040404" y="918.9797979797979"/>
      <point x="1101.040404040404" y="1092.6868686868686" type="curve" smooth="yes"/>
      <point x="1101.040404040404" y="1348.7676767676767"/>
      <point x="905.7676767676767" y="1499.4040404040404"/>
      <point x="507.060606060606" y="1499.4040404040404" type="curve" smooth="yes"/>
      <point x="365.8282828282828" y="1499.4040404040404"/>
      <point x="201.70707070707073" y="1475.7878787878788"/>
      <point x="91.32323232323233" y="1441.1919191919192" type="curve"/>
      <point x="91.32323232323233" y="1189.2626262626263" type="line"/>
      <point x="208.8989898989899" y="1227.858585858586"/>
      <point x="351.95959595959596" y="1249.4747474747476"/>
      <point x="475.57575757575756" y="1249.4747474747476" type="curve" smooth="yes"/>
      <point x="674.2222222222223" y="1249.4747474747476"/>
      <point x="762.8686868686868" y="1181.0"/>
      <point x="762.8686868686868" y="1066.8181818181818" type="curve" smooth="yes"/>
      <point x="762.8686868686868" y="947.7373737373737"/>
      <point x="673.3232323232323" y="882.4545454545455"/>
      <point x="440.969696969697" y="882.4545454545455" type="curve" smooth="yes"/>
      <point x="237.2020202020202" y="882.4545454545455" type="line"/>
      <point x="237.2020202020202" y="631.1212121212121" type="line"/>
      <point x="510.0" y="631.1212121212121" type="line" smooth="yes"/>
      <point x="742.8585858585859" y="631.1212121212121"/>
      <point x="826.1010101010102" y="562.8585858585859"/>
      <point x="826.1010101010102" y="438.2929292929293" type="curve" smooth="yes"/>
      <point x="826.1010101010102" y="307.17171717171715"/>
      <point x="730.0505050505051" y="230.52525252525248"/>
      <point x="486.50505050505046" y="230.52525252525248" type="curve" smooth="yes"/>
      <point x="341.2323232323232" y="230.52525252525248"/>
      <point x="184.76767676767676" y="255.33333333333331"/>
      <point x="56.97979797979798" y="289.50505050505046" type="curve"/>
      <point x="56.97979797979798" y="37.57575757575758" type="line"/>
      <point x="187.6161616161616" y="2.5959595959595965"/>
      <point x="341.65656565656565" y="-19.404040404040405"/>
    </contour>
  </outline>
</glyph>
<glyph name="four" format="2">
  <advance width="1423.4646464646464"/>
  <unicode hex="0034"/>
  <outline>
    <contour>
      <point x="41.151515151515156" y="294.1414141414142" type="line"/>
      <point x="1386.1010101010102" y="294.1414141414142" type="line"/>
      <point x="1386.1010101010102" y="565.9393939393939" type="line"/>
      <point x="354.6868686868686" y="565.9393939393939" type="line"/>
      <point x="385.3232323232323" y="480.96969696969694" type="line"/>
      <point x="955.7676767676767" y="1480.0" type="line"/>
      <point x="613.8080808080808" y="1480.0" type="line"/>
      <point x="41.151515151515156" y="481.5656565656566" type="line"/>
    </contour>
    <contour>
      <point x="856.2626262626263" y="0.0" type="line"/>
      <point x="1175.5858585858587" y="0.0" type="line"/>
      <point x="1175.5858585858587" y="980.0" type="line"/>
      <point x="888.5151515151515" y="980.0" type="line"/>
      <point x="856.2626262626263" y="565.9393939393939" type="line"/>
    </contour>
  </outline>
</glyph>
<glyph name="five" format="2">
  <advance width="1241.2121212121212"/>
  <unicode hex="0035"/>
  <outline>
    <contour>
      <point x="530.1616161616162" y="-19.404040404040405" type="curve" smooth="yes"/>
      <point x="972.7878787878788" y="-19.404040404040405"/>
      <point x="1179.6363636363635" y="148.84848484848484"/>
      <point x="1181.0404040404042" y="444.2929292929293" type="curve" smooth="yes"/>
      <point x="1182.4444444444443" y="723.3535353535353"/>
      <point x="995.0" y="877.8181818181818"/>
      <point x="476.66666666666663" y="903.010101010101" type="curve" smooth="yes"/>
      <point x="233.35353535353534" y="915.010101010101" type="line"/>
      <point x="473.4949494949495" y="795.1919191919192" type="line"/>
      <point x="515.2828282828282" y="1368.6060606060605" type="line"/>
      <point x="364.95959595959596" y="1225.050505050505" type="line"/>
      <point x="1116.2323232323233" y="1225.050505050505" type="line"/>
      <point x="1116.2323232323233" y="1480.0" type="line"/>
      <point x="191.53535353535355" y="1480.0" type="line"/>
      <point x="135.32323232323233" y="667.8888888888889" type="line"/>
      <point x="378.6363636363636" y="655.8888888888889" type="line" smooth="yes"/>
      <point x="759.4545454545455" y="635.5050505050506"/>
      <point x="851.2929292929293" y="570.2222222222223"/>
      <point x="851.2929292929293" y="441.4848484848485" type="curve" smooth="yes"/>
      <point x="851.2929292929293" y="309.8080808080808"/>
      <point x="751.6666666666666" y="236.14141414141412"/>
      <point x="511.6969696969697" y="236.14141414141412" type="curve" smooth="yes"/>
      <point x="365.2323232323232" y="236.14141414141412"/>
      <point x="208.76767676767676" y="260.9494949494949"/>
      <point x="82.17171717171718" y="295.12121212121207" type="curve"/>
      <point x="82.17171717171718" y="43.19191919191919" type="line"/>
      <point x="212.21212121212122" y="6.0"/>
      <point x="366.25252525252523" y="-19.404040404040405"/>
    </contour>
  </outline>
</glyph>
<glyph name="six" format="2">
  <advance width="1401.080808080808"/>
  <unicode hex="0036"/>
  <outline>
    <contour>
      <point x="764.7979797979798" y="-19.404040404040405" type="curve" smooth="yes"/>
      <point x="1126.8686868686868" y="-19.404040404040405"/>
      <point x="1334.3131313131312" y="161.3131313131313"/>
      <point x="1334.3131313131312" y="441.3131313131313" type="curve" smooth="yes"/>
      <point x="1334.3131313131312" y="752.7979797979798"/>
      <point x="1125.8484848484848" y="892.5858585858585"/>
      <point x="808.6565656565656" y="892.5858585858585" type="curve" smooth="yes"/>
      <point x="660.4848484848485" y="892.5858585858585"/>
      <point x="500.5252525252525" y="849.6060606060606"/>
      <point x="410.18181818181813" y="781.6464646464647" type="curve"/>
      <point x="410.18181818181813" y="553.2020202020202" type="line"/>
      <point x="503.12121212121207" y="618.9090909090909"/>
      <point x="626.5353535353536" y="651.0808080808081"/>
      <point x="738.6666666666666" y="651.0808080808081" type="curve" smooth="yes"/>
      <point x="914.5555555555555" y="651.0808080808081"/>
      <point x="1015.7979797979798" y="582.2222222222222"/>
      <point x="1015.7979797979798" y="433.6969696969697" type="curve" smooth="yes"/>
      <point x="1015.7979797979798" y="292.78787878787875"/>
      <point x="918.9797979797979" y="222.10101010101008"/>
      <point x="764.7979797979798" y="222.10101010101008" type="curve" smooth="yes"/>
      <point x="573.5050505050505" y="222.10101010101008"/>
      <point x="459.8787878787878" y="326.4949494949495"/>
      <point x="459.8787878787878" y="638.6464646464647" type="curve" smooth="yes"/>
      <point x="459.8787878787878" y="786.8383838383838" type="line" smooth="yes"/>
      <point x="459.8787878787878" y="1078.6565656565656"/>
      <point x="604.7373737373737" y="1243.858585858586"/>
      <point x="922.9595959595958" y="1243.858585858586" type="curve" smooth="yes"/>
      <point x="1028.6161616161617" y="1243.858585858586"/>
      <point x="1153.040404040404" y="1226.2424242424242"/>
      <point x="1252.2727272727273" y="1188.8383838383838" type="curve"/>
      <point x="1252.2727272727273" y="1446.3838383838383" type="line"/>
      <point x="1145.2121212121212" y="1486.0"/>
      <point x="1030.1919191919192" y="1499.4040404040404"/>
      <point x="898.4949494949494" y="1499.4040404040404" type="curve" smooth="yes"/>
      <point x="386.42424242424244" y="1499.4040404040404"/>
      <point x="118.89898989898991" y="1210.1313131313132"/>
      <point x="118.89898989898991" y="685.5757575757576" type="curve" smooth="yes"/>
      <point x="118.89898989898991" y="208.46464646464648"/>
      <point x="374.8484848484849" y="-19.404040404040405"/>
    </contour>
  </outline>
</glyph>
<glyph name="seven" format="2">
  <advance width="1157.2525252525252"/>
  <unicode hex="0037"/>
  <outline>
    <contour>
      <point x="202.0" y="0.0" type="line"/>
      <point x="563.020202020202" y="0.0" type="line"/>
      <point x="1098.060606060606" y="1298.1919191919192" type="line"/>
      <point x="1098.060606060606" y="1480.0" type="line"/>
      <point x="13.191919191919192" y="1480.0" type="line"/>
      <point x="13.191919191919192" y="1202.5858585858587" type="line"/>
      <point x="874.3838383838383" y="1202.5858585858587" type="line"/>
      <point x="762.9090909090909" y="1298.7878787878788" type="line"/>
    </contour>
  </outline>
</glyph>
<glyph name="eight" format="2">
  <advance width="1510.2323232323233"/>
  <unicode hex="0038"/>
  <outline>
    <contour>
      <point x="758.7979797979798" y="-19.404040404040405" type="curve" smooth="yes"/>
      <point x="1213.5050505050503" y="-19.404040404040405"/>
      <point x="1409.7171717171718" y="174.12121212121212"/>
      <point x="1409.7171717171718" y="415.3131313131313" type="curve" smooth="yes"/>
      <point x="1409.7171717171718" y="627.5252525252525"/>
      <point x="1280.5656565656564" y="770.3737373737374"/>
      <point x="867.4242424242424" y="857.0505050505051" type="curve" smooth="yes"/>
      <point x="541.4646464646464" y="924.2828282828283"/>
      <point x="474.81818181818176" y="984.7575757575758"/>
      <point x="474.81818181818176" y="1095.919191919192" type="curve" smooth="yes"/>
      <point x="474.81818181818176" y="1192.4444444444446"/>
      <point x="557.2525252525252" y="1266.3232323232323"/>
      <point x="770.2828282828283" y="1266.3232323232323" type="curve" smooth="yes"/>
      <point x="963.060606060606" y="1266.3232323232323"/>
      <point x="1057.0707070707072" y="1201.0404040404042"/>
      <point x="1057.0707070707072" y="1086.8989898989898" type="curve" smooth="yes"/>
      <point x="1057.0707070707072" y="981.9090909090909"/>
      <point x="993.3636363636364" y="901.3939393939394"/>
      <point x="827.7373737373737" y="832.6262626262626" type="curve"/>
      <point x="1034.141414141414" y="753.6969696969697" type="line"/>
      <point x="1274.4343434343434" y="827.10101010101"/>
      <point x="1363.7575757575758" y="963.9090909090909"/>
      <point x="1363.7575757575758" y="1128.2121212121212" type="curve" smooth="yes"/>
      <point x="1363.7575757575758" y="1360.8080808080808"/>
      <point x="1157.2929292929293" y="1499.4040404040404"/>
      <point x="780.7070707070707" y="1499.4040404040404" type="curve" smooth="yes"/>
      <point x="344.72727272727275" y="1499.4040404040404"/>
      <point x="143.07070707070707" y="1325.7070707070707"/>
      <point x="143.07070707070707" y="1081.2828282828282" type="curve" smooth="yes"/>
      <point x="143.07070707070707" y="866.3030303030303"/>
      <point x="278.64646464646466" y="703.4141414141415"/>
      <point x="693.959595959596" y="623.969696969697" type="curve" smooth="yes"/>
      <point x="1001.1111111111111" y="565.1616161616162"/>
      <point x="1082.1818181818182" y="505.4545454545455"/>
      <point x="1082.1818181818182" y="393.06060606060606" type="curve" smooth="yes"/>
      <point x="1082.1818181818182" y="279.9393939393939"/>
      <point x="985.5757575757575" y="213.67676767676767"/>
      <point x="760.7979797979798" y="213.67676767676767" type="curve" smooth="yes"/>
      <point x="531.2525252525252" y="213.67676767676767"/>
      <point x="426.050505050505" y="285.55555555555554"/>
      <point x="426.050505050505" y="412.8888888888889" type="curve" smooth="yes"/>
      <point x="426.050505050505" y="515.8787878787879"/>
      <point x="497.71717171717165" y="615.7575757575758"/>
      <point x="681.3838383838383" y="668.1414141414142" type="curve"/>
      <point x="448.13131313131316" y="742.8585858585859" type="line"/>
      <point x="222.8989898989899" y="683.2828282828283"/>
      <point x="96.30303030303031" y="548.0909090909091"/>
      <point x="96.30303030303031" y="363.95959595959596" type="curve" smooth="yes"/>
      <point x="96.30303030303031" y="139.06060606060606"/>
      <point x="285.07070707070704" y="-19.404040404040405"/>
    </contour>
  </outline>
</glyph>
<glyph name="nine" format="2">
  <advance width="1401.080808080808"/>
  <unicode hex="0039"/>
  <outline>
    <contour>
      <point x="636.2828282828283" y="1499.4040404040404" type="curve" smooth="yes"/>
      <point x="274.2121212121212" y="1499.4040404040404"/>
      <point x="66.76767676767676" y="1318.6868686868686"/>
      <point x="66.76767676767676" y="1038.6868686868686" type="curve" smooth="yes"/>
      <point x="66.76767676767676" y="727.2020202020202"/>
      <point x="275.2323232323232" y="587.4141414141415"/>
      <point x="592.4242424242424" y="587.4141414141415" type="curve" smooth="yes"/>
      <point x="740.5959595959596" y="587.4141414141415"/>
      <point x="900.5555555555555" y="630.3939393939394"/>
      <point x="990.8989898989898" y="698.3535353535353" type="curve"/>
      <point x="990.8989898989898" y="926.7979797979798" type="line"/>
      <point x="897.959595959596" y="861.0909090909091"/>
      <point x="774.5454545454545" y="828.9191919191919"/>
      <point x="662.4141414141413" y="828.9191919191919" type="curve" smooth="yes"/>
      <point x="486.5252525252525" y="828.9191919191919"/>
      <point x="385.28282828282823" y="897.7777777777778"/>
      <point x="385.28282828282823" y="1046.3030303030303" type="curve" smooth="yes"/>
      <point x="385.28282828282823" y="1187.2121212121212"/>
      <point x="482.10101010101005" y="1257.8989898989898"/>
      <point x="636.2828282828283" y="1257.8989898989898" type="curve" smooth="yes"/>
      <point x="827.5757575757575" y="1257.8989898989898"/>
      <point x="941.2020202020202" y="1153.5050505050506"/>
      <point x="941.2020202020202" y="841.3535353535353" type="curve" smooth="yes"/>
      <point x="941.2020202020202" y="693.1616161616162" type="line" smooth="yes"/>
      <point x="941.2020202020202" y="401.3434343434343"/>
      <point x="796.3434343434344" y="236.1414141414141"/>
      <point x="478.1212121212121" y="236.1414141414141" type="curve" smooth="yes"/>
      <point x="372.4646464646465" y="236.1414141414141"/>
      <point x="248.04040404040404" y="253.75757575757572"/>
      <point x="148.8080808080808" y="291.16161616161617" type="curve"/>
      <point x="148.8080808080808" y="33.61616161616162" type="line"/>
      <point x="255.86868686868686" y="-6.0"/>
      <point x="370.8888888888889" y="-19.404040404040405"/>
      <point x="502.58585858585855" y="-19.404040404040405" type="curve" smooth="yes"/>
      <point x="1014.6565656565656" y="-19.404040404040405"/>
      <point x="1282.181818181818" y="269.86868686868684"/>
      <point x="1282.181818181818" y="794.4242424242424" type="curve" smooth="yes"/>
      <point x="1282.181818181818" y="1271.5353535353536"/>
      <point x="1026.2323232323233" y="1499.4040404040404"/>
    </contour>
  </outline>
</glyph>
<glyph name="colon" format="2">
  <advance width="623.2929292929293"/>
  <unicode hex="003A"/>
  <outline>
    <contour>
      <point x="311.64646464646466" y="-17.02020202020202" type="curve" smooth="yes"/>
      <point x="450.1414141414141" y="-17.02020202020202"/>
      <point x="533.7070707070707" y="61.73737373737373"/>
      <point x="533.7070707070707" y="181.17171717171715" type="curve" smooth="yes"/>
      <point x="533.7070707070707" y="300.6060606060605"/>
      <point x="452.9494949494949" y="379.9595959595959"/>
      <point x="311.64646464646466" y="379.9595959595959" type="curve" smooth="yes"/>
      <point x="170.34343434343435" y="379.9595959595959"/>
      <point x="89.5858585858586" y="303.41414141414134"/>
      <point x="89.5858585858586" y="181.17171717171715" type="curve" smooth="yes"/>
      <point x="89.5858585858586" y="58.92929292929292"/>
      <point x="173.15151515151516" y="-17.02020202020202"/>
    </contour>
    <contour>
      <point x="311.64646464646466" y="714.0808080808081" type="curve" smooth="yes"/>
      <point x="450.1414141414141" y="714.0808080808081"/>
      <point x="533.7070707070707" y="792.8383838383838"/>
      <point x="533.7070707070707" y="912.2727272727273" type="curve" smooth="yes"/>
      <point x="533.7070707070707" y="1031.7070707070707"/>
      <point x="452.9494949494949" y="1111.060606060606"/>
      <point x="311.64646464646466" y="1111.060606060606" type="curve" smooth="yes"/>
      <point x="170.34343434343435" y="1111.060606060606"/>
      <point x="89.5858585858586" y="1034.5151515151515"/>
      <point x="89.5858585858586" y="912.2727272727273" type="curve" smooth="yes"/>
      <point x="89.5858585858586" y="790.0303030303031"/>
      <point x="173.15151515151516" y="714.0808080808081"/>
    </contour>
  </outline>
</glyph>
<glyph name="semicolon" format="2">
  <advance width="623.2929292929293"/>
  <unicode hex="003B"/>
  <outline>
    <contour>
      <point x="170.3838383838384" y="-342.1212121212121" type="curve"/>
      <point x="364.61616161616155" y="-342.1212121212121" type="line"/>
      <point x="465.7979797979798" y="-214.42424242424244"/>
      <point x="530.8989898989898" y="-44.26262626262627"/>
      <point x="530.8989898989898" y="121.85858585858584" type="curve" smooth="yes"/>
      <point x="530.8989898989898" y="294.18181818181813"/>
      <point x="452.9494949494949" y="379.9595959595959"/>
      <point x="306.83838383838383" y="379.9595959595959" type="curve" smooth="yes"/>
      <point x="169.74747474747474" y="379.9595959595959"/>
      <point x="89.5858585858586" y="303.41414141414134"/>
      <point x="89.5858585858586" y="181.76767676767673" type="curve" smooth="yes"/>
      <point x="89.5858585858586" y="59.52525252525252"/>
      <point x="173.15151515151516" y="-17.02020202020202"/>
      <point x="311.64646464646466" y="-17.02020202020202" type="curve" smooth="yes"/>
      <point x="354.5353535353535" y="-17.02020202020202" type="line"/>
      <point x="280.3333333333333" y="40.080808080808076" type="line"/>
      <point x="280.3333333333333" y="-84.38383838383838"/>
      <point x="240.08080808080808" y="-200.04040404040404"/>
    </contour>
    <contour>
      <point x="311.64646464646466" y="714.0808080808081" type="curve" smooth="yes"/>
      <point x="450.1414141414141" y="714.0808080808081"/>
      <point x="533.7070707070707" y="792.8383838383838"/>
      <point x="533.7070707070707" y="912.2727272727273" type="curve" smooth="yes"/>
      <point x="533.7070707070707" y="1031.7070707070707"/>
      <point x="452.9494949494949" y="1111.060606060606"/>
      <point x="311.64646464646466" y="1111.060606060606" type="curve" smooth="yes"/>
      <point x="170.34343434343435" y="1111.060606060606"/>
      <point x="89.5858585858586" y="1034.5151515151515"/>
      <point x="89.5858585858586" y="912.2727272727273" type="curve" smooth="yes"/>
      <point x="89.5858585858586" y="790.0303030303031"/>
      <point x="173.15151515151516" y="714.0808080808081"/>
    </contour>
  </outline>
</glyph>
<glyph name="equal" format="2">
  <advance width="1169.7777777777778"/>
  <unicode hex="003D"/>
  <outline>
    <contour>
      <point x="136.64646464646466" y="860.8585858585859" type="line"/>
      <point x="1033.1313131313132" y="860.8585858585859" type="line"/>
      <point x="1033.1313131313132" y="1118.6161616161617" type="line"/>
      <point x="136.64646464646466" y="1118.6161616161617" type="line"/>
    </contour>
    <contour>
      <point x="136.64646464646466" y="401.38383838383845" type="line"/>
      <point x="1033.1313131313132" y="401.38383838383845" type="line"/>
      <point x="1033.1313131313132" y="659.1414141414141" type="line"/>
      <point x="136.64646464646466" y="659.1414141414141" type="line"/>
    </contour>
  </outline>
</glyph>
<glyph name="greater" format="2">
  <advance width="1169.7777777777778"/>
  <unicode hex="003E"/>
  <outline>
    <contour>
      <point x="136.64646464646466" y="275.42424242424244" type="line"/>
      <point x="1033.1313131313132" y="602.0202020202021" type="line"/>
      <point x="1033.1313131313132" y="917.9797979797979" type="line"/>
      <point x="136.64646464646466" y="1244.5757575757575" type="line"/>
      <point x="136.64646464646466" y="984.4343434343434" type="line"/>
      <point x="846.979797979798" y="739.5757575757576" type="line"/>
      <point x="846.979797979798" y="787.4444444444445" type="line"/>
      <point x="136.64646464646466" y="535.5656565656566" type="line"/>
    </contour>
  </outline>
</glyph>
<glyph name="question" format="2">
  <advance width="1115.888888888889"/>
  <unicode hex="003F"/>
  <outline>
    <contour>
      <point x="408.3838383838384" y="462.86868686868684" type="line"/>
      <point x="617.8484848484848" y="462.86868686868684" type="line"/>
      <point x="640.4848484848485" y="663.3636363636364" type="line"/>
      <point x="907.7676767676767" y="736.8585858585859"/>
      <point x="1053.5050505050503" y="864.2626262626263"/>
      <point x="1053.5050505050503" y="1085.6666666666667" type="curve" smooth="yes"/>
      <point x="1053.5050505050503" y="1348.7676767676767"/>
      <point x="858.2323232323232" y="1499.4040404040404"/>
      <point x="459.52525252525254" y="1499.4040404040404" type="curve" smooth="yes"/>
      <point x="318.2929292929293" y="1499.4040404040404"/>
      <point x="154.17171717171718" y="1475.7878787878788"/>
      <point x="43.78787878787879" y="1441.1919191919192" type="curve"/>
      <point x="43.78787878787879" y="1175.2222222222222" type="line"/>
      <point x="161.36363636363637" y="1213.8181818181818"/>
      <point x="301.6161616161616" y="1235.4343434343434"/>
      <point x="425.2323232323232" y="1235.4343434343434" type="curve" smooth="yes"/>
      <point x="626.6868686868687" y="1235.4343434343434"/>
      <point x="715.3333333333334" y="1171.1717171717173"/>
      <point x="715.3333333333334" y="1064.010101010101" type="curve" smooth="yes"/>
      <point x="715.3333333333334" y="958.6767676767677"/>
      <point x="634.989898989899" y="880.1616161616162"/>
      <point x="348.64646464646466" y="832.1111111111111" type="curve"/>
    </contour>
    <contour>
      <point x="513.8181818181818" y="-17.02020202020202" type="curve" smooth="yes"/>
      <point x="652.9090909090909" y="-17.02020202020202"/>
      <point x="735.8787878787878" y="56.71717171717171"/>
      <point x="735.8787878787878" y="167.1313131313131" type="curve" smooth="yes"/>
      <point x="735.8787878787878" y="278.1414141414141"/>
      <point x="655.121212121212" y="351.8787878787878"/>
      <point x="513.8181818181818" y="351.8787878787878" type="curve" smooth="yes"/>
      <point x="372.5151515151515" y="351.8787878787878"/>
      <point x="291.7575757575758" y="280.9494949494949"/>
      <point x="291.7575757575758" y="167.1313131313131" type="curve" smooth="yes"/>
      <point x="291.7575757575758" y="53.90909090909091"/>
      <point x="375.32323232323233" y="-17.02020202020202"/>
    </contour>
  </outline>
</glyph>
<glyph name="at" format="2">
  <advance width="2328.3030303030305"/>
  <unicode hex="0040"/>
  <outline>
    <contour>
      <point x="1215.3434343434342" y="-460.0" type="curve" smooth="yes"/>
      <point x="1391.040404040404" y="-460.0"/>
      <point x="1564.3131313131312" y="-441.4040404040404"/>
      <point x="1729.6262626262624" y="-405.4040404040404" type="curve"/>
      <point x="1729.6262626262624" y="-191.38383838383842" type="line"/>
      <point x="1556.3535353535353" y="-228.57575757575762"/>
      <point x="1390.4444444444443" y="-246.5757575757576"/>
      <point x="1215.3434343434342" y="-246.5757575757576" type="curve" smooth="yes"/>
      <point x="613.5151515151515" y="-246.5757575757576"/>
      <point x="347.5959595959596" y="-20.606060606060623"/>
      <point x="347.5959595959596" y="521.1919191919192" type="curve" smooth="yes"/>
      <point x="347.5959595959596" y="1057.6262626262626"/>
      <point x="612.3232323232323" y="1284.5757575757575"/>
      <point x="1171.5555555555557" y="1284.5757575757575" type="curve" smooth="yes"/>
      <point x="1731.5959595959596" y="1284.5757575757575"/>
      <point x="1994.5353535353534" y="1065.6262626262626"/>
      <point x="1998.7474747474748" y="572.2525252525253" type="curve" smooth="yes"/>
      <point x="2001.5555555555557" y="268.4141414141414"/>
      <point x="1921.080808080808" y="186.99999999999997"/>
      <point x="1820.010101010101" y="186.99999999999997" type="curve" smooth="yes"/>
      <point x="1749.1111111111109" y="186.99999999999997"/>
      <point x="1706.5555555555554" y="220.95959595959593"/>
      <point x="1706.5555555555554" y="314.7979797979798" type="curve" smooth="yes"/>
      <point x="1706.5555555555554" y="622.8686868686868" type="line" smooth="yes"/>
      <point x="1706.5555555555554" y="978.3030303030303"/>
      <point x="1532.6868686868688" y="1097.4040404040404"/>
      <point x="1146.4949494949494" y="1097.4040404040404" type="curve" smooth="yes"/>
      <point x="1018.030303030303" y="1097.4040404040404"/>
      <point x="875.7777777777778" y="1076.5959595959596"/>
      <point x="756.5050505050506" y="1037.7878787878788" type="curve"/>
      <point x="756.5050505050505" y="791.4747474747476" type="line"/>
      <point x="863.2727272727273" y="827.8585858585859"/>
      <point x="992.5050505050506" y="847.4747474747476"/>
      <point x="1088.121212121212" y="847.4747474747476" type="curve" smooth="yes"/>
      <point x="1287.6969696969697" y="847.4747474747476"/>
      <point x="1367.5757575757575" y="796.4949494949495"/>
      <point x="1367.5757575757575" y="636.3131313131313" type="curve" smooth="yes"/>
      <point x="1367.5757575757575" y="278.37373737373736" type="line"/>
      <point x="1314.121212121212" y="232.36363636363632"/>
      <point x="1217.4343434343434" y="208.65656565656565"/>
      <point x="1154.060606060606" y="208.65656565656565" type="curve" smooth="yes"/>
      <point x="1055.111111111111" y="208.65656565656565"/>
      <point x="986.5555555555555" y="246.3232323232323"/>
      <point x="986.5555555555555" y="329.5656565656566" type="curve" smooth="yes"/>
      <point x="986.5555555555555" y="414.42424242424244"/>
      <point x="1042.2626262626263" y="449.9191919191919"/>
      <point x="1170.232323232323" y="461.8787878787879" type="curve" smooth="yes"/>
      <point x="1461.3535353535353" y="486.6060606060606" type="line"/>
      <point x="1433.4444444444443" y="663.5252525252525" type="line"/>
      <point x="1142.151515151515" y="638.7979797979798" type="line" smooth="yes"/>
      <point x="794.2929292929293" y="613.8181818181818"/>
      <point x="642.9797979797979" y="501.5656565656566"/>
      <point x="642.9797979797979" y="298.8888888888889" type="curve" smooth="yes"/>
      <point x="642.9797979797979" y="108.25252525252525"/>
      <point x="780.8080808080808" y="-20.21212121212121"/>
      <point x="1047.3535353535353" y="-20.21212121212121" type="curve" smooth="yes"/>
      <point x="1186.7171717171718" y="-20.21212121212121"/>
      <point x="1318.080808080808" y="23.53535353535354"/>
      <point x="1374.5959595959596" y="131.40404040404042" type="curve"/>
      <point x="1394.4242424242425" y="131.40404040404042" type="line"/>
      <point x="1457.7373737373737" y="30.767676767676768"/>
      <point x="1571.2626262626263" y="-20.21212121212121"/>
      <point x="1734.5757575757575" y="-20.21212121212121" type="curve" smooth="yes"/>
      <point x="2029.2828282828282" y="-20.21212121212121"/>
      <point x="2227.6161616161617" y="142.97979797979798"/>
      <point x="2228.212121212121" y="579.6565656565657" type="curve" smooth="yes"/>
      <point x="2228.808080808081" y="1183.2727272727273"/>
      <point x="1857.2424242424242" y="1498.0"/>
      <point x="1171.5555555555557" y="1498.0" type="curve" smooth="yes"/>
      <point x="487.86868686868684" y="1498.0"/>
      <point x="100.0909090909091" y="1183.2727272727273"/>
      <point x="100.0909090909091" y="520.0" type="curve" smooth="yes"/>
      <point x="100.0909090909091" y="-144.46464646464645"/>
      <point x="488.4646464646465" y="-459.4040404040404"/>
    </contour>
  </outline>
</glyph>
<glyph name="F" format="2">
  <advance width="1403.6767676767677"/>
  <unicode hex="0046"/>
  <outline>
    <contour>
      <point x="155.62626262626264" y="0.0" type="line"/>
      <point x="510.050505050505" y="0.0" type="line"/>
      <point x="510.050505050505" y="1207.6060606060607" type="line"/>
      <point x="1328.6969696969695" y="1207.6060606060607" type="line"/>
      <point x="1328.6969696969695" y="1480.0" type="line"/>
      <point x="155.62626262626264" y="1480.0" type="line"/>
    </contour>
    <contour>
      <point x="356.030303030303" y="586.1919191919192" type="line"/>
      <point x="1220.2727272727273" y="586.1919191919192" type="line"/>
      <point x="1220.2727272727273" y="858.5858585858585" type="line"/>
      <point x="356.030303030303" y="858.5858585858585" type="line"/>
    </contour>
  </outline>
</glyph>
<glyph name="I" format="2">
  <advance width="665.6767676767677"/>
  <unicode hex="0049"/>
  <anchor x="331.4343434343434" y="0.0" name="bottom"/>
  <anchor x="510.050505050505" y="0.0" name="ogonek"/>
  <anchor x="332.83838383838383" y="1520.0" name="top"/>
  <outline>
    <contour>
      <point x="155.62626262626264" y="0.0" type="line"/>
      <point x="510.050505050505" y="0.0" type="line"/>
      <point x="510.050505050505" y="1480.0" type="line"/>
      <point x="155.62626262626264" y="1480.0" type="line"/>
    </contour>
  </outline>
</glyph>
<glyph name="J" format="2">
  <advance width="665.6767676767677"/>
  <unicode hex="004A"/>
  <anchor x="529.121212121212" y="0.0" name="bottom"/>
  <anchor x="334.24242424242425" y="1520.0" name="top"/>
  <outline>
    <contour>
      <point x="212.06060606060603" y="-352.6363636363636" type="line"/>
      <point x="431.030303030303" y="-142.3838383838384"/>
      <point x="505.8787878787878" y="54.29292929292929"/>
      <point x="510.050505050505" y="297.73737373737373" type="curve"/>
      <point x="510.050505050505" y="1480.0" type="line"/>
      <point x="158.43434343434345" y="1480.0" type="line"/>
      <point x="158.43434343434345" y="297.2323232323232" type="line" smooth="yes"/>
      <point x="158.43434343434345" y="84.08080808080808"/>
      <point x="113.4949494949495" y="-59.20202020202022"/>
      <point x="-7.232323232323228" y="-204.31313131313132" type="curve"/>
    </contour>
  </outline>
</glyph>
<glyph name="K" format="2">
  <advance width="1480.4444444444443"/>
  <unicode hex="004B"/>
  <anchor x="774.2828282828283" y="0.0" name="bottom"/>
  <anchor x="770.070707070707" y="1480.0" name="top"/>
  <outline>
    <contour>
      <point x="1123.1212121212122" y="0.0" type="line"/>
      <point x="1511.5858585858587" y="0.0" type="line"/>
      <point x="922.3838383838383" y="800.6767676767677" type="line"/>
      <point x="913.9595959595958" y="716.3030303030303" type="line"/>
      <point x="1463.969696969697" y="1480.0" type="line"/>
      <point x="1088.7373737373737" y="1480.0" type="line"/>
      <point x="565.5757575757575" y="755.1919191919192" type="line"/>
    </contour>
    <contour>
      <point x="155.62626262626264" y="0.0" type="line"/>
      <point x="510.050505050505" y="0.0" type="line"/>
      <point x="510.050505050505" y="1480.0" type="line"/>
      <point x="155.62626262626264" y="1480.0" type="line"/>
    </contour>
    <contour>
      <point x="460.35353535353534" y="605.8484848484849" type="line"/>
      <point x="712.6666666666667" y="605.8484848484849" type="line"/>
      <point x="712.6666666666667" y="907.7272727272727" type="line"/>
      <point x="460.35353535353534" y="907.7272727272727" type="line"/>
    </contour>
  </outline>
</glyph>
<glyph name="N" format="2">
  <advance width="1745.0"/>
  <unicode hex="004E"/>
  <anchor x="872.7979797979798" y="0.0" name="bottom"/>
  <anchor x="872.7979797979798" y="1520.0" name="top"/>
  <outline>
    <contour>
      <point x="155.62626262626264" y="0.0" type="line"/>
      <point x="489.7979797979798" y="0.0" type="line"/>
      <point x="489.7979797979798" y="1078.818181818182" type="line"/>
      <point x="428.9090909090909" y="1078.818181818182" type="line"/>
      <point x="1233.1616161616162" y="0.0" type="line"/>
      <point x="1589.3737373737372" y="0.0" type="line"/>
      <point x="1589.3737373737372" y="1480.0" type="line"/>
      <point x="1255.2020202020203" y="1480.0" type="line"/>
      <point x="1255.2020202020203" y="401.1818181818181" type="line"/>
      <point x="1316.090909090909" y="401.1818181818181" type="line"/>
      <point x="511.8383838383838" y="1480.0" type="line"/>
      <point x="155.62626262626264" y="1480.0" type="line"/>
    </contour>
  </outline>
</glyph>
<glyph name="P" format="2">
  <advance width="1464.2323232323233"/>
  <unicode hex="0050"/>
  <outline>
    <contour>
      <point x="155.62626262626264" y="0.0" type="line"/>
      <point x="510.050505050505" y="0.0" type="line"/>
      <point x="510.050505050505" y="432.31313131313135" type="line"/>
      <point x="566.5252525252524" y="429.33333333333337"/>
      <point x="620.060606060606" y="426.7373737373738"/>
      <point x="678.1515151515151" y="426.7373737373738" type="curve" smooth="yes"/>
      <point x="1147.171717171717" y="426.7373737373738"/>
      <point x="1377.888888888889" y="610.3535353535353"/>
      <point x="1377.888888888889" y="963.6666666666666" type="curve" smooth="yes"/>
      <point x="1377.888888888889" y="1334.7676767676767"/>
      <point x="1135.8080808080808" y="1498.2121212121212"/>
      <point x="656.3333333333334" y="1498.2121212121212" type="curve" smooth="yes"/>
      <point x="470.80808080808083" y="1498.2121212121212"/>
      <point x="312.47474747474746" y="1480.5959595959596"/>
      <point x="155.62626262626264" y="1451.1919191919192" type="curve"/>
    </contour>
    <contour>
      <point x="680.959595959596" y="675.2626262626262" type="curve" smooth="yes"/>
      <point x="616.2727272727273" y="675.2626262626262"/>
      <point x="567.969696969697" y="678.4545454545455"/>
      <point x="510.050505050505" y="686.2424242424242" type="curve"/>
      <point x="510.050505050505" y="1235.7272727272727" type="line"/>
      <point x="565.3333333333333" y="1245.3030303030303"/>
      <point x="619.5959595959596" y="1249.6868686868688"/>
      <point x="688.6262626262626" y="1249.6868686868688" type="curve" smooth="yes"/>
      <point x="924.3030303030303" y="1249.6868686868688"/>
      <point x="1034.909090909091" y="1163.8080808080808"/>
      <point x="1034.909090909091" y="963.070707070707" type="curve" smooth="yes"/>
      <point x="1034.909090909091" y="759.4848484848485"/>
      <point x="929.6666666666667" y="675.2626262626262"/>
    </contour>
  </outline>
</glyph>
<glyph name="Q" format="2">
  <advance width="1796.6464646464647"/>
  <unicode hex="0051"/>
  <outline>
    <contour>
      <point x="1629.878787878788" y="-330.2323232323232" type="curve"/>
      <point x="1681.4040404040404" y="-64.85858585858587" type="line"/>
      <point x="1391.6666666666665" y="-33.41414141414143"/>
      <point x="1109.8787878787878" y="17.2222222222222"/>
      <point x="873.5050505050505" y="101.26262626262624" type="curve"/>
      <point x="756.7979797979798" y="17.272727272727266" type="line"/>
      <point x="1394.8585858585857" y="-58.8080808080808"/>
      <point x="1696.5555555555557" y="250.75757575757575"/>
      <point x="1696.5555555555557" y="740.0" type="curve" smooth="yes"/>
      <point x="1696.5555555555557" y="1229.2424242424242"/>
      <point x="1386.6464646464647" y="1499.4040404040404"/>
      <point x="898.3232323232323" y="1499.4040404040404" type="curve" smooth="yes"/>
      <point x="410.0" y="1499.4040404040404"/>
      <point x="100.0909090909091" y="1228.4747474747476"/>
      <point x="100.0909090909091" y="725.959595959596" type="curve" smooth="yes"/>
      <point x="100.0909090909091" y="200.75757575757575"/>
      <point x="421.19191919191917" y="-172.4141414141414"/>
    </contour>
    <contour>
      <point x="898.3232323232323" y="259.20202020202015" type="curve" smooth="yes"/>
      <point x="621.5050505050505" y="259.20202020202015"/>
      <point x="461.3232323232323" y="406.27272727272725"/>
      <point x="461.3232323232323" y="746.8080808080808" type="curve" smooth="yes"/>
      <point x="461.3232323232323" y="1070.919191919192"/>
      <point x="628.5252525252524" y="1220.79797979798"/>
      <point x="898.3232323232323" y="1220.79797979798" type="curve" smooth="yes"/>
      <point x="1168.121212121212" y="1220.79797979798"/>
      <point x="1335.3232323232323" y="1066.7070707070707"/>
      <point x="1335.3232323232323" y="733.1919191919192" type="curve" smooth="yes"/>
      <point x="1335.3232323232323" y="413.2929292929293"/>
      <point x="1172.3333333333333" y="259.20202020202015"/>
    </contour>
  </outline>
</glyph>
<glyph name="T" format="2">
  <advance width="1446.181818181818"/>
  <unicode hex="0054"/>
  <anchor x="723.090909090909" y="0.0" name="bottom"/>
  <anchor x="723.090909090909" y="729.7979797979798" name="center"/>
  <anchor x="723.090909090909" y="1520.0" name="top"/>
  <outline>
    <contour>
      <point x="545.8787878787879" y="0.0" type="line"/>
      <point x="900.3030303030303" y="0.0" type="line"/>
      <point x="900.3030303030303" y="1201.989898989899" type="line"/>
      <point x="1424.7777777777778" y="1201.989898989899" type="line"/>
      <point x="1424.7777777777778" y="1480.0" type="line"/>
      <point x="21.4040404040404" y="1480.0" type="line"/>
      <point x="21.4040404040404" y="1201.989898989899" type="line"/>
      <point x="545.8787878787879" y="1201.989898989899" type="line"/>
    </contour>
  </outline>
</glyph>
<glyph name="V" format="2">
  <advance width="1636.8989898989898"/>
  <unicode hex="0056"/>
  <outline>
    <contour>
      <point x="562.9494949494949" y="0.0" type="line"/>
      <point x="1073.949494949495" y="0.0" type="line"/>
      <point x="1625.5353535353534" y="1480.0" type="line"/>
      <point x="1275.5353535353536" y="1480.0" type="line"/>
      <point x="786.070707070707" y="149.5151515151515" type="line"/>
      <point x="869.4646464646464" y="149.5151515151515" type="line"/>
      <point x="386.4242424242424" y="1480.0" type="line"/>
      <point x="11.363636363636365" y="1480.0" type="line"/>
    </contour>
  </outline>
</glyph>
<glyph name="X" format="2">
  <advance width="1525.2525252525252"/>
  <unicode hex="0058"/>
  <outline>
    <contour>
      <point x="1164.989898989899" y="0.0" type="line"/>
      <point x="1562.4747474747473" y="0.0" type="line"/>
      <point x="968.8989898989898" y="771.8686868686868" type="line"/>
      <point x="764.030303030303" y="1001.3737373737373" type="line"/>
      <point x="396.3434343434343" y="1480.0" type="line"/>
      <point x="-1.1414141414141312" y="1480.0" type="line"/>
      <point x="551.5454545454545" y="765.6565656565657" type="line"/>
      <point x="756.4141414141413" y="536.1515151515152" type="line"/>
    </contour>
    <contour>
      <point x="-36.4141414141414" y="0.0" type="line"/>
      <point x="349.2424242424242" y="0.0" type="line"/>
      <point x="756.4141414141413" y="536.1515151515152" type="line"/>
      <point x="968.8989898989898" y="771.8686868686868" type="line"/>
      <point x="1514.5656565656566" y="1480.0" type="line"/>
      <point x="1130.909090909091" y="1480.0" type="line"/>
      <point x="764.030303030303" y="1001.3737373737373" type="line"/>
      <point x="551.5454545454545" y="765.6565656565657" type="line"/>
    </contour>
  </outline>
</glyph>
<glyph name="Y" format="2">
  <advance width="1446.181818181818"/>
  <unicode hex="0059"/>
  <anchor x="721.6868686868686" y="0.0" name="bottom"/>
  <anchor x="721.6868686868686" y="1520.0" name="top"/>
  <anchor x="13.19191919191919" y="1480.0" name="topleft"/>
  <outline>
    <contour>
      <point x="548.6868686868687" y="0.0" type="line"/>
      <point x="903.1111111111111" y="0.0" type="line"/>
      <point x="903.1111111111111" y="755.1414141414141" type="line"/>
      <point x="832.5656565656566" y="521.4242424242425" type="line"/>
      <point x="1476.6464646464647" y="1480.0" type="line"/>
      <point x="1123.0707070707072" y="1480.0" type="line"/>
      <point x="679.8181818181818" y="825.5151515151515" type="line"/>
      <point x="784.4040404040404" y="825.5151515151515" type="line"/>
      <point x="331.7474747474747" y="1480.0" type="line"/>
      <point x="-46.888888888888886" y="1480.0" type="line"/>
      <point x="619.2323232323232" y="521.4242424242425" type="line"/>
      <point x="548.6868686868687" y="759.3535353535353" type="line"/>
    </contour>
  </outline>
</glyph>
<glyph name="bracketleft" format="2">
  <advance width="795.8585858585859"/>
  <unicode hex="005B"/>
  <outline>
    <contour>
      <point x="175.62626262626264" y="-440.0" type="line"/>
      <point x="809.1818181818182" y="-440.0" type="line"/>
      <point x="809.1818181818182" y="-168.20202020202026" type="line"/>
      <point x="521.6262626262626" y="-168.20202020202026" type="line"/>
      <point x="521.6262626262626" y="1344.2020202020203" type="line"/>
      <point x="823.2222222222222" y="1344.2020202020203" type="line"/>
      <point x="823.2222222222222" y="1616.0" type="line"/>
      <point x="175.62626262626264" y="1616.0" type="line"/>
    </contour>
  </outline>
</glyph>
<glyph name="backslash" format="2">
  <advance width="928.6767676767677"/>
  <unicode hex="005C"/>
  <outline>
    <contour>
      <point x="580.0808080808081" y="-240.0" type="line"/>
      <point x="928.6767676767677" y="-240.0" type="line"/>
      <point x="348.5959595959595" y="1616.0" type="line"/>
      <point x="0.0" y="1616.0" type="line"/>
    </contour>
  </outline>
</glyph>
<glyph name="bracketright" format="2">
  <advance width="795.8585858585859"/>
  <unicode hex="005D"/>
  <outline>
    <contour>
      <point x="-13.323232323232325" y="-440.0" type="line"/>
      <point x="620.2323232323232" y="-440.0" type="line"/>
      <point x="620.2323232323232" y="1616.0" type="line"/>
      <point x="-27.363636363636367" y="1616.0" type="line"/>
      <point x="-27.363636363636367" y="1344.2020202020203" type="line"/>
      <point x="274.23232323232327" y="1344.2020202020203" type="line"/>
      <point x="274.23232323232327" y="-168.20202020202026" type="line"/>
      <point x="-13.323232323232325" y="-168.20202020202026" type="line"/>
    </contour>
  </outline>
</glyph>
<glyph name="asciicircum" format="2">
  <advance width="1368.4848484848485"/>
  <unicode hex="005E"/>
  <outline>
    <contour>
      <point x="57.83838383838385" y="740.0" type="line"/>
      <point x="406.60606060606057" y="740.0" type="line"/>
      <point x="762.6565656565656" y="1328.6969696969697" type="line"/>
      <point x="605.8282828282828" y="1328.6969696969697" type="line"/>
      <point x="961.8787878787879" y="740.0" type="line"/>
      <point x="1310.6464646464647" y="740.0" type="line"/>
      <point x="860.8181818181818" y="1480.0" type="line"/>
      <point x="507.0707070707071" y="1480.0" type="line"/>
    </contour>
  </outline>
</glyph>
<glyph name="underscore" format="2">
  <advance width="1380.6565656565656"/>
  <unicode hex="005F"/>
  <outline>
    <contour>
      <point x="92.97979797979798" y="-273.20202020202015" type="line"/>
      <point x="1287.6767676767677" y="-273.20202020202015" type="line"/>
      <point x="1287.6767676767677" y="-1.4040404040404038" type="line"/>
      <point x="92.97979797979798" y="-1.4040404040404038" type="line"/>
    </contour>
  </outline>
</glyph>
<glyph name="grave" format="2">
  <advance width="1200.0"/>
  <unicode hex="0060"/>
  <anchor x="600.0" y="1200.0" name="_top"/>
  <anchor x="600.0" y="1626.20202020202" name="top"/>
  <outline>
    <contour>
      <point x="434.8282828282829" y="1233.111111111111" type="line"/>
      <point x="765.1717171717171" y="1233.111111111111" type="line"/>
      <point x="504.19191919191917" y="1616.0" type="line"/>
      <point x="122.53535353535356" y="1616.0" type="line"/>
    </contour>
  </outline>
</glyph>
<glyph name="b" format="2">
  <advance width="1411.9292929292928"/>
  <unicode hex="0062"/>
  <anchor x="707.2626262626262" y="0.0" name="bottom"/>
  <anchor x="312.83838383838383" y="1616.0" name="top"/>
  <outline>
    <contour>
      <point x="632.8787878787879" y="-20.808080808080806" type="curve" smooth="yes"/>
      <point x="1091.9292929292928" y="-20.808080808080806"/>
      <point x="1327.4545454545455" y="187.44444444444446"/>
      <point x="1327.4545454545455" y="574.040404040404" type="curve" smooth="yes"/>
      <point x="1327.4545454545455" y="942.3838383838383"/>
      <point x="1105.7979797979797" y="1111.4444444444443"/>
      <point x="839.5858585858585" y="1111.4444444444443" type="curve" smooth="yes"/>
      <point x="698.2222222222222" y="1111.4444444444443"/>
      <point x="584.8585858585859" y="1068.080808080808"/>
      <point x="501.66666666666663" y="989.9090909090909" type="curve"/>
      <point x="485.8383838383838" y="989.9090909090909" type="line"/>
      <point x="485.8383838383838" y="1616.0" type="line"/>
      <point x="139.83838383838386" y="1616.0" type="line"/>
      <point x="139.83838383838386" y="44.04040404040404" type="line"/>
      <point x="292.55555555555554" y="-2.0"/>
      <point x="468.5454545454545" y="-20.808080808080806"/>
    </contour>
    <contour>
      <point x="664.7474747474748" y="237.5454545454545" type="curve" smooth="yes"/>
      <point x="594.8686868686868" y="237.5454545454545"/>
      <point x="532.5656565656566" y="246.52525252525248"/>
      <point x="485.8383838383838" y="258.69696969696963" type="curve"/>
      <point x="485.8383838383838" y="760.1010101010102" type="line"/>
      <point x="550.9494949494949" y="813.5151515151515"/>
      <point x="635.8080808080808" y="836.2424242424242"/>
      <point x="719.0505050505051" y="836.2424242424242" type="curve" smooth="yes"/>
      <point x="877.6565656565656" y="836.2424242424242"/>
      <point x="984.4747474747475" y="759.1717171717172"/>
      <point x="984.4747474747475" y="549.1919191919192" type="curve" smooth="yes"/>
      <point x="984.4747474747475" y="337.9797979797979"/>
      <point x="879.4444444444445" y="237.5454545454545"/>
    </contour>
  </outline>
</glyph>
<glyph name="c" format="2">
  <advance width="1121.2929292929293"/>
  <unicode hex="0063"/>
  <anchor x="643.8181818181818" y="0.0" name="bottom"/>
  <anchor x="625.9494949494949" y="1200.0" name="top"/>
  <outline>
    <contour>
      <point x="737.1717171717171" y="-20.808080808080806" type="curve" smooth="yes"/>
      <point x="859.8484848484848" y="-20.808080808080806"/>
      <point x="972.4848484848485" y="-2.8080808080808075"/>
      <point x="1058.6565656565656" y="24.767676767676768" type="curve"/>
      <point x="1058.6565656565656" y="289.33333333333326" type="line"/>
      <point x="938.2323232323232" y="260.5656565656565"/>
      <point x="860.2727272727273" y="248.77777777777771"/>
      <point x="772.6565656565656" y="248.77777777777771" type="curve" smooth="yes"/>
      <point x="552.3939393939393" y="248.77777777777771"/>
      <point x="437.28282828282823" y="345.040404040404"/>
      <point x="437.28282828282823" y="545.4040404040404" type="curve" smooth="yes"/>
      <point x="437.28282828282823" y="744.7878787878788"/>
      <point x="547.7575757575758" y="841.8585858585859"/>
      <point x="798.020202020202" y="841.8585858585859" type="curve" smooth="yes"/>
      <point x="890.020202020202" y="841.8585858585859"/>
      <point x="966.6161616161617" y="832.0707070707072"/>
      <point x="1058.6565656565656" y="815.0909090909091" type="curve"/>
      <point x="1058.6565656565656" y="1079.6565656565656" type="line"/>
      <point x="972.020202020202" y="1100.8484848484848"/>
      <point x="873.5959595959596" y="1111.4444444444443"/>
      <point x="764.3232323232323" y="1111.4444444444443" type="curve" smooth="yes"/>
      <point x="321.020202020202" y="1111.4444444444443"/>
      <point x="84.47474747474749" y="910.7676767676768"/>
      <point x="84.47474747474749" y="544.2121212121212" type="curve" smooth="yes"/>
      <point x="84.47474747474749" y="177.06060606060606"/>
      <point x="313.82828282828285" y="-20.808080808080806"/>
    </contour>
  </outline>
</glyph>
<glyph name="f" format="2">
  <advance width="918.0202020202021"/>
  <unicode hex="0066"/>
  <outline>
    <contour>
      <point x="239.53535353535355" y="0.0" type="line"/>
      <point x="585.5353535353535" y="0.0" type="line"/>
      <point x="585.5353535353535" y="1152.141414141414" type="line" smooth="yes"/>
      <point x="585.5353535353535" y="1300.0707070707072"/>
      <point x="662.8585858585858" y="1367.818181818182"/>
      <point x="837.3333333333333" y="1367.818181818182" type="curve" smooth="yes"/>
      <point x="878.9090909090908" y="1367.818181818182"/>
      <point x="919.2525252525253" y="1364.6262626262626"/>
      <point x="963.4242424242424" y="1358.8383838383838" type="curve"/>
      <point x="963.4242424242424" y="1623.4040404040404" type="line"/>
      <point x="902.1919191919192" y="1631.4040404040404"/>
      <point x="852.6161616161617" y="1636.0"/>
      <point x="782.3636363636363" y="1636.0" type="curve" smooth="yes"/>
      <point x="438.3333333333333" y="1636.0"/>
      <point x="239.53535353535355" y="1449.030303030303"/>
      <point x="239.53535353535355" y="1139.9292929292928" type="curve" smooth="yes"/>
    </contour>
    <contour>
      <point x="41.656565656565654" y="822.2424242424242" type="line"/>
      <point x="911.0" y="822.2424242424242" type="line"/>
      <point x="911.0" y="1094.040404040404" type="line"/>
      <point x="41.656565656565654" y="1094.040404040404" type="line"/>
    </contour>
  </outline>
</glyph>
<glyph name="j" format="2">
  <advance width="625.6767676767677"/>
  <unicode hex="006A"/>
  <anchor x="305.8181818181818" y="1203.5757575757575" name="_top"/>
  <anchor x="305.8181818181818" y="1203.5757575757575" name="top"/>
  <outline>
    <contour>
      <point x="190.65656565656562" y="-471.2323232323232" type="line"/>
      <point x="406.81818181818176" y="-260.979797979798"/>
      <point x="485.8383838383838" y="-61.151515151515156"/>
      <point x="485.8383838383838" y="188.25252525252526" type="curve" smooth="yes"/>
      <point x="485.8383838383838" y="1094.040404040404" type="line"/>
      <point x="139.83838383838386" y="1094.040404040404" type="line"/>
      <point x="139.83838383838386" y="175.82828282828282" type="line" smooth="yes"/>
      <point x="139.83838383838386" y="-37.32323232323233"/>
      <point x="94.89898989898991" y="-180.60606060606062"/>
      <point x="-25.828282828282827" y="-325.7171717171717" type="curve"/>
    </contour>
    <contour>
      <point x="305.8181818181818" y="1255.4646464646464" type="curve" smooth="yes"/>
      <point x="449.92929292929284" y="1255.4646464646464"/>
      <point x="516.6464646464647" y="1314.5656565656566"/>
      <point x="516.6464646464647" y="1422.7676767676767" type="curve" smooth="yes"/>
      <point x="516.6464646464647" y="1530.969696969697"/>
      <point x="449.92929292929284" y="1590.6666666666667"/>
      <point x="305.8181818181818" y="1590.6666666666667" type="curve" smooth="yes"/>
      <point x="161.70707070707073" y="1590.6666666666667"/>
      <point x="94.989898989899" y="1530.969696969697"/>
      <point x="94.989898989899" y="1422.7676767676767" type="curve" smooth="yes"/>
      <point x="94.989898989899" y="1314.5656565656566"/>
      <point x="161.70707070707073" y="1255.4646464646464"/>
    </contour>
  </outline>
</glyph>
<glyph name="l" format="2">
  <advance width="625.6767676767677"/>
  <unicode hex="006C"/>
  <anchor x="311.4343434343434" y="0.0" name="bottom"/>
  <anchor x="597.7575757575758" y="1616.0" name="caronalt"/>
  <anchor x="764.1212121212121" y="794.0" name="periodcentered"/>
  <anchor x="312.83838383838383" y="714.0" name="slash"/>
  <anchor x="312.83838383838383" y="1616.0" name="top"/>
  <outline>
    <contour>
      <point x="139.83838383838386" y="0.0" type="line"/>
      <point x="485.8383838383838" y="0.0" type="line"/>
      <point x="485.8383838383838" y="1616.0" type="line"/>
      <point x="139.83838383838386" y="1616.0" type="line"/>
    </contour>
  </outline>
</glyph>
<glyph name="m" format="2">
  <advance width="2033.030303030303"/>
  <unicode hex="006D"/>
  <anchor x="1029.5151515151515" y="0.0" name="bottom"/>
  <anchor x="1029.5151515151515" y="1200.0" name="top"/>
  <outline>
    <contour>
      <point x="139.83838383838386" y="0.0" type="line"/>
      <point x="485.8383838383838" y="0.0" type="line"/>
      <point x="485.8383838383838" y="723.6363636363636" type="line"/>
      <point x="537.5050505050505" y="787.8585858585859"/>
      <point x="614.7474747474747" y="822.2020202020203"/>
      <point x="698.8383838383838" y="822.2020202020203" type="curve" smooth="yes"/>
      <point x="800.4646464646464" y="822.2020202020203"/>
      <point x="859.3232323232323" y="771.89898989899"/>
      <point x="859.3232323232323" y="618.9494949494949" type="curve" smooth="yes"/>
      <point x="859.3232323232323" y="0.0" type="line"/>
      <point x="1198.3030303030303" y="0.0" type="line"/>
      <point x="1198.3030303030303" y="642.010101010101" type="line" smooth="yes"/>
      <point x="1198.3030303030303" y="973.959595959596"/>
      <point x="1033.4141414141413" y="1111.4444444444443"/>
      <point x="801.7171717171716" y="1111.4444444444443" type="curve" smooth="yes"/>
      <point x="664.10101010101" y="1111.4444444444443"/>
      <point x="545.121212121212" y="1066.4646464646464"/>
      <point x="460.9494949494949" y="986.7171717171717" type="curve"/>
      <point x="444.5252525252525" y="986.7171717171717" type="line"/>
      <point x="423.0808080808081" y="1094.040404040404" type="line"/>
      <point x="139.83838383838386" y="1094.040404040404" type="line"/>
    </contour>
    <contour>
      <point x="1559.5757575757575" y="0.0" type="line"/>
      <point x="1904.171717171717" y="0.0" type="line"/>
      <point x="1904.171717171717" y="637.7979797979798" type="line" smooth="yes"/>
      <point x="1904.171717171717" y="973.959595959596"/>
      <point x="1733.878787878788" y="1111.4444444444443"/>
      <point x="1487.7575757575758" y="1111.4444444444443" type="curve" smooth="yes"/>
      <point x="1355.5454545454545" y="1111.4444444444443"/>
      <point x="1214.181818181818" y="1068.4646464646464"/>
      <point x="1092.9898989898988" y="947.1414141414141" type="curve"/>
      <point x="1168.939393939394" y="712.909090909091" type="line"/>
      <point x="1221.20202020202" y="787.8585858585859"/>
      <point x="1299.1717171717173" y="822.2020202020203"/>
      <point x="1391.6868686868688" y="822.2020202020203" type="curve" smooth="yes"/>
      <point x="1492.5050505050503" y="822.2020202020203"/>
      <point x="1559.5757575757575" y="771.89898989899"/>
      <point x="1559.5757575757575" y="618.9494949494949" type="curve" smooth="yes"/>
    </contour>
  </outline>
</glyph>
<glyph name="p" format="2">
  <advance width="1411.9292929292928"/>
  <unicode hex="0070"/>
  <outline>
    <contour>
      <point x="139.83838383838386" y="-440.0" type="line"/>
      <point x="485.8383838383838" y="-440.0" type="line"/>
      <point x="485.8383838383838" y="-8.040404040404038" type="line"/>
      <point x="542.3939393939394" y="-14.424242424242422"/>
      <point x="611.9292929292928" y="-20.808080808080806"/>
      <point x="682.060606060606" y="-20.808080808080806" type="curve" smooth="yes"/>
      <point x="1087.7171717171718" y="-20.808080808080806"/>
      <point x="1327.4545454545455" y="191.65656565656565"/>
      <point x="1327.4545454545455" y="569.8282828282828" type="curve" smooth="yes"/>
      <point x="1327.4545454545455" y="955.0202020202021"/>
      <point x="1093.969696969697" y="1111.4444444444443"/>
      <point x="810.5252525252524" y="1111.4444444444443" type="curve" smooth="yes"/>
      <point x="664.5252525252524" y="1111.4444444444443"/>
      <point x="546.3535353535353" y="1059.6565656565656"/>
      <point x="463.75757575757575" y="979.6969696969697" type="curve"/>
      <point x="447.92929292929284" y="979.6969696969697" type="line"/>
      <point x="428.6969696969697" y="1094.040404040404" type="line"/>
      <point x="139.83838383838386" y="1094.040404040404" type="line"/>
    </contour>
    <contour>
      <point x="659.3838383838383" y="238.94949494949492" type="curve" smooth="yes"/>
      <point x="594.8686868686868" y="238.94949494949492"/>
      <point x="532.5656565656566" y="246.73737373737367"/>
      <point x="485.8383838383838" y="256.9090909090909" type="curve"/>
      <point x="485.8383838383838" y="749.5050505050506" type="line"/>
      <point x="548.1414141414141" y="812.1111111111111"/>
      <point x="635.2121212121212" y="836.2424242424242"/>
      <point x="718.070707070707" y="836.2424242424242" type="curve" smooth="yes"/>
      <point x="876.2525252525252" y="836.2424242424242"/>
      <point x="984.4747474747475" y="759.1717171717172"/>
      <point x="984.4747474747475" y="546.3838383838383" type="curve" smooth="yes"/>
      <point x="984.4747474747475" y="339.38383838383834"/>
      <point x="879.4444444444445" y="238.94949494949492"/>
    </contour>
  </outline>
</glyph>
<glyph name="q" format="2">
  <advance width="1411.9292929292928"/>
  <unicode hex="0071"/>
  <outline>
    <contour>
      <point x="926.0909090909091" y="-440.0" type="line"/>
      <point x="1272.090909090909" y="-440.0" type="line"/>
      <point x="1272.090909090909" y="1046.5959595959596" type="line"/>
      <point x="1132.010101010101" y="1088.4242424242425"/>
      <point x="943.3838383838383" y="1111.4444444444443"/>
      <point x="779.0505050505051" y="1111.4444444444443" type="curve" smooth="yes"/>
      <point x="320.0" y="1111.4444444444443"/>
      <point x="84.47474747474749" y="903.1919191919192"/>
      <point x="84.47474747474749" y="516.5959595959596" type="curve" smooth="yes"/>
      <point x="84.47474747474749" y="148.25252525252523"/>
      <point x="306.13131313131316" y="-20.808080808080806"/>
      <point x="572.3434343434344" y="-20.808080808080806" type="curve" smooth="yes"/>
      <point x="713.7070707070707" y="-20.808080808080806"/>
      <point x="827.070707070707" y="22.555555555555557"/>
      <point x="910.2626262626263" y="100.72727272727273" type="curve"/>
      <point x="926.0909090909091" y="100.72727272727273" type="line"/>
    </contour>
    <contour>
      <point x="692.8787878787879" y="254.39393939393935" type="curve" smooth="yes"/>
      <point x="534.2727272727273" y="254.39393939393935"/>
      <point x="427.4545454545454" y="331.4646464646464"/>
      <point x="427.4545454545454" y="541.4444444444445" type="curve" smooth="yes"/>
      <point x="427.4545454545454" y="752.6565656565657"/>
      <point x="538.10101010101" y="853.0909090909091"/>
      <point x="747.1818181818181" y="853.0909090909091" type="curve" smooth="yes"/>
      <point x="818.4646464646464" y="853.0909090909091"/>
      <point x="879.3636363636364" y="844.7070707070708"/>
      <point x="926.0909090909091" y="833.1313131313132" type="curve"/>
      <point x="926.0909090909091" y="330.5353535353535" type="line"/>
      <point x="860.9797979797979" y="277.12121212121207"/>
      <point x="774.9292929292928" y="254.39393939393935"/>
    </contour>
  </outline>
</glyph>
<glyph name="t" format="2">
  <advance width="956.060606060606"/>
  <unicode hex="0074"/>
  <anchor x="571.1414141414141" y="0.0" name="bottom"/>
  <anchor x="710.7373737373737" y="1616.0" name="caronalt"/>
  <anchor x="231.53535353535355" y="582.7777777777778" name="stroke"/>
  <anchor x="404.5353535353535" y="1508.080808080808" name="top"/>
  <anchor x="848.2828282828283" y="1616.0" name="topright"/>
  <outline>
    <contour>
      <point x="681.989898989899" y="-20.808080808080806" type="curve" smooth="yes"/>
      <point x="758.8383838383838" y="-20.808080808080806"/>
      <point x="843.5555555555554" y="-9.787878787878789"/>
      <point x="910.151515151515" y="4.808080808080808" type="curve"/>
      <point x="910.151515151515" y="269.3737373737373" type="line"/>
      <point x="857.0" y="258.98989898989896"/>
      <point x="819.4242424242424" y="254.39393939393935"/>
      <point x="780.060606060606" y="254.39393939393935" type="curve" smooth="yes"/>
      <point x="640.6060606060605" y="254.39393939393935"/>
      <point x="577.5353535353535" y="306.69696969696963"/>
      <point x="577.5353535353535" y="464.9191919191919" type="curve" smooth="yes"/>
      <point x="577.5353535353535" y="1480.0" type="line"/>
      <point x="294.2929292929293" y="1480.0" type="line"/>
      <point x="231.53535353535355" y="1094.040404040404" type="line"/>
      <point x="231.53535353535355" y="399.5656565656566" type="line" smooth="yes"/>
      <point x="231.53535353535355" y="116.46464646464646"/>
      <point x="389.4040404040404" y="-20.808080808080806"/>
    </contour>
    <contour>
      <point x="33.656565656565654" y="822.2424242424242" type="line"/>
      <point x="903.0" y="822.2424242424242" type="line"/>
      <point x="903.0" y="1094.040404040404" type="line"/>
      <point x="33.656565656565654" y="1094.040404040404" type="line"/>
    </contour>
  </outline>
</glyph>
<glyph name="v" format="2">
  <advance width="1336.9898989898988"/>
  <unicode hex="0076"/>
  <anchor x="669.090909090909" y="0.0" name="bottom"/>
  <anchor x="669.090909090909" y="1200.0" name="top"/>
  <outline>
    <contour>
      <point x="458.22222222222223" y="0.0" type="line"/>
      <point x="877.3636363636363" y="0.0" type="line"/>
      <point x="1335.4949494949494" y="1094.040404040404" type="line"/>
      <point x="997.3232323232323" y="1094.040404040404" type="line"/>
      <point x="671.5151515151515" y="271.07070707070704" type="line"/>
      <point x="692.5353535353536" y="271.07070707070704" type="line"/>
      <point x="366.7272727272727" y="1094.040404040404" type="line"/>
      <point x="1.4949494949495037" y="1094.040404040404" type="line"/>
    </contour>
  </outline>
</glyph>
<glyph name="w" format="2">
  <advance width="2046.8989898989898"/>
  <unicode hex="0077"/>
  <anchor x="1024.7474747474748" y="0.0" name="bottom"/>
  <anchor x="1024.7474747474748" y="1200.0" name="top"/>
  <outline>
    <contour>
      <point x="396.8181818181818" y="0.0" type="line"/>
      <point x="785.6666666666665" y="0.0" type="line"/>
      <point x="1035.5555555555557" y="820.3737373737374" type="line"/>
      <point x="1018.3636363636363" y="820.3737373737374" type="line"/>
      <point x="1263.2323232323233" y="0.0" type="line"/>
      <point x="1652.0808080808079" y="0.0" type="line"/>
      <point x="1978.5555555555557" y="1094.040404040404" type="line"/>
      <point x="1659.4444444444443" y="1094.040404040404" type="line"/>
      <point x="1432.4040404040404" y="313.78787878787875" type="line"/>
      <point x="1455.4242424242425" y="313.78787878787875" type="line"/>
      <point x="1225.1919191919192" y="1094.040404040404" type="line"/>
      <point x="836.3434343434344" y="1094.040404040404" type="line"/>
      <point x="603.8989898989898" y="315.19191919191917" type="line"/>
      <point x="619.8989898989898" y="315.19191919191917" type="line"/>
      <point x="402.09090909090907" y="1094.040404040404" type="line"/>
      <point x="68.34343434343435" y="1094.040404040404" type="line"/>
    </contour>
  </outline>
</glyph>
<glyph name="x" format="2">
  <advance width="1278.5252525252524"/>
  <unicode hex="0078"/>
  <anchor x="639.8585858585858" y="0.0" name="bottom"/>
  <anchor x="639.8585858585858" y="1200.0" name="top"/>
  <outline>
    <contour>
      <point x="888.7777777777778" y="0.0" type="line"/>
      <point x="1274.2222222222222" y="0.0" type="line"/>
      <point x="838.3030303030303" y="555.8282828282828" type="line"/>
      <point x="644.070707070707" y="778.5252525252524" type="line"/>
      <point x="398.13131313131305" y="1094.040404040404" type="line"/>
      <point x="12.686868686868696" y="1094.040404040404" type="line"/>
      <point x="438.01010101010104" y="551.020202020202" type="line"/>
      <point x="636.4545454545454" y="328.32323232323233" type="line"/>
    </contour>
    <contour>
      <point x="4.090909090909095" y="0.0" type="line"/>
      <point x="379.70707070707067" y="0.0" type="line"/>
      <point x="636.4545454545454" y="328.32323232323233" type="line"/>
      <point x="838.3030303030303" y="555.8282828282828" type="line"/>
      <point x="1260.8181818181818" y="1094.040404040404" type="line"/>
      <point x="886.3939393939395" y="1094.040404040404" type="line"/>
      <point x="644.070707070707" y="778.5252525252524" type="line"/>
      <point x="438.01010101010104" y="551.020202020202" type="line"/>
    </contour>
  </outline>
</glyph>
<glyph name="braceleft" format="2">
  <advance width="835.8585858585859"/>
  <unicode hex="007B"/>
  <outline>
    <contour>
      <point x="677.2323232323232" y="-460.0" type="curve" smooth="yes"/>
      <point x="749.3131313131313" y="-460.0"/>
      <point x="810.7575757575758" y="-454.5959595959596"/>
      <point x="863.2222222222222" y="-447.19191919191917" type="curve"/>
      <point x="863.2222222222222" y="-183.39393939393943" type="line"/>
      <point x="737.8181818181818" y="-183.39393939393943" type="line" smooth="yes"/>
      <point x="621.2929292929293" y="-183.39393939393943"/>
      <point x="561.6262626262626" y="-140.70707070707073"/>
      <point x="561.6262626262626" y="-22.181818181818215" type="curve" smooth="yes"/>
      <point x="561.6262626262626" y="358.55555555555554" type="line" smooth="yes"/>
      <point x="561.6262626262626" y="542.6363636363636"/>
      <point x="463.67676767676767" y="639.9090909090909"/>
      <point x="228.29292929292927" y="647.6565656565657" type="curve"/>
      <point x="228.29292929292927" y="610.3838383838383" type="line"/>
      <point x="463.67676767676767" y="618.1313131313132"/>
      <point x="561.6262626262626" y="715.4040404040404"/>
      <point x="561.6262626262626" y="899.4848484848485" type="curve" smooth="yes"/>
      <point x="561.6262626262626" y="1198.1818181818182" type="line" smooth="yes"/>
      <point x="561.6262626262626" y="1316.7070707070707"/>
      <point x="621.2929292929293" y="1359.3939393939395"/>
      <point x="737.8181818181818" y="1359.3939393939395" type="curve" smooth="yes"/>
      <point x="863.2222222222222" y="1359.3939393939395" type="line"/>
      <point x="863.2222222222222" y="1623.1919191919192" type="line"/>
      <point x="810.7575757575758" y="1630.5959595959596"/>
      <point x="749.3131313131313" y="1636.0"/>
      <point x="677.2323232323232" y="1636.0" type="curve" smooth="yes"/>
      <point x="371.4949494949495" y="1636.0"/>
      <point x="215.62626262626264" y="1491.3232323232323"/>
      <point x="215.62626262626264" y="1221.6666666666667" type="curve" smooth="yes"/>
      <point x="215.62626262626264" y="906.1616161616162" type="line" smooth="yes"/>
      <point x="215.62626262626264" y="814.7070707070707"/>
      <point x="163.45454545454547" y="764.9191919191919"/>
      <point x="74.97979797979798" y="764.9191919191919" type="curve" smooth="yes"/>
      <point x="15.282828282828294" y="764.9191919191919" type="line"/>
      <point x="15.282828282828294" y="493.1212121212121" type="line"/>
      <point x="74.97979797979798" y="493.1212121212121" type="line" smooth="yes"/>
      <point x="163.45454545454547" y="493.1212121212121"/>
      <point x="215.62626262626264" y="443.33333333333337"/>
      <point x="215.62626262626264" y="351.8787878787879" type="curve" smooth="yes"/>
      <point x="215.62626262626264" y="-45.666666666666686" type="line" smooth="yes"/>
      <point x="215.62626262626264" y="-315.32323232323233"/>
      <point x="371.4949494949495" y="-460.0"/>
    </contour>
  </outline>
</glyph>
<glyph name="bar" format="2">
  <advance width="626.3636363636363"/>
  <unicode hex="007C"/>
  <outline>
    <contour>
      <point x="155.62626262626264" y="-440.0" type="line"/>
      <point x="470.7373737373737" y="-440.0" type="line"/>
      <point x="470.7373737373737" y="1616.0" type="line"/>
      <point x="155.62626262626264" y="1616.0" type="line"/>
    </contour>
  </outline>
</glyph>
<glyph name="braceright" format="2">
  <advance width="835.8585858585859"/>
  <unicode hex="007D"/>
  <outline>
    <contour>
      <point x="158.62626262626262" y="-460.0" type="curve" smooth="yes"/>
      <point x="464.3636363636364" y="-460.0"/>
      <point x="620.2323232323232" y="-315.32323232323233"/>
      <point x="620.2323232323232" y="-45.666666666666686" type="curve" smooth="yes"/>
      <point x="620.2323232323232" y="351.8787878787879" type="line" smooth="yes"/>
      <point x="620.2323232323232" y="443.33333333333337"/>
      <point x="672.4040404040404" y="493.1212121212121"/>
      <point x="760.8787878787879" y="493.1212121212121" type="curve" smooth="yes"/>
      <point x="820.5757575757575" y="493.1212121212121" type="line"/>
      <point x="820.5757575757575" y="764.9191919191919" type="line"/>
      <point x="760.8787878787879" y="764.9191919191919" type="line" smooth="yes"/>
      <point x="672.4040404040404" y="764.9191919191919"/>
      <point x="620.2323232323232" y="814.7070707070707"/>
      <point x="620.2323232323232" y="906.1616161616162" type="curve" smooth="yes"/>
      <point x="620.2323232323232" y="1221.6666666666667" type="line" smooth="yes"/>
      <point x="620.2323232323232" y="1491.3232323232323"/>
      <point x="464.3636363636364" y="1636.0"/>
      <point x="158.62626262626262" y="1636.0" type="curve" smooth="yes"/>
      <point x="86.54545454545453" y="1636.0"/>
      <point x="25.10101010101009" y="1630.5959595959596"/>
      <point x="-27.363636363636367" y="1623.1919191919192" type="curve"/>
      <point x="-27.363636363636367" y="1359.3939393939395" type="line"/>
      <point x="98.04040404040404" y="1359.3939393939395" type="line" smooth="yes"/>
      <point x="214.56565656565658" y="1359.3939393939395"/>
      <point x="274.23232323232327" y="1316.7070707070707"/>
      <point x="274.23232323232327" y="1198.1818181818182" type="curve" smooth="yes"/>
      <point x="274.23232323232327" y="899.4848484848485" type="line" smooth="yes"/>
      <point x="274.23232323232327" y="715.4040404040404"/>
      <point x="372.1818181818182" y="618.1313131313132"/>
      <point x="607.5656565656566" y="610.3838383838383" type="curve"/>
      <point x="607.5656565656566" y="647.6565656565657" type="line"/>
      <point x="372.1818181818182" y="639.9090909090909"/>
      <point x="274.23232323232327" y="542.6363636363636"/>
      <point x="274.23232323232327" y="358.55555555555554" type="curve" smooth="yes"/>
      <point x="274.23232323232327" y="-22.181818181818215" type="line" smooth="yes"/>
      <point x="274.23232323232327" y="-140.70707070707073"/>
      <point x="214.56565656565658" y="-183.39393939393943"/>
      <point x="98.04040404040404" y="-183.39393939393943" type="curve" smooth="yes"/>
      <point x="-27.363636363636367" y="-183.39393939393943" type="line"/>
      <point x="-27.363636363636367" y="-447.19191919191917" type="line"/>
      <point x="25.10101010101009" y="-454.5959595959596"/>
      <point x="86.54545454545453" y="-460.0"/>
    </contour>
  </outline>
</glyph>
<glyph name="asciitilde" format="2">
  <advance width="1169.7777777777778"/>
  <unicode hex="007E"/>
  <outline>
    <contour>
      <point x="787.7777777777778" y="572.7373737373738" type="curve" smooth="yes"/>
      <point x="892.4545454545455" y="572.7373737373738"/>
      <point x="969.4747474747475" y="603.3333333333334"/>
      <point x="1033.1313131313132" y="671.1616161616162" type="curve"/>
      <point x="1033.1313131313132" y="935.6868686868687" type="line"/>
      <point x="956.6666666666666" y="859.4747474747475"/>
      <point x="884.2424242424242" y="826.2828282828283"/>
      <point x="789.989898989899" y="826.2828282828283" type="curve" smooth="yes"/>
      <point x="662.1212121212121" y="826.2828282828283"/>
      <point x="542.0808080808081" y="943.6868686868687"/>
      <point x="382.0" y="943.6868686868687" type="curve" smooth="yes"/>
      <point x="277.32323232323233" y="943.6868686868687"/>
      <point x="200.3030303030303" y="913.0909090909091"/>
      <point x="136.64646464646466" y="845.2626262626262" type="curve"/>
      <point x="136.64646464646466" y="580.7373737373738" type="line"/>
      <point x="213.11111111111111" y="656.9494949494949"/>
      <point x="285.5353535353535" y="690.1414141414142"/>
      <point x="379.7878787878788" y="690.1414141414142" type="curve" smooth="yes"/>
      <point x="507.65656565656565" y="690.1414141414142"/>
      <point x="627.6969696969697" y="572.7373737373738"/>
    </contour>
  </outline>
</glyph>
<glyph name="exclamdown" format="2">
  <advance width="663.2929292929293"/>
  <unicode hex="00A1"/>
  <outline>
    <contour>
      <point x="229.02020202020202" y="598.3232323232323" type="line"/>
      <point x="149.62626262626264" y="115.5858585858586" type="line"/>
      <point x="149.62626262626264" y="-380.0" type="line"/>
      <point x="513.6666666666666" y="-380.0" type="line"/>
      <point x="513.6666666666666" y="115.5858585858586" type="line"/>
      <point x="438.48484848484844" y="598.3232323232323" type="line"/>
    </contour>
    <contour>
      <point x="331.64646464646466" y="1111.060606060606" type="curve" smooth="yes"/>
      <point x="193.15151515151516" y="1111.060606060606"/>
      <point x="109.5858585858586" y="1035.111111111111"/>
      <point x="109.5858585858586" y="912.8686868686868" type="curve" smooth="yes"/>
      <point x="109.5858585858586" y="790.6262626262627"/>
      <point x="190.34343434343435" y="714.0808080808081"/>
      <point x="331.64646464646466" y="714.0808080808081" type="curve" smooth="yes"/>
      <point x="472.9494949494949" y="714.0808080808081"/>
      <point x="553.7070707070707" y="793.4343434343434"/>
      <point x="553.7070707070707" y="912.8686868686868" type="curve" smooth="yes"/>
      <point x="553.7070707070707" y="1032.3030303030303"/>
      <point x="470.1414141414141" y="1111.060606060606"/>
    </contour>
  </outline>
</glyph>
<glyph name="cent" format="2">
  <advance width="1131.6767676767677"/>
  <unicode hex="00A2"/>
  <outline>
    <contour>
      <point x="737.1717171717171" y="-20.808080808080806" type="curve" smooth="yes"/>
      <point x="859.8484848484848" y="-20.808080808080806"/>
      <point x="972.4848484848485" y="-2.8080808080808075"/>
      <point x="1058.6565656565656" y="24.767676767676768" type="curve"/>
      <point x="1058.6565656565656" y="289.33333333333326" type="line"/>
      <point x="938.2323232323232" y="260.5656565656565"/>
      <point x="860.2727272727273" y="248.77777777777771"/>
      <point x="772.6565656565656" y="248.77777777777771" type="curve" smooth="yes"/>
      <point x="552.3939393939393" y="248.77777777777771"/>
      <point x="437.28282828282823" y="345.040404040404"/>
      <point x="437.28282828282823" y="545.4040404040404" type="curve" smooth="yes"/>
      <point x="437.28282828282823" y="744.7878787878788"/>
      <point x="545.3737373737374" y="841.8585858585859"/>
      <point x="797.4242424242424" y="841.8585858585859" type="curve" smooth="yes"/>
      <point x="889.4242424242424" y="841.8585858585859"/>
      <point x="965.4242424242424" y="832.0707070707072"/>
      <point x="1058.6565656565656" y="815.0909090909091" type="curve"/>
      <point x="1058.6565656565656" y="1079.6565656565656" type="line"/>
      <point x="969.6363636363636" y="1100.8484848484848"/>
      <point x="874.7878787878788" y="1111.4444444444443"/>
      <point x="764.3232323232323" y="1111.4444444444443" type="curve" smooth="yes"/>
      <point x="320.42424242424244" y="1111.4444444444443"/>
      <point x="84.47474747474749" y="910.7676767676768"/>
      <point x="84.47474747474749" y="544.2121212121212" type="curve" smooth="yes"/>
      <point x="84.47474747474749" y="177.06060606060606"/>
      <point x="313.2323232323232" y="-20.808080808080806"/>
    </contour>
    <contour>
      <point x="547.9191919191919" y="-240.0" type="line"/>
      <point x="847.7979797979798" y="-240.0" type="line"/>
      <point x="847.7979797979798" y="42.12121212121211" type="line"/>
      <point x="547.9191919191919" y="42.12121212121211" type="line"/>
    </contour>
    <contour>
      <point x="547.9191919191919" y="1051.919191919192" type="line"/>
      <point x="847.7979797979798" y="1051.919191919192" type="line"/>
      <point x="847.7979797979798" y="1334.040404040404" type="line"/>
      <point x="547.9191919191919" y="1334.040404040404" type="line"/>
    </contour>
  </outline>
</glyph>
<glyph name="sterling" format="2">
  <advance width="1527.979797979798"/>
  <unicode hex="00A3"/>
  <outline>
    <contour>
      <point x="304.8989898989899" y="96.58585858585857" type="line"/>
      <point x="643.8787878787878" y="96.58585858585857" type="line"/>
      <point x="643.8787878787878" y="991.070707070707" type="line" smooth="yes"/>
      <point x="643.8787878787878" y="1164.3232323232323"/>
      <point x="739.6767676767677" y="1225.6060606060607"/>
      <point x="1010.4040404040404" y="1225.6060606060607" type="curve" smooth="yes"/>
      <point x="1135.8080808080808" y="1225.6060606060607"/>
      <point x="1283.080808080808" y="1206.2020202020203"/>
      <point x="1390.232323232323" y="1175.2222222222222" type="curve"/>
      <point x="1390.232323232323" y="1453.828282828283" type="line"/>
      <point x="1281.8484848484848" y="1481.4040404040404"/>
      <point x="1143.2121212121212" y="1499.4040404040404"/>
      <point x="994.7474747474747" y="1499.4040404040404" type="curve" smooth="yes"/>
      <point x="533.0202020202021" y="1499.4040404040404"/>
      <point x="304.8989898989899" y="1322.8989898989898"/>
      <point x="304.8989898989899" y="972.8181818181819" type="curve" smooth="yes"/>
    </contour>
    <contour>
      <point x="87.02020202020202" y="0.0" type="line"/>
      <point x="1446.060606060606" y="0.0" type="line"/>
      <point x="1446.060606060606" y="264.7777777777777" type="line"/>
      <point x="87.02020202020202" y="264.7777777777777" type="line"/>
    </contour>
    <contour>
      <point x="87.02020202020202" y="628.1414141414142" type="line"/>
      <point x="1162.151515151515" y="628.1414141414142" type="line"/>
      <point x="1162.151515151515" y="871.8585858585858" type="line"/>
      <point x="87.02020202020202" y="871.8585858585858" type="line"/>
    </contour>
  </outline>
</glyph>
<glyph name="currency" format="2">
  <advance width="1368.4848484848485"/>
  <unicode hex="00A4"/>
  <outline>
    <contour>
      <point x="460.24242424242425" y="841.7171717171717" type="line"/>
      <point x="582.5252525252524" y="963.4040404040404" type="line"/>
      <point x="409.5151515151515" y="1167.2222222222222" type="line"/>
      <point x="282.6262626262626" y="1296.7070707070707" type="line"/>
      <point x="126.93939393939394" y="1141.020202020202" type="line"/>
      <point x="257.020202020202" y="1014.1313131313132" type="line"/>
    </contour>
    <contour>
      <point x="908.2424242424242" y="841.7171717171717" type="line"/>
      <point x="1111.4646464646464" y="1014.1313131313132" type="line"/>
      <point x="1241.5454545454545" y="1141.020202020202" type="line"/>
      <point x="1085.858585858586" y="1296.7070707070707" type="line"/>
      <point x="958.969696969697" y="1167.2222222222222" type="line"/>
      <point x="785.959595959596" y="963.4040404040404" type="line"/>
    </contour>
    <contour>
      <point x="1085.2626262626263" y="183.29292929292933" type="line"/>
      <point x="1240.949494949495" y="338.979797979798" type="line"/>
      <point x="1111.4646464646464" y="465.86868686868684" type="line"/>
      <point x="911.2222222222222" y="635.3030303030303" type="line"/>
      <point x="788.939393939394" y="512.4242424242424" type="line"/>
      <point x="958.3737373737374" y="312.7777777777778" type="line"/>
    </contour>
    <contour>
      <point x="283.2222222222222" y="183.29292929292933" type="line"/>
      <point x="410.1111111111111" y="312.7777777777778" type="line"/>
      <point x="579.5454545454545" y="512.4242424242424" type="line"/>
      <point x="457.2626262626262" y="635.3030303030303" type="line"/>
      <point x="257.020202020202" y="465.86868686868684" type="line"/>
      <point x="127.53535353535354" y="338.979797979798" type="line"/>
    </contour>
    <contour>
      <point x="684.2424242424242" y="371.4949494949495" type="curve" smooth="yes"/>
      <point x="894.7070707070707" y="371.4949494949495"/>
      <point x="1051.5959595959596" y="518.939393939394"/>
      <point x="1051.5959595959596" y="740.0" type="curve" smooth="yes"/>
      <point x="1051.5959595959596" y="959.060606060606"/>
      <point x="894.7070707070707" y="1106.5050505050506"/>
      <point x="684.2424242424242" y="1106.5050505050506" type="curve" smooth="yes"/>
      <point x="473.18181818181813" y="1106.5050505050506"/>
      <point x="316.88888888888886" y="959.060606060606"/>
      <point x="316.88888888888886" y="740.0" type="curve" smooth="yes"/>
      <point x="316.88888888888886" y="518.939393939394"/>
      <point x="473.18181818181813" y="371.4949494949495"/>
    </contour>
    <contour>
      <point x="684.2424242424242" y="547.2222222222222" type="curve" smooth="yes"/>
      <point x="580.5757575757575" y="547.2222222222222"/>
      <point x="505.25252525252523" y="619.1414141414141"/>
      <point x="505.25252525252523" y="740.0" type="curve" smooth="yes"/>
      <point x="505.25252525252523" y="860.8585858585859"/>
      <point x="580.5757575757575" y="932.7777777777778"/>
      <point x="686.2424242424242" y="932.7777777777778" type="curve" smooth="yes"/>
      <point x="794.8888888888889" y="932.7777777777778"/>
      <point x="863.2323232323232" y="851.6666666666666"/>
      <point x="863.2323232323232" y="740.0" type="curve" smooth="yes"/>
      <point x="863.2323232323232" y="618.5454545454545"/>
      <point x="787.9090909090909" y="547.2222222222222"/>
    </contour>
  </outline>
</glyph>
<glyph name="yen" format="2">
  <advance width="1457.6767676767677"/>
  <unicode hex="00A5"/>
  <outline>
    <contour>
      <point x="554.4343434343434" y="0.0" type="line"/>
      <point x="908.8585858585859" y="0.0" type="line"/>
      <point x="908.8585858585859" y="755.1414141414141" type="line"/>
      <point x="838.3131313131313" y="521.4242424242425" type="line"/>
      <point x="1483.5858585858584" y="1480.0" type="line"/>
      <point x="1130.010101010101" y="1480.0" type="line"/>
      <point x="685.5656565656566" y="825.5151515151515" type="line"/>
      <point x="790.1515151515151" y="825.5151515151515" type="line"/>
      <point x="338.6868686868686" y="1480.0" type="line"/>
      <point x="-39.94949494949494" y="1480.0" type="line"/>
      <point x="624.9797979797979" y="521.4242424242425" type="line"/>
      <point x="554.4343434343434" y="759.3535353535353" type="line"/>
    </contour>
    <contour>
      <point x="221.45454545454547" y="251.2020202020202" type="line"/>
      <point x="1241.8383838383838" y="251.2020202020202" type="line"/>
      <point x="1241.8383838383838" y="445.77777777777777" type="line"/>
      <point x="221.45454545454547" y="445.77777777777777" type="line"/>
    </contour>
    <contour>
      <point x="221.45454545454547" y="602.2222222222222" type="line"/>
      <point x="1241.8383838383838" y="602.2222222222222" type="line"/>
      <point x="1241.8383838383838" y="796.7979797979798" type="line"/>
      <point x="221.45454545454547" y="796.7979797979798" type="line"/>
    </contour>
  </outline>
</glyph>
<glyph name="brokenbar" format="2">
  <advance width="626.3636363636363"/>
  <unicode hex="00A6"/>
  <outline>
    <contour>
      <point x="155.62626262626264" y="836.0" type="line"/>
      <point x="470.7373737373737" y="836.0" type="line"/>
      <point x="470.7373737373737" y="1616.0" type="line"/>
      <point x="155.62626262626264" y="1616.0" type="line"/>
    </contour>
    <contour>
      <point x="155.62626262626264" y="-440.0" type="line"/>
      <point x="470.7373737373737" y="-440.0" type="line"/>
      <point x="470.7373737373737" y="340.0" type="line"/>
      <point x="155.62626262626264" y="340.0" type="line"/>
    </contour>
  </outline>
</glyph>
<glyph name="section" format="2">
  <advance width="1286.5252525252524"/>
  <unicode hex="00A7"/>
  <outline>
    <contour>
      <point x="550.1616161616162" y="-20.808080808080806" type="curve" smooth="yes"/>
      <point x="938.8282828282828" y="-20.808080808080806"/>
      <point x="1115.7575757575758" y="114.04040404040404"/>
      <point x="1115.7575757575758" y="329.73737373737373" type="curve" smooth="yes"/>
      <point x="1115.7575757575758" y="495.77777777777777"/>
      <point x="1000.2727272727273" y="581.1818181818181"/>
      <point x="800.3131313131312" y="614.969696969697" type="curve" smooth="yes"/>
      <point x="534.6262626262626" y="659.010101010101" type="line" smooth="yes"/>
      <point x="430.2323232323232" y="676.969696969697"/>
      <point x="399.88888888888886" y="721.060606060606"/>
      <point x="399.88888888888886" y="775.3232323232323" type="curve" smooth="yes"/>
      <point x="399.88888888888886" y="812.010101010101"/>
      <point x="417.04040404040404" y="852.1414141414142"/>
      <point x="466.3636363636364" y="896.9494949494949" type="curve"/>
      <point x="293.6161616161616" y="1013.3636363636364" type="line"/>
      <point x="178.72727272727272" y="953.7474747474747"/>
      <point x="112.85858585858587" y="868.1313131313132"/>
      <point x="112.85858585858587" y="752.2626262626263" type="curve" smooth="yes"/>
      <point x="112.85858585858587" y="574.1818181818182"/>
      <point x="232.76767676767676" y="478.1818181818182"/>
      <point x="426.72727272727275" y="445.7979797979798" type="curve" smooth="yes"/>
      <point x="691.0101010101009" y="403.16161616161617" type="line" smooth="yes"/>
      <point x="774.939393939394" y="389.41414141414145"/>
      <point x="803.6666666666667" y="361.1111111111111"/>
      <point x="803.6666666666667" y="307.6969696969697" type="curve" smooth="yes"/>
      <point x="803.6666666666667" y="245.7272727272727"/>
      <point x="751.1919191919192" y="202.4444444444444"/>
      <point x="546.3333333333333" y="202.4444444444444" type="curve" smooth="yes"/>
      <point x="418.67676767676767" y="202.4444444444444"/>
      <point x="291.57575757575756" y="215.25252525252523"/>
      <point x="161.95959595959596" y="248.44444444444443" type="curve"/>
      <point x="161.95959595959596" y="24.595959595959595" type="line"/>
      <point x="280.80808080808083" y="-6.0"/>
      <point x="427.9494949494949" y="-20.808080808080806"/>
    </contour>
    <contour>
      <point x="980.4444444444443" y="459.4040404040404" type="line"/>
      <point x="1100.7777777777778" y="520.4242424242424"/>
      <point x="1173.6666666666665" y="607.6565656565657"/>
      <point x="1173.6666666666665" y="729.7373737373737" type="curve" smooth="yes"/>
      <point x="1173.6666666666665" y="909.8181818181818"/>
      <point x="1058.181818181818" y="1000.030303030303"/>
      <point x="859.6262626262626" y="1031.010101010101" type="curve" smooth="yes"/>
      <point x="581.3030303030303" y="1072.2424242424242" type="line" smooth="yes"/>
      <point x="497.96969696969694" y="1085.989898989899"/>
      <point x="468.81818181818176" y="1118.2525252525252"/>
      <point x="468.81818181818176" y="1165.4949494949494" type="curve" smooth="yes"/>
      <point x="468.81818181818176" y="1221.6767676767677"/>
      <point x="523.7171717171717" y="1274.1515151515152"/>
      <point x="783.7171717171717" y="1274.1515151515152" type="curve" smooth="yes"/>
      <point x="881.929292929293" y="1274.1515151515152"/>
      <point x="974.7777777777777" y="1264.1515151515152"/>
      <point x="1073.7575757575758" y="1241.1717171717173" type="curve"/>
      <point x="1073.7575757575758" y="1465.020202020202" type="line"/>
      <point x="981.7575757575758" y="1485.4040404040404"/>
      <point x="864.2727272727273" y="1497.4040404040404"/>
      <point x="757.040404040404" y="1497.4040404040404" type="curve" smooth="yes"/>
      <point x="320.8484848484849" y="1497.4040404040404"/>
      <point x="156.72727272727275" y="1355.3636363636363"/>
      <point x="156.72727272727275" y="1145.2424242424242" type="curve" smooth="yes"/>
      <point x="156.72727272727275" y="988.2222222222222"/>
      <point x="275.2323232323232" y="895.6262626262626"/>
      <point x="486.04040404040404" y="860.4343434343434" type="curve" smooth="yes"/>
      <point x="750.3232323232323" y="816.3939393939394" type="line" smooth="yes"/>
      <point x="855.3131313131313" y="798.4343434343434"/>
      <point x="886.6363636363636" y="758.3030303030303"/>
      <point x="886.6363636363636" y="697.8686868686868" type="curve" smooth="yes"/>
      <point x="886.6363636363636" y="647.3535353535353"/>
      <point x="859.6565656565656" y="612.030303030303"/>
      <point x="795.4848484848485" y="567.0101010101009" type="curve"/>
    </contour>
  </outline>
</glyph>
<glyph name="copyright" format="2">
  <advance width="1696.6060606060605"/>
  <unicode hex="00A9"/>
  <outline>
    <contour>
      <point x="848.3030303030303" y="-22.0" type="curve" smooth="yes"/>
      <point x="1298.5151515151515" y="-22.0"/>
      <point x="1596.5151515151515" y="282.0"/>
      <point x="1596.5151515151515" y="740.0" type="curve" smooth="yes"/>
      <point x="1596.5151515151515" y="1198.0"/>
      <point x="1298.5151515151515" y="1502.0"/>
      <point x="848.3030303030303" y="1502.0" type="curve" smooth="yes"/>
      <point x="398.0909090909091" y="1502.0"/>
      <point x="100.0909090909091" y="1198.0"/>
      <point x="100.0909090909091" y="740.0" type="curve" smooth="yes"/>
      <point x="100.0909090909091" y="282.0"/>
      <point x="398.0909090909091" y="-22.0"/>
    </contour>
    <contour>
      <point x="907.5757575757576" y="324.0" type="curve" smooth="yes"/>
      <point x="988.3838383838383" y="324.0"/>
      <point x="1060.3838383838383" y="336.0"/>
      <point x="1115.7474747474748" y="357.57575757575756" type="curve"/>
      <point x="1115.7474747474748" y="552.7474747474747" type="line"/>
      <point x="1036.5555555555557" y="530.5757575757575"/>
      <point x="985.6161616161617" y="523.3838383838383"/>
      <point x="929.0202020202021" y="523.3838383838383" type="curve" smooth="yes"/>
      <point x="791.989898989899" y="523.3838383838383"/>
      <point x="712.1111111111111" y="594.070707070707"/>
      <point x="712.1111111111111" y="733.7878787878788" type="curve" smooth="yes"/>
      <point x="712.1111111111111" y="873.1212121212121"/>
      <point x="787.7777777777777" y="944.6161616161617"/>
      <point x="944.0" y="944.6161616161617" type="curve" smooth="yes"/>
      <point x="1004.1717171717172" y="944.6161616161617"/>
      <point x="1055.1515151515152" y="937.4242424242425"/>
      <point x="1115.7474747474748" y="925.040404040404" type="curve"/>
      <point x="1115.7474747474748" y="1120.2121212121212" type="line"/>
      <point x="1057.3636363636363" y="1136.0"/>
      <point x="995.959595959596" y="1144.0"/>
      <point x="923.7474747474747" y="1144.0" type="curve" smooth="yes"/>
      <point x="648.5151515151515" y="1144.0"/>
      <point x="480.0505050505051" y="993.1919191919192"/>
      <point x="480.0505050505051" y="732.5959595959596" type="curve" smooth="yes"/>
      <point x="480.0505050505051" y="470.42424242424244"/>
      <point x="648.0909090909091" y="324.0"/>
    </contour>
    <contour>
      <point x="848.3030303030303" y="147.09090909090907" type="curve" smooth="yes"/>
      <point x="490.04040404040404" y="147.09090909090907"/>
      <point x="276.2020202020202" y="376.75757575757575"/>
      <point x="276.2020202020202" y="740.0" type="curve" smooth="yes"/>
      <point x="276.2020202020202" y="1103.2424242424242"/>
      <point x="490.04040404040404" y="1332.909090909091"/>
      <point x="848.3030303030303" y="1332.909090909091" type="curve" smooth="yes"/>
      <point x="1206.5656565656566" y="1332.909090909091"/>
      <point x="1420.4040404040404" y="1103.2424242424242"/>
      <point x="1420.4040404040404" y="740.0" type="curve" smooth="yes"/>
      <point x="1420.4040404040404" y="376.75757575757575"/>
      <point x="1206.5656565656566" y="147.09090909090907"/>
    </contour>
  </outline>
</glyph>
<glyph name="ordfeminine" format="2">
  <advance width="1070.5757575757575"/>
  <unicode hex="00AA"/>
  <outline>
    <contour>
      <point x="394.3838383838384" y="593.1919191919192" type="curve" smooth="yes"/>
      <point x="503.5353535353535" y="593.1919191919192"/>
      <point x="607.2828282828283" y="627.7474747474747"/>
      <point x="670.8585858585859" y="693.5353535353536" type="curve"/>
      <point x="685.2828282828283" y="693.5353535353536" type="line"/>
      <point x="708.1313131313132" y="610.0" type="line"/>
      <point x="977.5454545454545" y="610.0" type="line"/>
      <point x="977.5454545454545" y="1090.6969696969697" type="line" smooth="yes"/>
      <point x="977.5454545454545" y="1396.7272727272727"/>
      <point x="826.2727272727273" y="1499.020202020202"/>
      <point x="477.9090909090909" y="1499.020202020202" type="curve" smooth="yes"/>
      <point x="374.0808080808081" y="1499.020202020202"/>
      <point x="246.8080808080808" y="1486.4242424242425"/>
      <point x="136.72727272727275" y="1456.4242424242425" type="curve"/>
      <point x="136.72727272727275" y="1237.979797979798" type="line"/>
      <point x="228.3030303030303" y="1263.5555555555557"/>
      <point x="336.13131313131316" y="1276.959595959596"/>
      <point x="422.55555555555554" y="1276.959595959596" type="curve" smooth="yes"/>
      <point x="605.959595959596" y="1276.959595959596"/>
      <point x="656.6060606060606" y="1238.7878787878788"/>
      <point x="656.6060606060606" y="1141.2424242424242" type="curve" smooth="yes"/>
      <point x="656.6060606060606" y="835.7373737373737" type="line"/>
      <point x="610.7272727272727" y="805.8989898989898"/>
      <point x="554.2929292929293" y="791.3838383838383"/>
      <point x="503.6868686868687" y="791.3838383838383" type="curve" smooth="yes"/>
      <point x="410.27272727272725" y="791.3838383838383"/>
      <point x="371.1616161616161" y="827.8989898989898"/>
      <point x="371.1616161616161" y="882.5454545454545" type="curve" smooth="yes"/>
      <point x="371.1616161616161" y="937.4040404040404"/>
      <point x="408.060606060606" y="970.1313131313132"/>
      <point x="513.0101010101009" y="978.0909090909091" type="curve" smooth="yes"/>
      <point x="748.1717171717172" y="993.030303030303" type="line"/>
      <point x="716.4747474747475" y="1136.6767676767677" type="line"/>
      <point x="460.4646464646465" y="1120.3333333333333" type="line" smooth="yes"/>
      <point x="174.51515151515153" y="1105.5656565656566"/>
      <point x="53.24242424242425" y="1017.7373737373737"/>
      <point x="53.24242424242425" y="850.4646464646464" type="curve" smooth="yes"/>
      <point x="53.24242424242425" y="700.8484848484849"/>
      <point x="158.43434343434345" y="593.1919191919192"/>
    </contour>
  </outline>
</glyph>
<glyph name="guillemetleft" format="2">
  <advance width="1408.4141414141413"/>
  <unicode hex="00AB"/>
  <outline>
    <contour>
      <point x="399.7979797979798" y="132.97979797979798" type="line"/>
      <point x="760.6060606060605" y="132.97979797979798" type="line"/>
      <point x="454.8585858585858" y="567.020202020202" type="line"/>
      <point x="760.6060606060605" y="1001.060606060606" type="line"/>
      <point x="399.7979797979798" y="1001.060606060606" type="line"/>
      <point x="94.05050505050505" y="567.020202020202" type="line"/>
    </contour>
    <contour>
      <point x="993.5555555555555" y="132.97979797979798" type="line"/>
      <point x="1354.3636363636363" y="132.97979797979798" type="line"/>
      <point x="1048.6161616161617" y="567.020202020202" type="line"/>
      <point x="1354.3636363636363" y="1001.060606060606" type="line"/>
      <point x="993.5555555555555" y="1001.060606060606" type="line"/>
      <point x="687.8080808080808" y="567.020202020202" type="line"/>
    </contour>
  </outline>
</glyph>
<glyph name="logicalnot" format="2">
  <advance width="1425.1919191919192"/>
  <unicode hex="00AC"/>
  <outline>
    <contour>
      <point x="1026.1515151515152" y="204.63636363636363" type="line"/>
      <point x="1296.3333333333333" y="204.63636363636363" type="line"/>
      <point x="1296.3333333333333" y="888.8787878787879" type="line"/>
      <point x="136.64646464646466" y="888.8787878787879" type="line"/>
      <point x="136.64646464646466" y="631.1212121212121" type="line"/>
      <point x="1026.1515151515152" y="631.1212121212121" type="line"/>
    </contour>
  </outline>
</glyph>
<glyph name="softhyphen" format="2">
  <advance width="1081.4646464646464"/>
  <unicode hex="00AD"/>
  <outline>
    <contour>
      <point x="136.64646464646466" y="426.90909090909093" type="line"/>
      <point x="944.8181818181818" y="426.90909090909093" type="line"/>
      <point x="944.8181818181818" y="707.1313131313132" type="line"/>
      <point x="136.64646464646466" y="707.1313131313132" type="line"/>
    </contour>
  </outline>
</glyph>
<glyph name="registered" format="2">
  <advance width="1479.6767676767677"/>
  <unicode hex="00AE"/>
  <outline>
    <contour>
      <point x="739.8383838383838" y="268.0" type="curve" smooth="yes"/>
      <point x="1101.8383838383838" y="268.0"/>
      <point x="1349.8383838383838" y="518.0"/>
      <point x="1349.8383838383838" y="882.0" type="curve" smooth="yes"/>
      <point x="1349.8383838383838" y="1246.0"/>
      <point x="1101.8383838383838" y="1498.0"/>
      <point x="739.8383838383838" y="1498.0" type="curve" smooth="yes"/>
      <point x="377.83838383838383" y="1498.0"/>
      <point x="129.83838383838386" y="1246.0"/>
      <point x="129.83838383838386" y="882.0" type="curve" smooth="yes"/>
      <point x="129.83838383838386" y="518.0"/>
      <point x="377.83838383838383" y="268.0"/>
    </contour>
    <contour>
      <point x="867.2929292929293" y="600.0" type="line"/>
      <point x="1017.7070707070707" y="600.0" type="line"/>
      <point x="858.5555555555555" y="831.9191919191919" type="line"/>
      <point x="725.5454545454545" y="805.9191919191919" type="line"/>
    </contour>
    <contour>
      <point x="739.8383838383838" y="397.1818181818182" type="curve" smooth="yes"/>
      <point x="453.95959595959596" y="397.1818181818182"/>
      <point x="268.04040404040404" y="587.9090909090909"/>
      <point x="268.04040404040404" y="882.0" type="curve" smooth="yes"/>
      <point x="268.04040404040404" y="1177.4949494949494"/>
      <point x="453.95959595959596" y="1368.8181818181818"/>
      <point x="739.8383838383838" y="1368.8181818181818" type="curve" smooth="yes"/>
      <point x="1025.7171717171718" y="1368.8181818181818"/>
      <point x="1211.6363636363637" y="1177.4949494949494"/>
      <point x="1211.6363636363637" y="882.0" type="curve" smooth="yes"/>
      <point x="1211.6363636363637" y="587.9090909090909"/>
      <point x="1025.7171717171718" y="397.1818181818182"/>
    </contour>
    <contour>
      <point x="522.010101010101" y="600.0" type="line"/>
      <point x="658.2121212121212" y="600.0" type="line"/>
      <point x="662.4242424242424" y="797.9191919191919" type="line"/>
      <point x="730.0505050505051" y="797.9191919191919" type="line" smooth="yes"/>
      <point x="904.6868686868687" y="797.9191919191919"/>
      <point x="988.0909090909091" y="862.5151515151515"/>
      <point x="988.0909090909091" y="993.959595959596" type="curve" smooth="yes"/>
      <point x="988.0909090909091" y="1125.4040404040404"/>
      <point x="902.6868686868687" y="1192.0"/>
      <point x="730.0505050505051" y="1192.0" type="curve" smooth="yes"/>
      <point x="522.010101010101" y="1192.0" type="line"/>
    </contour>
    <contour>
      <point x="662.4242424242424" y="909.060606060606" type="line"/>
      <point x="662.4242424242424" y="1080.858585858586" type="line"/>
      <point x="751.8787878787879" y="1080.858585858586" type="line" smooth="yes"/>
      <point x="818.9494949494949" y="1080.858585858586"/>
      <point x="854.6969696969697" y="1052.090909090909"/>
      <point x="854.6969696969697" y="993.959595959596" type="curve" smooth="yes"/>
      <point x="854.6969696969697" y="935.8282828282828"/>
      <point x="820.9494949494949" y="909.060606060606"/>
      <point x="751.8787878787879" y="909.060606060606" type="curve" smooth="yes"/>
    </contour>
  </outline>
</glyph>
<glyph name="degree" format="2">
  <advance width="1033.5353535353536"/>
  <unicode hex="00B0"/>
  <outline>
    <contour>
      <point x="516.7676767676768" y="734.7777777777778" type="curve" smooth="yes"/>
      <point x="740.6363636363636" y="734.7777777777778"/>
      <point x="903.6969696969697" y="895.6262626262626"/>
      <point x="903.6969696969697" y="1117.4949494949494" type="curve" smooth="yes"/>
      <point x="903.6969696969697" y="1339.3636363636363"/>
      <point x="740.6363636363636" y="1498.8080808080808"/>
      <point x="516.7676767676768" y="1498.8080808080808" type="curve" smooth="yes"/>
      <point x="292.8989898989899" y="1498.8080808080808"/>
      <point x="129.83838383838386" y="1339.3636363636363"/>
      <point x="129.83838383838386" y="1117.4949494949494" type="curve" smooth="yes"/>
      <point x="129.83838383838386" y="895.6262626262626"/>
      <point x="292.8989898989899" y="734.7777777777778"/>
    </contour>
    <contour>
      <point x="516.7676767676768" y="927.9494949494949" type="curve" smooth="yes"/>
      <point x="412.3333333333333" y="927.9494949494949"/>
      <point x="334.83838383838383" y="1000.8484848484849"/>
      <point x="334.83838383838383" y="1117.4949494949494" type="curve" smooth="yes"/>
      <point x="334.83838383838383" y="1235.5454545454545"/>
      <point x="413.73737373737373" y="1305.6363636363637"/>
      <point x="516.7676767676768" y="1305.6363636363637" type="curve" smooth="yes"/>
      <point x="619.7979797979798" y="1305.6363636363637"/>
      <point x="698.6969696969697" y="1235.5454545454545"/>
      <point x="698.6969696969697" y="1117.4949494949494" type="curve" smooth="yes"/>
      <point x="698.6969696969697" y="1000.8484848484849"/>
      <point x="621.2020202020202" y="927.9494949494949"/>
    </contour>
  </outline>
</glyph>
<glyph name="plusminus" format="2">
  <advance width="1169.7777777777778"/>
  <unicode hex="00B1"/>
  <outline>
    <contour>
      <point x="449.7979797979798" y="381.98989898989896" type="line"/>
      <point x="719.9797979797979" y="381.98989898989896" type="line"/>
      <point x="719.9797979797979" y="668.8080808080808" type="line"/>
      <point x="1033.1313131313132" y="668.8080808080808" type="line"/>
      <point x="1033.1313131313132" y="926.5656565656566" type="line"/>
      <point x="719.9797979797979" y="926.5656565656566" type="line"/>
      <point x="719.9797979797979" y="1213.3838383838383" type="line"/>
      <point x="449.7979797979798" y="1213.3838383838383" type="line"/>
      <point x="449.7979797979798" y="926.5656565656566" type="line"/>
      <point x="136.64646464646466" y="926.5656565656566" type="line"/>
      <point x="136.64646464646466" y="668.8080808080808" type="line"/>
      <point x="449.7979797979798" y="668.8080808080808" type="line"/>
    </contour>
    <contour>
      <point x="136.64646464646466" y="0.0" type="line"/>
      <point x="1033.1313131313132" y="0.0" type="line"/>
      <point x="1033.1313131313132" y="257.75757575757575" type="line"/>
      <point x="136.64646464646466" y="257.75757575757575" type="line"/>
    </contour>
  </outline>
</glyph>
<glyph name="acute" format="2">
  <advance width="1200.0"/>
  <unicode hex="00B4"/>
  <anchor x="600.0" y="1200.0" name="_top"/>
  <anchor x="600.0" y="1626.20202020202" name="top"/>
  <outline>
    <contour>
      <point x="434.8282828282829" y="1233.111111111111" type="line"/>
      <point x="765.1717171717171" y="1233.111111111111" type="line"/>
      <point x="1077.4646464646466" y="1616.0" type="line"/>
      <point x="695.8080808080808" y="1616.0" type="line"/>
    </contour>
  </outline>
</glyph>
<glyph name="micro" format="2">
  <advance width="1387.040404040404"/>
  <unicode hex="00B5"/>
  <outline>
    <contour>
      <point x="638.030303030303" y="-18.0" type="curve" smooth="yes"/>
      <point x="746.5050505050506" y="-18.0"/>
      <point x="849.7878787878788" y="26.383838383838384"/>
      <point x="928.8989898989898" y="105.53535353535354" type="curve"/>
      <point x="942.5151515151515" y="105.53535353535354" type="line"/>
      <point x="963.959595959596" y="0.0" type="line"/>
      <point x="1247.2020202020203" y="0.0" type="line"/>
      <point x="1247.2020202020203" y="1094.040404040404" type="line"/>
      <point x="901.2020202020202" y="1094.040404040404" type="line"/>
      <point x="901.2020202020202" y="368.6161616161616" type="line"/>
      <point x="839.1515151515151" y="305.58585858585855"/>
      <point x="746.3333333333334" y="271.2424242424242"/>
      <point x="658.2828282828283" y="271.2424242424242" type="curve" smooth="yes"/>
      <point x="545.2929292929292" y="271.2424242424242"/>
      <point x="474.8585858585858" y="321.5454545454545"/>
      <point x="474.8585858585858" y="474.4949494949495" type="curve" smooth="yes"/>
      <point x="474.8585858585858" y="634.4444444444443" type="line"/>
      <point x="283.64646464646466" y="634.4444444444443" type="line"/>
      <point x="283.64646464646466" y="455.64646464646466" type="line" smooth="yes"/>
      <point x="283.64646464646466" y="119.48484848484847"/>
      <point x="424.66666666666663" y="-18.0"/>
    </contour>
    <contour>
      <point x="128.85858585858588" y="-440.0" type="line"/>
      <point x="474.8585858585858" y="-440.0" type="line"/>
      <point x="474.8585858585858" y="1092.6363636363637" type="line"/>
      <point x="128.85858585858588" y="1092.6363636363637" type="line"/>
    </contour>
  </outline>
</glyph>
<glyph name="paragraph" format="2">
  <advance width="1464.2323232323233"/>
  <unicode hex="00B6"/>
  <outline>
    <contour>
      <point x="677.5555555555555" y="0.0" type="line"/>
      <point x="921.060606060606" y="0.0" type="line"/>
      <point x="921.060606060606" y="1480.0" type="line"/>
      <point x="817.8282828282829" y="1492.2121212121212"/>
      <point x="706.4242424242424" y="1498.2121212121212"/>
      <point x="593.8282828282828" y="1498.2121212121212" type="curve" smooth="yes"/>
      <point x="252.72727272727275" y="1498.2121212121212"/>
      <point x="86.34343434343435" y="1334.7676767676767"/>
      <point x="86.34343434343435" y="963.6666666666666" type="curve" smooth="yes"/>
      <point x="86.34343434343435" y="610.3535353535353"/>
      <point x="243.95959595959596" y="426.7373737373738"/>
      <point x="567.6262626262626" y="426.7373737373738" type="curve" smooth="yes"/>
      <point x="607.1212121212121" y="426.7373737373738"/>
      <point x="642.4444444444445" y="429.33333333333337"/>
      <point x="677.5555555555555" y="432.31313131313135" type="curve"/>
    </contour>
    <contour>
      <point x="1065.1010101010102" y="0.0" type="line"/>
      <point x="1308.6060606060605" y="0.0" type="line"/>
      <point x="1308.6060606060605" y="1480.0" type="line"/>
      <point x="1065.1010101010102" y="1480.0" type="line"/>
    </contour>
  </outline>
</glyph>
<glyph name="periodcentered" format="2">
  <advance width="623.2929292929293"/>
  <unicode hex="00B7"/>
  <anchor x="311.64646464646466" y="560.0" name="_periodcentered"/>
  <outline>
    <contour>
      <point x="311.64646464646466" y="361.21212121212125" type="curve" smooth="yes"/>
      <point x="450.1414141414141" y="361.21212121212125"/>
      <point x="533.7070707070707" y="439.969696969697"/>
      <point x="533.7070707070707" y="559.4040404040404" type="curve" smooth="yes"/>
      <point x="533.7070707070707" y="678.8383838383838"/>
      <point x="452.9494949494949" y="758.1919191919192"/>
      <point x="311.64646464646466" y="758.1919191919192" type="curve" smooth="yes"/>
      <point x="170.34343434343435" y="758.1919191919192"/>
      <point x="89.5858585858586" y="681.6464646464647"/>
      <point x="89.5858585858586" y="559.4040404040404" type="curve" smooth="yes"/>
      <point x="89.5858585858586" y="437.16161616161617"/>
      <point x="173.15151515151516" y="361.21212121212125"/>
    </contour>
  </outline>
</glyph>
<glyph name="onesuperior" format="2">
  <advance width="931.7272727272727"/>
  <unicode hex="00B9"/>
  <outline>
    <contour>
      <point x="377.0707070707071" y="-101.95959595959596" type="line"/>
      <point x="654.4848484848485" y="-101.95959595959596" type="line"/>
      <point x="654.4848484848485" y="868.0" type="line"/>
      <point x="467.27272727272725" y="868.0" type="line"/>
      <point x="132.55555555555554" y="654.5959595959596" type="line"/>
      <point x="132.55555555555554" y="421.939393939394" type="line"/>
      <point x="467.27272727272725" y="635.3434343434344" type="line"/>
      <point x="377.0707070707071" y="726.5656565656566" type="line"/>
    </contour>
    <contour>
      <point x="132.55555555555557" y="-136.0" type="line"/>
      <point x="885.0" y="-136.0" type="line"/>
      <point x="885.0" y="74.8282828282828" type="line"/>
      <point x="132.55555555555557" y="74.8282828282828" type="line"/>
    </contour>
  </outline>
</glyph>
<glyph name="ordmasculine" format="2">
  <advance width="1168.9595959595958"/>
  <unicode hex="00BA"/>
  <outline>
    <contour>
      <point x="583.7777777777778" y="593.1919191919192" type="curve" smooth="yes"/>
      <point x="915.8484848484848" y="593.1919191919192"/>
      <point x="1111.9292929292928" y="765.4848484848485"/>
      <point x="1111.9292929292928" y="1048.8080808080808" type="curve" smooth="yes"/>
      <point x="1111.9292929292928" y="1332.1313131313132"/>
      <point x="915.8484848484848" y="1499.020202020202"/>
      <point x="583.7777777777778" y="1499.020202020202" type="curve" smooth="yes"/>
      <point x="251.70707070707073" y="1499.020202020202"/>
      <point x="57.030303030303045" y="1332.1313131313132"/>
      <point x="57.030303030303045" y="1048.8080808080808" type="curve" smooth="yes"/>
      <point x="57.030303030303045" y="765.4848484848485"/>
      <point x="251.70707070707073" y="593.1919191919192"/>
    </contour>
    <contour>
      <point x="583.7777777777778" y="832.6969696969696" type="curve" smooth="yes"/>
      <point x="457.0" y="832.6969696969696"/>
      <point x="376.35353535353534" y="903.3838383838383"/>
      <point x="376.35353535353534" y="1048.8080808080808" type="curve" smooth="yes"/>
      <point x="376.35353535353534" y="1194.2323232323233"/>
      <point x="457.0" y="1259.5151515151515"/>
      <point x="583.7777777777778" y="1259.5151515151515" type="curve" smooth="yes"/>
      <point x="713.3636363636364" y="1259.5151515151515"/>
      <point x="792.6060606060606" y="1194.2323232323233"/>
      <point x="792.6060606060606" y="1048.8080808080808" type="curve" smooth="yes"/>
      <point x="792.6060606060606" y="903.3838383838383"/>
      <point x="713.3636363636364" y="832.6969696969696"/>
    </contour>
  </outline>
</glyph>
<glyph name="guillemetright" format="2">
  <advance width="1408.4141414141413"/>
  <unicode hex="00BB"/>
  <outline>
    <contour>
      <point x="54.05050505050506" y="132.97979797979798" type="line"/>
      <point x="414.8585858585858" y="132.97979797979798" type="line"/>
      <point x="720.6060606060605" y="567.020202020202" type="line"/>
      <point x="414.8585858585858" y="1001.060606060606" type="line"/>
      <point x="54.05050505050506" y="1001.060606060606" type="line"/>
      <point x="359.7979797979798" y="567.020202020202" type="line"/>
    </contour>
    <contour>
      <point x="647.8080808080808" y="132.97979797979798" type="line"/>
      <point x="1008.6161616161617" y="132.97979797979798" type="line"/>
      <point x="1314.3636363636363" y="567.020202020202" type="line"/>
      <point x="1008.6161616161617" y="1001.060606060606" type="line"/>
      <point x="647.8080808080808" y="1001.060606060606" type="line"/>
      <point x="953.5555555555555" y="567.020202020202" type="line"/>
    </contour>
  </outline>
</glyph>
<glyph name="onequarter" format="2">
  <advance width="2303.7676767676767"/>
  <unicode hex="00BC"/>
  <outline>
    <contour>
      <point x="377.0707070707071" y="650.040404040404" type="line"/>
      <point x="654.4848484848485" y="650.040404040404" type="line"/>
      <point x="654.4848484848485" y="1620.0" type="line"/>
      <point x="467.27272727272725" y="1620.0" type="line"/>
      <point x="132.55555555555554" y="1406.5959595959596" type="line"/>
      <point x="132.55555555555554" y="1173.939393939394" type="line"/>
      <point x="467.27272727272725" y="1387.3434343434344" type="line"/>
      <point x="377.0707070707071" y="1478.5656565656566" type="line"/>
    </contour>
    <contour>
      <point x="132.55555555555557" y="616.0" type="line"/>
      <point x="885.0" y="616.0" type="line"/>
      <point x="885.0" y="826.8282828282828" type="line"/>
      <point x="132.55555555555557" y="826.8282828282828" type="line"/>
    </contour>
    <contour>
      <point x="566.6262626262626" y="-136.0" type="line"/>
      <point x="854.4646464646464" y="-136.0" type="line"/>
      <point x="1737.141414141414" y="1616.0" type="line"/>
      <point x="1449.3030303030303" y="1616.0" type="line"/>
    </contour>
    <contour>
      <point x="1395.6161616161617" y="52.81818181818183" type="line"/>
      <point x="2282.5757575757575" y="52.81818181818183" type="line"/>
      <point x="2282.5757575757575" y="258.83838383838383" type="line"/>
      <point x="1630.7373737373737" y="258.83838383838383" type="line"/>
      <point x="1647.5454545454545" y="194.7171717171717" type="line"/>
      <point x="1978.4545454545455" y="864.0" type="line"/>
      <point x="1726.5252525252524" y="864.0" type="line"/>
      <point x="1395.6161616161617" y="195.3131313131313" type="line"/>
    </contour>
    <contour>
      <point x="1904.7272727272727" y="-136.0" type="line"/>
      <point x="2147.848484848485" y="-136.0" type="line"/>
      <point x="2147.848484848485" y="526.0" type="line"/>
      <point x="1943.4040404040402" y="526.0" type="line"/>
      <point x="1904.7272727272727" y="258.83838383838383" type="line"/>
    </contour>
  </outline>
</glyph>
<glyph name="onehalf" format="2">
  <advance width="2303.7676767676767"/>
  <unicode hex="00BD"/>
  <outline>
    <contour>
      <point x="377.0707070707071" y="650.040404040404" type="line"/>
      <point x="654.4848484848485" y="650.040404040404" type="line"/>
      <point x="654.4848484848485" y="1620.0" type="line"/>
      <point x="467.27272727272725" y="1620.0" type="line"/>
      <point x="132.55555555555554" y="1406.5959595959596" type="line"/>
      <point x="132.55555555555554" y="1173.939393939394" type="line"/>
      <point x="467.27272727272725" y="1387.3434343434344" type="line"/>
      <point x="377.0707070707071" y="1478.5656565656566" type="line"/>
    </contour>
    <contour>
      <point x="132.55555555555557" y="616.0" type="line"/>
      <point x="885.0" y="616.0" type="line"/>
      <point x="885.0" y="826.8282828282828" type="line"/>
      <point x="132.55555555555557" y="826.8282828282828" type="line"/>
    </contour>
    <contour>
      <point x="566.6262626262626" y="-136.0" type="line"/>
      <point x="854.4646464646464" y="-136.0" type="line"/>
      <point x="1737.141414141414" y="1616.0" type="line"/>
      <point x="1449.3030303030303" y="1616.0" type="line"/>
    </contour>
    <contour>
      <point x="1448.3838383838383" y="-136.0" type="line"/>
      <point x="2233.1717171717173" y="-136.0" type="line"/>
      <point x="2233.1717171717173" y="74.8282828282828" type="line"/>
      <point x="1763.2828282828282" y="74.8282828282828" type="line"/>
      <point x="1753.8383838383836" y="5.090909090909065" type="line"/>
      <point x="2009.888888888889" y="260.8484848484849" type="line" smooth="yes"/>
      <point x="2130.8282828282827" y="382.34343434343435"/>
      <point x="2181.4242424242425" y="473.74747474747477"/>
      <point x="2181.4242424242425" y="581.9191919191919" type="curve" smooth="yes"/>
      <point x="2181.4242424242425" y="780.7676767676768"/>
      <point x="2042.3636363636363" y="877.4040404040404"/>
      <point x="1742.5050505050503" y="877.4040404040404" type="curve" smooth="yes"/>
      <point x="1630.6767676767677" y="877.4040404040404"/>
      <point x="1517.6161616161617" y="863.4040404040404"/>
      <point x="1436.3838383838383" y="837.4040404040404" type="curve"/>
      <point x="1436.3838383838383" y="625.979797979798" type="line"/>
      <point x="1505.151515151515" y="649.7676767676768"/>
      <point x="1608.0" y="670.7878787878788"/>
      <point x="1706.8080808080808" y="670.7878787878788" type="curve" smooth="yes"/>
      <point x="1855.5353535353534" y="670.7878787878788"/>
      <point x="1909.030303030303" y="631.4646464646464"/>
      <point x="1909.030303030303" y="550.6464646464647" type="curve" smooth="yes"/>
      <point x="1909.030303030303" y="494.55555555555554"/>
      <point x="1873.6666666666665" y="439.44444444444446"/>
      <point x="1780.7676767676767" y="343.77777777777777" type="curve" smooth="yes"/>
      <point x="1448.3838383838383" y="1.686868686868678" type="line"/>
    </contour>
  </outline>
</glyph>
<glyph name="threequarters" format="2">
  <advance width="2303.7676767676767"/>
  <unicode hex="00BE"/>
  <outline>
    <contour>
      <point x="382.7171717171717" y="602.5959595959596" type="curve" smooth="yes"/>
      <point x="710.8787878787879" y="602.5959595959596"/>
      <point x="844.7070707070707" y="719.0202020202021"/>
      <point x="844.7070707070707" y="899.8282828282828" type="curve" smooth="yes"/>
      <point x="844.7070707070707" y="1040.2121212121212"/>
      <point x="755.3434343434343" y="1116.7676767676767"/>
      <point x="616.8686868686868" y="1137.5757575757575" type="curve"/>
      <point x="616.8686868686868" y="1127.4040404040404" type="line"/>
      <point x="731.9797979797979" y="1153.1919191919192"/>
      <point x="807.3030303030303" y="1236.3838383838383"/>
      <point x="807.3030303030303" y="1349.919191919192" type="curve" smooth="yes"/>
      <point x="807.3030303030303" y="1526.979797979798"/>
      <point x="669.8585858585858" y="1629.4040404040404"/>
      <point x="379.2323232323232" y="1629.4040404040404" type="curve" smooth="yes"/>
      <point x="278.80808080808083" y="1629.4040404040404"/>
      <point x="158.72727272727275" y="1613.1919191919192"/>
      <point x="84.93939393939394" y="1590.5959595959596" type="curve"/>
      <point x="84.93939393939394" y="1398.828282828283" type="line"/>
      <point x="164.51515151515153" y="1426.020202020202"/>
      <point x="270.7676767676768" y="1441.6363636363637"/>
      <point x="352.7676767676768" y="1441.6363636363637" type="curve" smooth="yes"/>
      <point x="488.0505050505051" y="1441.6363636363637"/>
      <point x="543.929292929293" y="1399.1212121212122"/>
      <point x="543.929292929293" y="1330.4747474747476" type="curve" smooth="yes"/>
      <point x="543.929292929293" y="1261.6969696969697"/>
      <point x="491.32323232323233" y="1221.7777777777778"/>
      <point x="352.75757575757575" y="1221.7777777777778" type="curve" smooth="yes"/>
      <point x="179.83838383838386" y="1221.7777777777778" type="line"/>
      <point x="179.83838383838386" y="1032.6060606060605" type="line"/>
      <point x="392.42424242424244" y="1032.6060606060605" type="line" smooth="yes"/>
      <point x="536.4747474747475" y="1032.6060606060605"/>
      <point x="588.3535353535353" y="990.89898989899"/>
      <point x="588.3535353535353" y="916.4646464646464" type="curve" smooth="yes"/>
      <point x="588.3535353535353" y="837.8585858585858"/>
      <point x="527.070707070707" y="791.7676767676767"/>
      <point x="367.86868686868684" y="791.7676767676767" type="curve" smooth="yes"/>
      <point x="274.8484848484849" y="791.7676767676767"/>
      <point x="163.40404040404042" y="805.7676767676768"/>
      <point x="64.38383838383838" y="832.1515151515151" type="curve"/>
      <point x="64.38383838383838" y="640.3838383838383" type="line"/>
      <point x="162.42424242424244" y="615.1919191919192"/>
      <point x="270.8484848484849" y="602.5959595959596"/>
    </contour>
    <contour>
      <point x="566.6262626262626" y="-136.0" type="line"/>
      <point x="854.4646464646464" y="-136.0" type="line"/>
      <point x="1737.141414141414" y="1616.0" type="line"/>
      <point x="1449.3030303030303" y="1616.0" type="line"/>
    </contour>
    <contour>
      <point x="1395.6161616161617" y="52.81818181818183" type="line"/>
      <point x="2282.5757575757575" y="52.81818181818183" type="line"/>
      <point x="2282.5757575757575" y="258.83838383838383" type="line"/>
      <point x="1630.7373737373737" y="258.83838383838383" type="line"/>
      <point x="1647.5454545454545" y="194.7171717171717" type="line"/>
      <point x="1978.4545454545455" y="864.0" type="line"/>
      <point x="1726.5252525252524" y="864.0" type="line"/>
      <point x="1395.6161616161617" y="195.3131313131313" type="line"/>
    </contour>
    <contour>
      <point x="1904.7272727272727" y="-136.0" type="line"/>
      <point x="2147.848484848485" y="-136.0" type="line"/>
      <point x="2147.848484848485" y="526.0" type="line"/>
      <point x="1943.4040404040402" y="526.0" type="line"/>
      <point x="1904.7272727272727" y="258.83838383838383" type="line"/>
    </contour>
  </outline>
</glyph>
<glyph name="questiondown" format="2">
  <advance width="1115.888888888889"/>
  <unicode hex="00BF"/>
  <outline>
    <contour>
      <point x="707.5050505050505" y="631.1717171717172" type="line"/>
      <point x="498.04040404040404" y="631.1717171717172" type="line"/>
      <point x="475.4040404040404" y="430.67676767676767" type="line"/>
      <point x="208.12121212121212" y="357.1818181818182"/>
      <point x="62.38383838383839" y="229.77777777777777"/>
      <point x="62.38383838383839" y="10.757575757575744" type="curve" smooth="yes"/>
      <point x="62.38383838383839" y="-249.36363636363637"/>
      <point x="257.65656565656565" y="-400.0"/>
      <point x="656.3636363636364" y="-400.0" type="curve" smooth="yes"/>
      <point x="797.5959595959596" y="-400.0"/>
      <point x="961.7171717171716" y="-376.3838383838384"/>
      <point x="1072.1010101010102" y="-341.7878787878788" type="curve"/>
      <point x="1072.1010101010102" y="-75.81818181818187" type="line"/>
      <point x="954.5252525252524" y="-114.41414141414145"/>
      <point x="814.2727272727273" y="-136.0303030303031"/>
      <point x="690.6565656565656" y="-136.0303030303031" type="curve" smooth="yes"/>
      <point x="489.20202020202015" y="-136.0303030303031"/>
      <point x="400.5555555555555" y="-71.76767676767679"/>
      <point x="400.5555555555555" y="32.4141414141414" type="curve" smooth="yes"/>
      <point x="400.5555555555555" y="135.36363636363637"/>
      <point x="480.89898989898984" y="213.87878787878788"/>
      <point x="767.2424242424242" y="261.92929292929296" type="curve"/>
    </contour>
    <contour>
      <point x="602.070707070707" y="1111.060606060606" type="curve" smooth="yes"/>
      <point x="462.979797979798" y="1111.060606060606"/>
      <point x="380.01010101010104" y="1037.3232323232323"/>
      <point x="380.01010101010104" y="926.909090909091" type="curve" smooth="yes"/>
      <point x="380.01010101010104" y="815.89898989899"/>
      <point x="460.7676767676768" y="742.1616161616162"/>
      <point x="602.070707070707" y="742.1616161616162" type="curve" smooth="yes"/>
      <point x="743.3737373737373" y="742.1616161616162"/>
      <point x="824.1313131313132" y="813.0909090909091"/>
      <point x="824.1313131313132" y="926.909090909091" type="curve" smooth="yes"/>
      <point x="824.1313131313132" y="1040.1313131313132"/>
      <point x="740.5656565656566" y="1111.060606060606"/>
    </contour>
  </outline>
</glyph>
<glyph name="Atilde" format="2">
  <advance width="1665.242424242424"/>
  <unicode hex="00C3"/>
  <anchor x="831.5151515151515" y="1520.0" name="_top"/>
  <anchor x="832.9191919191919" y="0.0" name="bottom"/>
  <anchor x="1639.7070707070707" y="0.0" name="ogonek"/>
  <anchor x="831.5151515151515" y="1520.0" name="top"/>
  <outline>
    <contour>
      <point x="25.53535353535354" y="0.0" type="line"/>
      <point x="370.51515151515144" y="0.0" type="line"/>
      <point x="848.5353535353536" y="1330.4848484848485" type="line"/>
      <point x="813.3030303030303" y="1330.4848484848485" type="line"/>
      <point x="1291.3232323232323" y="0.0" type="line"/>
      <point x="1639.7070707070707" y="0.0" type="line"/>
      <point x="1086.9292929292928" y="1480.0" type="line"/>
      <point x="578.3131313131313" y="1480.0" type="line"/>
    </contour>
    <contour>
      <point x="446.95959595959596" y="391.80808080808083" type="line"/>
      <point x="1215.4747474747473" y="391.80808080808083" type="line"/>
      <point x="1133.6969696969697" y="657.1818181818181" type="line"/>
      <point x="530.1414141414141" y="657.1818181818181" type="line"/>
    </contour>
    <contour>
      <point x="1018.1919191919192" y="1619.3737373737374" type="curve" smooth="yes"/>
      <point x="1117.848484848485" y="1619.3737373737374"/>
      <point x="1185.080808080808" y="1640.7777777777778"/>
      <point x="1243.3333333333333" y="1689.2020202020203" type="curve"/>
      <point x="1243.3333333333333" y="1872.3333333333333" type="line"/>
      <point x="1175.6767676767677" y="1827.141414141414"/>
      <point x="1115.2525252525252" y="1806.5454545454545"/>
      <point x="1026.6161616161617" y="1806.5454545454545" type="curve" smooth="yes"/>
      <point x="895.1313131313132" y="1806.5454545454545"/>
      <point x="794.1111111111111" y="1880.5454545454545"/>
      <point x="644.8383838383838" y="1880.5454545454545" type="curve" smooth="yes"/>
      <point x="545.1818181818182" y="1880.5454545454545"/>
      <point x="477.9494949494949" y="1857.7373737373737"/>
      <point x="419.6969696969697" y="1809.3131313131314" type="curve"/>
      <point x="419.6969696969697" y="1626.1818181818182" type="line"/>
      <point x="487.35353535353534" y="1671.3737373737374"/>
      <point x="547.7777777777778" y="1691.969696969697"/>
      <point x="636.4141414141413" y="1691.969696969697" type="curve" smooth="yes"/>
      <point x="767.8989898989898" y="1691.969696969697"/>
      <point x="868.9191919191919" y="1619.3737373737374"/>
    </contour>
  </outline>
</glyph>
<glyph name="Adieresis" format="2">
  <advance width="1665.242424242424"/>
  <unicode hex="00C4"/>
  <anchor x="831.5151515151515" y="1520.0" name="_top"/>
  <anchor x="832.9191919191919" y="0.0" name="bottom"/>
  <anchor x="1639.7070707070707" y="0.0" name="ogonek"/>
  <anchor x="831.5151515151515" y="1520.0" name="top"/>
  <outline>
    <contour>
      <point x="25.53535353535354" y="0.0" type="line"/>
      <point x="370.51515151515144" y="0.0" type="line"/>
      <point x="848.5353535353536" y="1330.4848484848485" type="line"/>
      <point x="813.3030303030303" y="1330.4848484848485" type="line"/>
      <point x="1291.3232323232323" y="0.0" type="line"/>
      <point x="1639.7070707070707" y="0.0" type="line"/>
      <point x="1086.9292929292928" y="1480.0" type="line"/>
      <point x="578.3131313131313" y="1480.0" type="line"/>
    </contour>
    <contour>
      <point x="446.95959595959596" y="391.80808080808083" type="line"/>
      <point x="1215.4747474747473" y="391.80808080808083" type="line"/>
      <point x="1133.6969696969697" y="657.1818181818181" type="line"/>
      <point x="530.1414141414141" y="657.1818181818181" type="line"/>
    </contour>
    <contour>
      <point x="1116.7878787878788" y="1605.7575757575758" type="curve" smooth="yes"/>
      <point x="1239.8383838383838" y="1605.7575757575758"/>
      <point x="1295.3232323232323" y="1660.6464646464647"/>
      <point x="1295.3232323232323" y="1750.5959595959596" type="curve" smooth="yes"/>
      <point x="1295.3232323232323" y="1840.5454545454545"/>
      <point x="1239.8383838383838" y="1896.030303030303"/>
      <point x="1116.7878787878788" y="1896.030303030303" type="curve" smooth="yes"/>
      <point x="993.7373737373737" y="1896.030303030303"/>
      <point x="938.2525252525252" y="1840.5454545454545"/>
      <point x="938.2525252525252" y="1750.5959595959596" type="curve" smooth="yes"/>
      <point x="938.2525252525252" y="1660.6464646464647"/>
      <point x="993.7373737373737" y="1605.7575757575758"/>
    </contour>
    <contour>
      <point x="546.2424242424242" y="1605.7575757575758" type="curve" smooth="yes"/>
      <point x="669.2929292929293" y="1605.7575757575758"/>
      <point x="724.7777777777777" y="1660.6464646464647"/>
      <point x="724.7777777777777" y="1750.5959595959596" type="curve" smooth="yes"/>
      <point x="724.7777777777777" y="1840.5454545454545"/>
      <point x="669.2929292929293" y="1896.030303030303"/>
      <point x="546.2424242424242" y="1896.030303030303" type="curve" smooth="yes"/>
      <point x="423.19191919191917" y="1896.030303030303"/>
      <point x="367.7070707070707" y="1840.5454545454545"/>
      <point x="367.7070707070707" y="1750.5959595959596" type="curve" smooth="yes"/>
      <point x="367.7070707070707" y="1660.6464646464647"/>
      <point x="423.19191919191917" y="1605.7575757575758"/>
    </contour>
  </outline>
</glyph>
<glyph name="Egrave" format="2">
  <advance width="1434.2323232323233"/>
  <unicode hex="00C8"/>
  <anchor x="765.3535353535353" y="1520.0" name="_top"/>
  <anchor x="766.5454545454545" y="0.0" name="bottom"/>
  <anchor x="1247.6363636363635" y="0.0" name="ogonek"/>
  <anchor x="765.3535353535353" y="1520.0" name="top"/>
  <anchor x="41.78787878787879" y="1480.0" name="topleft"/>
  <outline>
    <contour>
      <point x="155.62626262626264" y="0.0" type="line"/>
      <point x="1341.6767676767677" y="0.0" type="line"/>
      <point x="1341.6767676767677" y="265.37373737373736" type="line"/>
      <point x="505.8383838383838" y="265.37373737373736" type="line"/>
      <point x="505.8383838383838" y="1214.6262626262626" type="line"/>
      <point x="1331.6767676767677" y="1214.6262626262626" type="line"/>
      <point x="1331.6767676767677" y="1480.0" type="line"/>
      <point x="155.62626262626264" y="1480.0" type="line"/>
    </contour>
    <contour>
      <point x="327.60606060606057" y="624.1010101010102" type="line"/>
      <point x="1227.4646464646464" y="624.1010101010102" type="line"/>
      <point x="1227.4646464646464" y="889.4747474747475" type="line"/>
      <point x="327.60606060606057" y="889.4747474747475" type="line"/>
    </contour>
    <contour>
      <point x="607.2020202020202" y="1594.939393939394" type="line"/>
      <point x="923.5050505050505" y="1594.939393939394" type="line"/>
      <point x="714.1414141414141" y="1897.828282828283" type="line"/>
      <point x="345.92929292929296" y="1897.828282828283" type="line"/>
    </contour>
  </outline>
</glyph>
<glyph name="Eacute" format="2">
  <advance width="1434.2323232323233"/>
  <unicode hex="00C9"/>
  <anchor x="765.3535353535353" y="1520.0" name="_top"/>
  <anchor x="766.5454545454545" y="0.0" name="bottom"/>
  <anchor x="1247.6363636363635" y="0.0" name="ogonek"/>
  <anchor x="765.3535353535353" y="1520.0" name="top"/>
  <anchor x="41.78787878787879" y="1480.0" name="topleft"/>
  <outline>
    <contour>
      <point x="155.62626262626264" y="0.0" type="line"/>
      <point x="1341.6767676767677" y="0.0" type="line"/>
      <point x="1341.6767676767677" y="265.37373737373736" type="line"/>
      <point x="505.8383838383838" y="265.37373737373736" type="line"/>
      <point x="505.8383838383838" y="1214.6262626262626" type="line"/>
      <point x="1331.6767676767677" y="1214.6262626262626" type="line"/>
      <point x="1331.6767676767677" y="1480.0" type="line"/>
      <point x="155.62626262626264" y="1480.0" type="line"/>
    </contour>
    <contour>
      <point x="327.60606060606057" y="624.1010101010102" type="line"/>
      <point x="1227.4646464646464" y="624.1010101010102" type="line"/>
      <point x="1227.4646464646464" y="889.4747474747475" type="line"/>
      <point x="327.60606060606057" y="889.4747474747475" type="line"/>
    </contour>
    <contour>
      <point x="604.3939393939394" y="1594.939393939394" type="line"/>
      <point x="920.6969696969697" y="1594.939393939394" type="line"/>
      <point x="1181.969696969697" y="1897.828282828283" type="line"/>
      <point x="813.7575757575758" y="1897.828282828283" type="line"/>
    </contour>
  </outline>
</glyph>
<glyph name="Edieresis" format="2">
  <advance width="1434.2323232323233"/>
  <unicode hex="00CB"/>
  <anchor x="765.3535353535353" y="1520.0" name="_top"/>
  <anchor x="766.5454545454545" y="0.0" name="bottom"/>
  <anchor x="1247.6363636363635" y="0.0" name="ogonek"/>
  <anchor x="765.3535353535353" y="1520.0" name="top"/>
  <anchor x="41.78787878787879" y="1480.0" name="topleft"/>
  <outline>
    <contour>
      <point x="155.62626262626264" y="0.0" type="line"/>
      <point x="1341.6767676767677" y="0.0" type="line"/>
      <point x="1341.6767676767677" y="265.37373737373736" type="line"/>
      <point x="505.8383838383838" y="265.37373737373736" type="line"/>
      <point x="505.8383838383838" y="1214.6262626262626" type="line"/>
      <point x="1331.6767676767677" y="1214.6262626262626" type="line"/>
      <point x="1331.6767676767677" y="1480.0" type="line"/>
      <point x="155.62626262626264" y="1480.0" type="line"/>
    </contour>
    <contour>
      <point x="327.60606060606057" y="624.1010101010102" type="line"/>
      <point x="1227.4646464646464" y="624.1010101010102" type="line"/>
      <point x="1227.4646464646464" y="889.4747474747475" type="line"/>
      <point x="327.60606060606057" y="889.4747474747475" type="line"/>
    </contour>
    <contour>
      <point x="1050.6262626262626" y="1605.7575757575758" type="curve" smooth="yes"/>
      <point x="1173.6767676767677" y="1605.7575757575758"/>
      <point x="1229.1616161616162" y="1660.6464646464647"/>
      <point x="1229.1616161616162" y="1750.5959595959596" type="curve" smooth="yes"/>
      <point x="1229.1616161616162" y="1840.5454545454545"/>
      <point x="1173.6767676767677" y="1896.030303030303"/>
      <point x="1050.6262626262626" y="1896.030303030303" type="curve" smooth="yes"/>
      <point x="927.5757575757575" y="1896.030303030303"/>
      <point x="872.0909090909091" y="1840.5454545454545"/>
      <point x="872.0909090909091" y="1750.5959595959596" type="curve" smooth="yes"/>
      <point x="872.0909090909091" y="1660.6464646464647"/>
      <point x="927.5757575757575" y="1605.7575757575758"/>
    </contour>
    <contour>
      <point x="480.0808080808081" y="1605.7575757575758" type="curve" smooth="yes"/>
      <point x="603.1313131313132" y="1605.7575757575758"/>
      <point x="658.6161616161615" y="1660.6464646464647"/>
      <point x="658.6161616161615" y="1750.5959595959596" type="curve" smooth="yes"/>
      <point x="658.6161616161615" y="1840.5454545454545"/>
      <point x="603.1313131313132" y="1896.030303030303"/>
      <point x="480.0808080808081" y="1896.030303030303" type="curve" smooth="yes"/>
      <point x="357.03030303030306" y="1896.030303030303"/>
      <point x="301.54545454545456" y="1840.5454545454545"/>
      <point x="301.54545454545456" y="1750.5959595959596" type="curve" smooth="yes"/>
      <point x="301.54545454545456" y="1660.6464646464647"/>
      <point x="357.03030303030306" y="1605.7575757575758"/>
    </contour>
  </outline>
</glyph>
<glyph name="Igrave" format="2">
  <advance width="665.6767676767677"/>
  <unicode hex="00CC"/>
  <anchor x="332.83838383838383" y="1520.0" name="_top"/>
  <anchor x="331.4343434343434" y="0.0" name="bottom"/>
  <anchor x="510.050505050505" y="0.0" name="ogonek"/>
  <anchor x="332.83838383838383" y="1520.0" name="top"/>
  <outline>
    <contour>
      <point x="155.62626262626264" y="0.0" type="line"/>
      <point x="510.050505050505" y="0.0" type="line"/>
      <point x="510.050505050505" y="1480.0" type="line"/>
      <point x="155.62626262626264" y="1480.0" type="line"/>
    </contour>
    <contour>
      <point x="174.6868686868687" y="1594.939393939394" type="line"/>
      <point x="490.98989898989896" y="1594.939393939394" type="line"/>
      <point x="281.6262626262626" y="1897.828282828283" type="line"/>
      <point x="-86.58585858585855" y="1897.828282828283" type="line"/>
    </contour>
  </outline>
</glyph>
<glyph name="Iacute" format="2">
  <advance width="665.6767676767677"/>
  <unicode hex="00CD"/>
  <anchor x="332.83838383838383" y="1520.0" name="_top"/>
  <anchor x="331.4343434343434" y="0.0" name="bottom"/>
  <anchor x="510.050505050505" y="0.0" name="ogonek"/>
  <anchor x="332.83838383838383" y="1520.0" name="top"/>
  <outline>
    <contour>
      <point x="155.62626262626264" y="0.0" type="line"/>
      <point x="510.050505050505" y="0.0" type="line"/>
      <point x="510.050505050505" y="1480.0" type="line"/>
      <point x="155.62626262626264" y="1480.0" type="line"/>
    </contour>
    <contour>
      <point x="171.87878787878788" y="1594.939393939394" type="line"/>
      <point x="488.18181818181813" y="1594.939393939394" type="line"/>
      <point x="749.4545454545454" y="1897.828282828283" type="line"/>
      <point x="381.24242424242425" y="1897.828282828283" type="line"/>
    </contour>
  </outline>
</glyph>
<glyph name="Icircumflex" format="2">
  <advance width="665.6767676767677"/>
  <unicode hex="00CE"/>
  <anchor x="332.83838383838383" y="1520.0" name="_top"/>
  <anchor x="331.4343434343434" y="0.0" name="bottom"/>
  <anchor x="510.050505050505" y="0.0" name="ogonek"/>
  <anchor x="332.83838383838383" y="1520.0" name="top"/>
  <outline>
    <contour>
      <point x="155.62626262626264" y="0.0" type="line"/>
      <point x="510.050505050505" y="0.0" type="line"/>
      <point x="510.050505050505" y="1480.0" type="line"/>
      <point x="155.62626262626264" y="1480.0" type="line"/>
    </contour>
    <contour>
      <point x="-130.96969696969697" y="1594.939393939394" type="line"/>
      <point x="151.97979797979795" y="1594.939393939394" type="line"/>
      <point x="364.8787878787879" y="1802.4343434343434" type="line"/>
      <point x="300.7979797979798" y="1802.4343434343434" type="line"/>
      <point x="513.6969696969697" y="1594.939393939394" type="line"/>
      <point x="796.6464646464646" y="1594.939393939394" type="line"/>
      <point x="478.9494949494949" y="1897.828282828283" type="line"/>
      <point x="186.72727272727275" y="1897.828282828283" type="line"/>
    </contour>
  </outline>
</glyph>
<glyph name="Idieresis" format="2">
  <advance width="665.6767676767677"/>
  <unicode hex="00CF"/>
  <anchor x="332.83838383838383" y="1520.0" name="_top"/>
  <anchor x="331.4343434343434" y="0.0" name="bottom"/>
  <anchor x="510.050505050505" y="0.0" name="ogonek"/>
  <anchor x="332.83838383838383" y="1520.0" name="top"/>
  <outline>
    <contour>
      <point x="155.62626262626264" y="0.0" type="line"/>
      <point x="510.050505050505" y="0.0" type="line"/>
      <point x="510.050505050505" y="1480.0" type="line"/>
      <point x="155.62626262626264" y="1480.0" type="line"/>
    </contour>
    <contour>
      <point x="618.1111111111111" y="1605.7575757575758" type="curve" smooth="yes"/>
      <point x="741.1616161616162" y="1605.7575757575758"/>
      <point x="796.6464646464646" y="1660.6464646464647"/>
      <point x="796.6464646464646" y="1750.5959595959596" type="curve" smooth="yes"/>
      <point x="796.6464646464646" y="1840.5454545454545"/>
      <point x="741.1616161616162" y="1896.030303030303"/>
      <point x="618.1111111111111" y="1896.030303030303" type="curve" smooth="yes"/>
      <point x="495.06060606060606" y="1896.030303030303"/>
      <point x="439.57575757575756" y="1840.5454545454545"/>
      <point x="439.57575757575756" y="1750.5959595959596" type="curve" smooth="yes"/>
      <point x="439.57575757575756" y="1660.6464646464647"/>
      <point x="495.06060606060606" y="1605.7575757575758"/>
    </contour>
    <contour>
      <point x="47.56565656565655" y="1605.7575757575758" type="curve" smooth="yes"/>
      <point x="170.6161616161616" y="1605.7575757575758"/>
      <point x="226.10101010101008" y="1660.6464646464647"/>
      <point x="226.10101010101008" y="1750.5959595959596" type="curve" smooth="yes"/>
      <point x="226.10101010101008" y="1840.5454545454545"/>
      <point x="170.6161616161616" y="1896.030303030303"/>
      <point x="47.56565656565655" y="1896.030303030303" type="curve" smooth="yes"/>
      <point x="-75.48484848484848" y="1896.030303030303"/>
      <point x="-130.96969696969694" y="1840.5454545454545"/>
      <point x="-130.96969696969694" y="1750.5959595959596" type="curve" smooth="yes"/>
      <point x="-130.96969696969694" y="1660.6464646464647"/>
      <point x="-75.48484848484848" y="1605.7575757575758"/>
    </contour>
  </outline>
</glyph>
<glyph name="Ntilde" format="2">
  <advance width="1745.0"/>
  <unicode hex="00D1"/>
  <anchor x="872.7979797979798" y="1520.0" name="_top"/>
  <anchor x="872.7979797979798" y="0.0" name="bottom"/>
  <anchor x="872.7979797979798" y="1520.0" name="top"/>
  <outline>
    <contour>
      <point x="155.62626262626264" y="0.0" type="line"/>
      <point x="489.7979797979798" y="0.0" type="line"/>
      <point x="489.7979797979798" y="1078.818181818182" type="line"/>
      <point x="428.9090909090909" y="1078.818181818182" type="line"/>
      <point x="1233.1616161616162" y="0.0" type="line"/>
      <point x="1589.3737373737372" y="0.0" type="line"/>
      <point x="1589.3737373737372" y="1480.0" type="line"/>
      <point x="1255.2020202020203" y="1480.0" type="line"/>
      <point x="1255.2020202020203" y="401.1818181818181" type="line"/>
      <point x="1316.090909090909" y="401.1818181818181" type="line"/>
      <point x="511.8383838383838" y="1480.0" type="line"/>
      <point x="155.62626262626264" y="1480.0" type="line"/>
    </contour>
    <contour>
      <point x="1059.4747474747473" y="1619.3737373737374" type="curve" smooth="yes"/>
      <point x="1159.1313131313132" y="1619.3737373737374"/>
      <point x="1226.3636363636365" y="1640.7777777777778"/>
      <point x="1284.6161616161617" y="1689.2020202020203" type="curve"/>
      <point x="1284.6161616161617" y="1872.3333333333333" type="line"/>
      <point x="1216.9595959595958" y="1827.141414141414"/>
      <point x="1156.5353535353536" y="1806.5454545454545"/>
      <point x="1067.8989898989898" y="1806.5454545454545" type="curve" smooth="yes"/>
      <point x="936.4141414141413" y="1806.5454545454545"/>
      <point x="835.3939393939394" y="1880.5454545454545"/>
      <point x="686.1212121212121" y="1880.5454545454545" type="curve" smooth="yes"/>
      <point x="586.4646464646464" y="1880.5454545454545"/>
      <point x="519.2323232323232" y="1857.7373737373737"/>
      <point x="460.979797979798" y="1809.3131313131314" type="curve"/>
      <point x="460.979797979798" y="1626.1818181818182" type="line"/>
      <point x="528.6363636363636" y="1671.3737373737374"/>
      <point x="589.060606060606" y="1691.969696969697"/>
      <point x="677.6969696969697" y="1691.969696969697" type="curve" smooth="yes"/>
      <point x="809.1818181818181" y="1691.969696969697"/>
      <point x="910.2020202020202" y="1619.3737373737374"/>
    </contour>
  </outline>
</glyph>
<glyph name="Otilde" format="2">
  <advance width="1796.6464646464647"/>
  <unicode hex="00D5"/>
  <anchor x="898.3232323232323" y="1520.0" name="_top"/>
  <anchor x="898.3232323232323" y="0.0" name="bottom"/>
  <anchor x="898.3232323232323" y="740.0" name="center"/>
  <anchor x="1062.8787878787878" y="0.0" name="ogonek"/>
  <anchor x="898.3232323232323" y="1520.0" name="top"/>
  <anchor x="57.02020202020202" y="1480.0" name="topleft"/>
  <anchor x="1112.828282828283" y="1480.0" name="topright"/>
  <outline>
    <contour>
      <point x="898.3232323232323" y="-19.404040404040405" type="curve" smooth="yes"/>
      <point x="1385.2424242424242" y="-19.404040404040405"/>
      <point x="1696.5555555555557" y="254.33333333333331"/>
      <point x="1696.5555555555557" y="740.0" type="curve" smooth="yes"/>
      <point x="1696.5555555555557" y="1225.6666666666667"/>
      <point x="1388.4343434343434" y="1499.4040404040404"/>
      <point x="898.3232323232323" y="1499.4040404040404" type="curve" smooth="yes"/>
      <point x="410.0" y="1499.4040404040404"/>
      <point x="100.0909090909091" y="1228.4747474747476"/>
      <point x="100.0909090909091" y="740.0" type="curve" smooth="yes"/>
      <point x="100.0909090909091" y="251.5252525252525"/>
      <point x="409.6161616161616" y="-19.404040404040405"/>
    </contour>
    <contour>
      <point x="898.3232323232323" y="259.20202020202015" type="curve" smooth="yes"/>
      <point x="624.3131313131312" y="259.20202020202015"/>
      <point x="461.3232323232323" y="409.0808080808081"/>
      <point x="461.3232323232323" y="746.8080808080808" type="curve" smooth="yes"/>
      <point x="461.3232323232323" y="1070.919191919192"/>
      <point x="628.5252525252524" y="1220.79797979798"/>
      <point x="898.3232323232323" y="1220.79797979798" type="curve" smooth="yes"/>
      <point x="1168.121212121212" y="1220.79797979798"/>
      <point x="1335.3232323232323" y="1066.7070707070707"/>
      <point x="1335.3232323232323" y="733.1919191919192" type="curve" smooth="yes"/>
      <point x="1335.3232323232323" y="413.2929292929293"/>
      <point x="1172.3333333333333" y="259.20202020202015"/>
    </contour>
    <contour>
      <point x="1085.0" y="1619.3737373737374" type="curve" smooth="yes"/>
      <point x="1184.6565656565656" y="1619.3737373737374"/>
      <point x="1251.8888888888887" y="1640.7777777777778"/>
      <point x="1310.141414141414" y="1689.2020202020203" type="curve"/>
      <point x="1310.141414141414" y="1872.3333333333333" type="line"/>
      <point x="1242.4848484848485" y="1827.141414141414"/>
      <point x="1182.060606060606" y="1806.5454545454545"/>
      <point x="1093.4242424242425" y="1806.5454545454545" type="curve" smooth="yes"/>
      <point x="961.9393939393939" y="1806.5454545454545"/>
      <point x="860.9191919191919" y="1880.5454545454545"/>
      <point x="711.6464646464647" y="1880.5454545454545" type="curve" smooth="yes"/>
      <point x="611.989898989899" y="1880.5454545454545"/>
      <point x="544.7575757575758" y="1857.7373737373737"/>
      <point x="486.5050505050505" y="1809.3131313131314" type="curve"/>
      <point x="486.5050505050505" y="1626.1818181818182" type="line"/>
      <point x="554.1616161616162" y="1671.3737373737374"/>
      <point x="614.5858585858585" y="1691.969696969697"/>
      <point x="703.2222222222222" y="1691.969696969697" type="curve" smooth="yes"/>
      <point x="834.7070707070707" y="1691.969696969697"/>
      <point x="935.7272727272727" y="1619.3737373737374"/>
    </contour>
  </outline>
</glyph>
<glyph name="multiply" format="2">
  <advance width="1091.050505050505"/>
  <unicode hex="00D7"/>
  <outline>
    <contour>
      <point x="278.24242424242425" y="311.1212121212121" type="line"/>
      <point x="545.5252525252525" y="578.4040404040404" type="line"/>
      <point x="812.8080808080808" y="311.1212121212121" type="line"/>
      <point x="994.4040404040404" y="492.7171717171717" type="line"/>
      <point x="727.121212121212" y="760.0" type="line"/>
      <point x="994.4040404040404" y="1027.2828282828282" type="line"/>
      <point x="812.8080808080808" y="1208.8787878787878" type="line"/>
      <point x="545.5252525252525" y="941.5959595959596" type="line"/>
      <point x="278.24242424242425" y="1208.8787878787878" type="line"/>
      <point x="96.64646464646466" y="1027.2828282828282" type="line"/>
      <point x="363.92929292929296" y="760.0" type="line"/>
      <point x="96.64646464646466" y="492.7171717171717" type="line"/>
    </contour>
  </outline>
</glyph>
<glyph name="Ucircumflex" format="2">
  <advance width="1693.4242424242425"/>
  <unicode hex="00DB"/>
  <anchor x="849.8181818181818" y="1520.0" name="_top"/>
  <anchor x="849.8181818181818" y="0.0" name="bottom"/>
  <anchor x="1076.232323232323" y="1.1919191919191925" name="ogonek"/>
  <anchor x="849.8181818181818" y="1520.0" name="top"/>
  <anchor x="1196.1818181818182" y="1480.0" name="topright"/>
  <outline>
    <contour>
      <point x="849.8181818181818" y="-19.404040404040405" type="curve" smooth="yes"/>
      <point x="1337.121212121212" y="-19.404040404040405"/>
      <point x="1544.3939393939395" y="218.58585858585857"/>
      <point x="1544.3939393939395" y="655.8585858585859" type="curve" smooth="yes"/>
      <point x="1544.3939393939395" y="1480.0" type="line"/>
      <point x="1196.1818181818182" y="1480.0" type="line"/>
      <point x="1196.1818181818182" y="626.2020202020202" type="line" smooth="yes"/>
      <point x="1196.1818181818182" y="374.9090909090909"/>
      <point x="1083.111111111111" y="264.2222222222222"/>
      <point x="849.8181818181818" y="264.2222222222222" type="curve" smooth="yes"/>
      <point x="616.5252525252524" y="264.2222222222222"/>
      <point x="503.4545454545454" y="374.9090909090909"/>
      <point x="503.4545454545454" y="626.2020202020202" type="curve" smooth="yes"/>
      <point x="503.4545454545454" y="1480.0" type="line"/>
      <point x="149.03030303030303" y="1480.0" type="line"/>
      <point x="149.03030303030303" y="655.8585858585859" type="line" smooth="yes"/>
      <point x="149.03030303030303" y="218.58585858585857"/>
      <point x="355.4949494949495" y="-19.404040404040405"/>
    </contour>
    <contour>
      <point x="386.01010101010104" y="1594.939393939394" type="line"/>
      <point x="668.959595959596" y="1594.939393939394" type="line"/>
      <point x="881.8585858585859" y="1802.4343434343434" type="line"/>
      <point x="817.7777777777778" y="1802.4343434343434" type="line"/>
      <point x="1030.6767676767677" y="1594.939393939394" type="line"/>
      <point x="1313.6262626262626" y="1594.939393939394" type="line"/>
      <point x="995.9292929292928" y="1897.828282828283" type="line"/>
      <point x="703.7070707070707" y="1897.828282828283" type="line"/>
    </contour>
  </outline>
</glyph>
<glyph name="Udieresis" format="2">
  <advance width="1693.4242424242425"/>
  <unicode hex="00DC"/>
  <anchor x="849.8181818181818" y="1520.0" name="_top"/>
  <anchor x="849.8181818181818" y="0.0" name="bottom"/>
  <anchor x="1076.232323232323" y="1.1919191919191925" name="ogonek"/>
  <anchor x="849.8181818181818" y="1520.0" name="top"/>
  <anchor x="1196.1818181818182" y="1480.0" name="topright"/>
  <outline>
    <contour>
      <point x="849.8181818181818" y="-19.404040404040405" type="curve" smooth="yes"/>
      <point x="1337.121212121212" y="-19.404040404040405"/>
      <point x="1544.3939393939395" y="218.58585858585857"/>
      <point x="1544.3939393939395" y="655.8585858585859" type="curve" smooth="yes"/>
      <point x="1544.3939393939395" y="1480.0" type="line"/>
      <point x="1196.1818181818182" y="1480.0" type="line"/>
      <point x="1196.1818181818182" y="626.2020202020202" type="line" smooth="yes"/>
      <point x="1196.1818181818182" y="374.9090909090909"/>
      <point x="1083.111111111111" y="264.2222222222222"/>
      <point x="849.8181818181818" y="264.2222222222222" type="curve" smooth="yes"/>
      <point x="616.5252525252524" y="264.2222222222222"/>
      <point x="503.4545454545454" y="374.9090909090909"/>
      <point x="503.4545454545454" y="626.2020202020202" type="curve" smooth="yes"/>
      <point x="503.4545454545454" y="1480.0" type="line"/>
      <point x="149.03030303030303" y="1480.0" type="line"/>
      <point x="149.03030303030303" y="655.8585858585859" type="line" smooth="yes"/>
      <point x="149.03030303030303" y="218.58585858585857"/>
      <point x="355.4949494949495" y="-19.404040404040405"/>
    </contour>
    <contour>
      <point x="1135.090909090909" y="1605.7575757575758" type="curve" smooth="yes"/>
      <point x="1258.141414141414" y="1605.7575757575758"/>
      <point x="1313.6262626262626" y="1660.6464646464647"/>
      <point x="1313.6262626262626" y="1750.5959595959596" type="curve" smooth="yes"/>
      <point x="1313.6262626262626" y="1840.5454545454545"/>
      <point x="1258.141414141414" y="1896.030303030303"/>
      <point x="1135.090909090909" y="1896.030303030303" type="curve" smooth="yes"/>
      <point x="1012.040404040404" y="1896.030303030303"/>
      <point x="956.5555555555555" y="1840.5454545454545"/>
      <point x="956.5555555555555" y="1750.5959595959596" type="curve" smooth="yes"/>
      <point x="956.5555555555555" y="1660.6464646464647"/>
      <point x="1012.040404040404" y="1605.7575757575758"/>
    </contour>
    <contour>
      <point x="564.5454545454545" y="1605.7575757575758" type="curve" smooth="yes"/>
      <point x="687.5959595959596" y="1605.7575757575758"/>
      <point x="743.0808080808081" y="1660.6464646464647"/>
      <point x="743.0808080808081" y="1750.5959595959596" type="curve" smooth="yes"/>
      <point x="743.0808080808081" y="1840.5454545454545"/>
      <point x="687.5959595959596" y="1896.030303030303"/>
      <point x="564.5454545454545" y="1896.030303030303" type="curve" smooth="yes"/>
      <point x="441.4949494949495" y="1896.030303030303"/>
      <point x="386.01010101010104" y="1840.5454545454545"/>
      <point x="386.01010101010104" y="1750.5959595959596" type="curve" smooth="yes"/>
      <point x="386.01010101010104" y="1660.6464646464647"/>
      <point x="441.4949494949495" y="1605.7575757575758"/>
    </contour>
  </outline>
</glyph>
<glyph name="Thorn" format="2">
  <advance width="1474.2323232323233"/>
  <unicode hex="00DE"/>
  <outline>
    <contour>
      <point x="155.62626262626264" y="0.0" type="line"/>
      <point x="510.050505050505" y="0.0" type="line"/>
      <point x="510.050505050505" y="229.83838383838383" type="line"/>
      <point x="566.5252525252524" y="226.85858585858585"/>
      <point x="622.8686868686868" y="224.26262626262627"/>
      <point x="680.9595959595958" y="224.26262626262627" type="curve" smooth="yes"/>
      <point x="1147.171717171717" y="224.26262626262627"/>
      <point x="1377.888888888889" y="407.8787878787879"/>
      <point x="1377.888888888889" y="761.1919191919192" type="curve" smooth="yes"/>
      <point x="1377.888888888889" y="1132.2929292929293"/>
      <point x="1138.6161616161617" y="1295.7373737373737"/>
      <point x="663.3535353535353" y="1295.7373737373737" type="curve" smooth="yes"/>
      <point x="604.1919191919192" y="1295.7373737373737"/>
      <point x="553.121212121212" y="1290.7575757575758"/>
      <point x="510.050505050505" y="1285.989898989899" type="curve"/>
      <point x="510.050505050505" y="1480.5959595959596" type="line"/>
      <point x="155.62626262626264" y="1480.5959595959596" type="line"/>
    </contour>
    <contour>
      <point x="680.959595959596" y="472.78787878787875" type="curve" smooth="yes"/>
      <point x="616.2727272727273" y="472.78787878787875"/>
      <point x="567.969696969697" y="475.9797979797979"/>
      <point x="510.050505050505" y="482.3636363636363" type="curve"/>
      <point x="510.050505050505" y="1033.2525252525252" type="line"/>
      <point x="565.3333333333333" y="1042.828282828283"/>
      <point x="619.5959595959596" y="1047.2121212121212"/>
      <point x="688.6262626262626" y="1047.2121212121212" type="curve" smooth="yes"/>
      <point x="924.3030303030303" y="1047.2121212121212"/>
      <point x="1034.909090909091" y="961.3333333333334"/>
      <point x="1034.909090909091" y="760.5959595959596" type="curve" smooth="yes"/>
      <point x="1034.909090909091" y="557.010101010101"/>
      <point x="929.6666666666667" y="472.78787878787875"/>
    </contour>
  </outline>
</glyph>
<glyph name="germandbls" format="2">
  <advance width="1793.3939393939393"/>
  <unicode hex="00DF"/>
  <outline>
    <contour>
      <point x="1147.2424242424242" y="-20.808080808080806" type="curve" smooth="yes"/>
      <point x="1535.909090909091" y="-20.808080808080806"/>
      <point x="1726.8787878787878" y="114.04040404040404"/>
      <point x="1726.8787878787878" y="333.9494949494949" type="curve" smooth="yes"/>
      <point x="1726.8787878787878" y="539.3030303030303"/>
      <point x="1608.3737373737372" y="620.4949494949494"/>
      <point x="1386.1616161616162" y="652.070707070707" type="curve" smooth="yes"/>
      <point x="1171.0202020202019" y="682.070707070707" type="line" smooth="yes"/>
      <point x="1084.6666666666665" y="695.8181818181818"/>
      <point x="1061.3434343434342" y="726.6767676767677"/>
      <point x="1061.3434343434342" y="769.7070707070707" type="curve" smooth="yes"/>
      <point x="1061.3434343434342" y="828.6969696969697"/>
      <point x="1107.8181818181818" y="878.3636363636364"/>
      <point x="1345.3535353535353" y="878.3636363636364" type="curve" smooth="yes"/>
      <point x="1419.141414141414" y="878.3636363636364"/>
      <point x="1476.969696969697" y="874.5757575757576"/>
      <point x="1527.8181818181818" y="869.979797979798" type="curve"/>
      <point x="1545.2222222222222" y="941.4242424242425"/>
      <point x="1558.030303030303" y="1005.7676767676768"/>
      <point x="1558.030303030303" y="1080.2323232323233" type="curve" smooth="yes"/>
      <point x="1558.030303030303" y="1453.8383838383838"/>
      <point x="1310.0808080808079" y="1636.0"/>
      <point x="940.9494949494949" y="1636.0" type="curve" smooth="yes"/>
      <point x="495.5656565656566" y="1636.0"/>
      <point x="239.53535353535355" y="1408.010101010101"/>
      <point x="239.53535353535355" y="1005.6363636363636" type="curve" smooth="yes"/>
      <point x="239.53535353535355" y="0.0" type="line"/>
      <point x="585.5353535353535" y="0.0" type="line"/>
      <point x="585.5353535353535" y="1015.0808080808081" type="line" smooth="yes"/>
      <point x="585.5353535353535" y="1280.5353535353536"/>
      <point x="713.070707070707" y="1408.5353535353536"/>
      <point x="969.8383838383838" y="1408.5353535353536" type="curve" smooth="yes"/>
      <point x="1177.7979797979797" y="1408.5353535353536"/>
      <point x="1315.7171717171718" y="1322.959595959596"/>
      <point x="1315.121212121212" y="1126.7777777777778" type="curve" smooth="yes"/>
      <point x="1315.121212121212" y="1066.909090909091"/>
      <point x="1304.909090909091" y="1004.6969696969697"/>
      <point x="1287.2929292929293" y="946.6565656565657" type="curve"/>
      <point x="1469.4848484848485" y="1095.2323232323233" type="line"/>
      <point x="1421.6969696969695" y="1099.828282828283"/>
      <point x="1331.3636363636363" y="1102.4242424242425"/>
      <point x="1284.979797979798" y="1102.4242424242425" type="curve" smooth="yes"/>
      <point x="917.5858585858585" y="1102.4242424242425"/>
      <point x="733.8080808080808" y="969.4040404040404"/>
      <point x="733.8080808080808" y="753.8787878787879" type="curve" smooth="yes"/>
      <point x="733.8080808080808" y="581.2020202020202"/>
      <point x="824.2323232323232" y="472.5656565656566"/>
      <point x="1072.949494949495" y="437.3737373737374" type="curve" smooth="yes"/>
      <point x="1288.090909090909" y="407.3737373737374" type="line" smooth="yes"/>
      <point x="1376.2323232323233" y="393.62626262626264"/>
      <point x="1399.3434343434342" y="368.13131313131316"/>
      <point x="1399.3434343434342" y="317.52525252525254" type="curve" smooth="yes"/>
      <point x="1399.3434343434342" y="251.3434343434343"/>
      <point x="1342.6565656565656" y="212.27272727272725"/>
      <point x="1143.4141414141413" y="212.27272727272725" type="curve" smooth="yes"/>
      <point x="1024.181818181818" y="212.27272727272725"/>
      <point x="870.4040404040404" y="232.10101010101005"/>
      <point x="759.040404040404" y="259.67676767676767" type="curve"/>
      <point x="759.040404040404" y="24.595959595959595" type="line"/>
      <point x="877.8888888888889" y="-6.0"/>
      <point x="1029.2424242424242" y="-20.808080808080806"/>
    </contour>
    <contour>
      <point x="41.656565656565654" y="813.2222222222223" type="line"/>
      <point x="361.14141414141415" y="813.2222222222223" type="line"/>
      <point x="361.14141414141415" y="1094.040404040404" type="line"/>
      <point x="41.656565656565654" y="1094.040404040404" type="line"/>
    </contour>
  </outline>
</glyph>
<glyph name="atilde" format="2">
  <advance width="1273.080808080808"/>
  <unicode hex="00E3"/>
  <anchor x="632.8383838383838" y="1200.0" name="_top"/>
  <anchor x="639.989898989899" y="0.0" name="bottom"/>
  <anchor x="1144.2222222222222" y="0.0" name="ogonek"/>
  <anchor x="632.8383838383838" y="1200.0" name="top"/>
  <outline>
    <contour>
      <point x="485.020202020202" y="-20.21212121212121" type="curve" smooth="yes"/>
      <point x="616.7676767676768" y="-20.21212121212121"/>
      <point x="738.3030303030303" y="20.727272727272734"/>
      <point x="817.4949494949495" y="103.11111111111111" type="curve"/>
      <point x="833.9191919191919" y="103.11111111111111" type="line"/>
      <point x="856.7676767676768" y="0.0" type="line"/>
      <point x="1144.2222222222222" y="0.0" type="line"/>
      <point x="1144.2222222222222" y="622.8686868686868" type="line" smooth="yes"/>
      <point x="1144.2222222222222" y="992.3434343434343"/>
      <point x="970.3535353535353" y="1111.4444444444443"/>
      <point x="574.5454545454545" y="1111.4444444444443" type="curve" smooth="yes"/>
      <point x="454.7171717171717" y="1111.4444444444443"/>
      <point x="302.6363636363636" y="1094.8484848484848"/>
      <point x="179.15151515151516" y="1058.8484848484848" type="curve"/>
      <point x="179.15151515151516" y="812.5353535353536" type="line"/>
      <point x="290.13131313131316" y="846.1111111111111"/>
      <point x="422.1717171717172" y="861.5151515151515"/>
      <point x="516.1717171717172" y="861.5151515151515" type="curve" smooth="yes"/>
      <point x="725.3636363636364" y="861.5151515151515"/>
      <point x="805.2424242424242" y="810.5353535353536"/>
      <point x="805.2424242424242" y="650.3535353535353" type="curve" smooth="yes"/>
      <point x="805.2424242424242" y="275.5656565656566" type="line"/>
      <point x="743.3636363636364" y="226.74747474747474"/>
      <point x="664.9292929292928" y="205.84848484848482"/>
      <point x="591.7272727272727" y="205.84848484848482" type="curve" smooth="yes"/>
      <point x="477.3333333333333" y="205.84848484848482"/>
      <point x="424.2222222222222" y="253.34343434343432"/>
      <point x="424.2222222222222" y="326.75757575757575" type="curve" smooth="yes"/>
      <point x="424.2222222222222" y="401.7878787878788"/>
      <point x="475.1212121212121" y="445.7070707070707"/>
      <point x="617.4747474747475" y="458.26262626262627" type="curve" smooth="yes"/>
      <point x="900.8080808080808" y="480.39393939393943" type="line"/>
      <point x="871.1111111111111" y="662.929292929293" type="line"/>
      <point x="585.7777777777777" y="640.7979797979798" type="line" smooth="yes"/>
      <point x="231.95959595959596" y="618.030303030303"/>
      <point x="80.64646464646466" y="501.5656565656566"/>
      <point x="80.64646464646466" y="298.8888888888889" type="curve" smooth="yes"/>
      <point x="80.64646464646466" y="113.86868686868686"/>
      <point x="217.87878787878788" y="-20.21212121212121"/>
    </contour>
    <contour>
      <point x="802.4949494949494" y="1281.7171717171718" type="curve" smooth="yes"/>
      <point x="893.5555555555554" y="1281.7171717171718"/>
      <point x="960.7878787878788" y="1305.9292929292928"/>
      <point x="1019.0404040404039" y="1359.969696969697" type="curve"/>
      <point x="1019.0404040404039" y="1564.1616161616162" type="line"/>
      <point x="951.3838383838383" y="1503.5252525252524"/>
      <point x="890.959595959596" y="1478.7171717171718"/>
      <point x="810.9191919191919" y="1478.7171717171718" type="curve" smooth="yes"/>
      <point x="696.4545454545455" y="1478.7171717171718"/>
      <point x="595.4343434343434" y="1572.3737373737374"/>
      <point x="463.18181818181813" y="1572.3737373737374" type="curve" smooth="yes"/>
      <point x="372.1212121212121" y="1572.3737373737374"/>
      <point x="304.8888888888889" y="1548.1616161616162"/>
      <point x="246.63636363636363" y="1494.121212121212" type="curve"/>
      <point x="246.63636363636363" y="1289.9292929292928" type="line"/>
      <point x="314.2929292929293" y="1350.5656565656566"/>
      <point x="374.7171717171717" y="1375.3737373737374"/>
      <point x="454.75757575757575" y="1375.3737373737374" type="curve" smooth="yes"/>
      <point x="569.2222222222222" y="1375.3737373737374"/>
      <point x="670.2424242424242" y="1281.7171717171718"/>
    </contour>
  </outline>
</glyph>
<glyph name="ae" format="2">
  <advance width="1976.1919191919192"/>
  <unicode hex="00E6"/>
  <anchor x="983.8585858585859" y="0.0" name="bottom"/>
  <anchor x="983.8585858585859" y="1200.0" name="top"/>
  <outline>
    <contour>
      <point x="1474.4949494949494" y="-20.808080808080806" type="curve" smooth="yes"/>
      <point x="1585.5151515151515" y="-20.808080808080806"/>
      <point x="1705.171717171717" y="-11.232323232323232"/>
      <point x="1836.4444444444443" y="16.343434343434346" type="curve"/>
      <point x="1836.4444444444443" y="259.8484848484848" type="line"/>
      <point x="1734.060606060606" y="239.29292929292927"/>
      <point x="1621.4242424242425" y="226.31313131313127"/>
      <point x="1527.6363636363635" y="226.31313131313127" type="curve" smooth="yes"/>
      <point x="1229.979797979798" y="226.31313131313127"/>
      <point x="1144.2222222222222" y="301.5151515151515"/>
      <point x="1144.2222222222222" y="493.8787878787879" type="curve" smooth="yes"/>
      <point x="1144.2222222222222" y="621.010101010101" type="line" smooth="yes"/>
      <point x="1144.2222222222222" y="814.6060606060606"/>
      <point x="1219.8484848484848" y="900.8282828282829"/>
      <point x="1365.9898989898988" y="900.8282828282829" type="curve" smooth="yes"/>
      <point x="1512.1313131313132" y="900.8282828282829"/>
      <point x="1585.3737373737374" y="812.6060606060606"/>
      <point x="1585.3737373737374" y="619.6060606060606" type="curve"/>
      <point x="1644.4343434343434" y="640.5858585858585" type="line"/>
      <point x="1059.2525252525252" y="640.5858585858585" type="line"/>
      <point x="1059.2525252525252" y="452.4343434343434" type="line"/>
      <point x="1905.2929292929293" y="452.4343434343434" type="line"/>
      <point x="1905.2929292929293" y="534.1717171717172" type="line" smooth="yes"/>
      <point x="1905.2929292929293" y="897.3636363636364"/>
      <point x="1720.0202020202019" y="1111.4444444444443"/>
      <point x="1385.6464646464647" y="1111.4444444444443" type="curve" smooth="yes"/>
      <point x="1056.888888888889" y="1111.4444444444443"/>
      <point x="849.1515151515151" y="899.1515151515151"/>
      <point x="849.1515151515151" y="563.2323232323232" type="curve"/>
      <point x="805.2424242424242" y="545.4040404040404" type="line"/>
      <point x="805.2424242424242" y="156.0"/>
      <point x="1020.5151515151515" y="-20.808080808080806"/>
    </contour>
    <contour>
      <point x="513.6969696969697" y="-20.21212121212121" type="curve" smooth="yes"/>
      <point x="673.5252525252525" y="-20.21212121212121"/>
      <point x="835.1414141414141" y="33.4040404040404"/>
      <point x="971.8686868686868" y="169.07070707070707" type="curve"/>
      <point x="864.4747474747475" y="321.73737373737373" type="line"/>
      <point x="774.979797979798" y="233.76767676767673"/>
      <point x="688.7979797979798" y="205.84848484848482"/>
      <point x="593.7272727272727" y="205.84848484848482" type="curve" smooth="yes"/>
      <point x="478.5252525252525" y="205.84848484848482"/>
      <point x="424.2222222222222" y="250.5353535353535"/>
      <point x="424.2222222222222" y="325.9494949494949" type="curve" smooth="yes"/>
      <point x="424.2222222222222" y="400.979797979798"/>
      <point x="473.7171717171717" y="455.24242424242425"/>
      <point x="624.4141414141413" y="455.24242424242425" type="curve" smooth="yes"/>
      <point x="867.1515151515151" y="455.24242424242425" type="line"/>
      <point x="867.1515151515151" y="640.5858585858585" type="line"/>
      <point x="595.9090909090909" y="640.5858585858585" type="line" smooth="yes"/>
      <point x="233.15151515151516" y="640.5858585858585"/>
      <point x="80.64646464646466" y="506.37373737373736"/>
      <point x="80.64646464646466" y="300.8888888888889" type="curve" smooth="yes"/>
      <point x="80.64646464646466" y="113.86868686868686"/>
      <point x="219.66666666666669" y="-20.21212121212121"/>
    </contour>
    <contour>
      <point x="805.2424242424242" y="545.4040404040404" type="line"/>
      <point x="1100.3131313131312" y="536.4646464646464" type="line"/>
      <point x="1100.3131313131312" y="622.8686868686868" type="line" smooth="yes"/>
      <point x="1100.3131313131312" y="992.3434343434343"/>
      <point x="927.0404040404039" y="1111.4444444444443"/>
      <point x="560.5050505050505" y="1111.4444444444443" type="curve" smooth="yes"/>
      <point x="440.67676767676767" y="1111.4444444444443"/>
      <point x="302.6363636363636" y="1094.8484848484848"/>
      <point x="179.15151515151516" y="1058.8484848484848" type="curve"/>
      <point x="179.15151515151516" y="812.5353535353536" type="line"/>
      <point x="290.13131313131316" y="846.1111111111111"/>
      <point x="422.1717171717172" y="861.5151515151515"/>
      <point x="516.1717171717172" y="861.5151515151515" type="curve" smooth="yes"/>
      <point x="725.3636363636364" y="861.5151515151515"/>
      <point x="805.2424242424242" y="810.5353535353536"/>
      <point x="805.2424242424242" y="650.3535353535353" type="curve" smooth="yes"/>
    </contour>
  </outline>
</glyph>
<glyph name="ccedilla" format="2">
  <advance width="1121.2929292929293"/>
  <unicode hex="00E7"/>
  <anchor x="643.8181818181818" y="0.0" name="_bottom"/>
  <anchor x="643.8181818181818" y="0.0" name="bottom"/>
  <anchor x="625.9494949494949" y="1200.0" name="top"/>
  <outline>
    <contour>
      <point x="737.1717171717171" y="-20.808080808080806" type="curve" smooth="yes"/>
      <point x="859.8484848484848" y="-20.808080808080806"/>
      <point x="972.4848484848485" y="-2.8080808080808075"/>
      <point x="1058.6565656565656" y="24.767676767676768" type="curve"/>
      <point x="1058.6565656565656" y="289.33333333333326" type="line"/>
      <point x="938.2323232323232" y="260.5656565656565"/>
      <point x="860.2727272727273" y="248.77777777777771"/>
      <point x="772.6565656565656" y="248.77777777777771" type="curve" smooth="yes"/>
      <point x="552.3939393939393" y="248.77777777777771"/>
      <point x="437.28282828282823" y="345.040404040404"/>
      <point x="437.28282828282823" y="545.4040404040404" type="curve" smooth="yes"/>
      <point x="437.28282828282823" y="744.7878787878788"/>
      <point x="547.7575757575758" y="841.8585858585859"/>
      <point x="798.020202020202" y="841.8585858585859" type="curve" smooth="yes"/>
      <point x="890.020202020202" y="841.8585858585859"/>
      <point x="966.6161616161617" y="832.0707070707072"/>
      <point x="1058.6565656565656" y="815.0909090909091" type="curve"/>
      <point x="1058.6565656565656" y="1079.6565656565656" type="line"/>
      <point x="972.020202020202" y="1100.8484848484848"/>
      <point x="873.5959595959596" y="1111.4444444444443"/>
      <point x="764.3232323232323" y="1111.4444444444443" type="curve" smooth="yes"/>
      <point x="321.020202020202" y="1111.4444444444443"/>
      <point x="84.47474747474749" y="910.7676767676768"/>
      <point x="84.47474747474749" y="544.2121212121212" type="curve" smooth="yes"/>
      <point x="84.47474747474749" y="177.06060606060606"/>
      <point x="313.82828282828285" y="-20.808080808080806"/>
    </contour>
    <contour>
      <point x="643.7777777777778" y="-442.1212121212121" type="curve" smooth="yes"/>
      <point x="815.9393939393939" y="-442.1212121212121"/>
      <point x="908.4040404040404" y="-375.27272727272725"/>
      <point x="908.4040404040404" y="-263.020202020202" type="curve" smooth="yes"/>
      <point x="908.4040404040404" y="-150.76767676767676"/>
      <point x="829.9797979797979" y="-79.70707070707071"/>
      <point x="660.6262626262626" y="-79.70707070707071" type="curve"/>
      <point x="732.7878787878788" y="-127.95959595959596" type="line"/>
      <point x="732.7878787878788" y="20.0" type="line"/>
      <point x="574.2929292929293" y="20.0" type="line"/>
      <point x="574.2929292929293" y="-178.04040404040404" type="line"/>
      <point x="629.1414141414141" y="-178.04040404040404" type="line" smooth="yes"/>
      <point x="697.4848484848485" y="-178.04040404040404"/>
      <point x="734.4646464646464" y="-197.6161616161616"/>
      <point x="734.4646464646464" y="-247.57575757575756" type="curve" smooth="yes"/>
      <point x="734.4646464646464" y="-297.5353535353535"/>
      <point x="697.4848484848485" y="-317.11111111111114"/>
      <point x="628.3333333333334" y="-317.11111111111114" type="curve" smooth="yes"/>
      <point x="574.5454545454545" y="-317.11111111111114"/>
      <point x="499.1010101010101" y="-306.5151515151515"/>
      <point x="443.52525252525254" y="-282.93939393939394" type="curve"/>
      <point x="443.52525252525254" y="-407.73737373737373" type="line"/>
      <point x="497.9494949494949" y="-429.52525252525254"/>
      <point x="570.5454545454545" y="-442.1212121212121"/>
    </contour>
  </outline>
</glyph>
